<svg xmlns="http://www.w3.org/2000/svg"><symbol id="arrow-left" viewBox="0 0 477.175 477.175"><path d="M145.188 238.575l215.5-215.5c5.3-5.3 5.3-13.8 0-19.1s-13.8-5.3-19.1 0l-225.1 225.1c-5.3 5.3-5.3 13.8 0 19.1l225.1 225c2.6 2.6 6.1 4 9.5 4s6.9-1.3 9.5-4c5.3-5.3 5.3-13.8 0-19.1l-215.4-215.5z"/></symbol><symbol id="arrow" viewBox="0 0 477.175 477.175"><path d="M360.731 229.075l-225.1-225.1c-5.3-5.3-13.8-5.3-19.1 0s-5.3 13.8 0 19.1l215.5 215.5-215.5 215.5c-5.3 5.3-5.3 13.8 0 19.1 2.6 2.6 6.1 4 9.5 4 3.4 0 6.9-1.3 9.5-4l225.1-225.1c5.3-5.2 5.3-13.8.1-19z"/></symbol><symbol id="basket" viewBox="0 0 487.1 487.1"><path d="M342.3 137.978H385l-63.3-108.6c-5.1-8.8-16.4-11.8-25.2-6.6-8.8 5.1-11.8 16.4-6.6 25.2l52.4 90zM197.4 47.978c5.1-8.8 2.2-20.1-6.6-25.2s-20.1-2.2-25.2 6.6l-63.3 108.7H145l52.4-90.1zM455.7 171.278H31.3c-17.3 0-31.3 14-31.3 31.3v34.7c0 17.3 14 31.3 31.3 31.3h9.8l30.2 163.7c3.8 19.3 21.4 34.6 39.7 34.6h258.8c18.3 0 35.9-15.3 39.7-34.6l30.4-163.8h15.9c17.3 0 31.3-14 31.3-31.3v-34.7c-.1-17.2-14.1-31.2-31.4-31.2zm-282.9 163.6v70.6c0 10.1-8.2 17.7-17.7 17.7-10.1 0-17.7-8.2-17.7-17.7v-99c0-10.1 8.2-17.7 17.7-17.7 10.1 0 17.7 8.2 17.7 17.7v28.4zm56.8 0v70.6c0 10.1-8.2 17.7-17.7 17.7-10.1 0-17.7-8.2-17.7-17.7v-99c0-10.1 8.2-17.7 17.7-17.7s17.7 8.2 17.7 17.7v28.4zm57.1 41v29.6c0 9.5-7.6 17.7-17.7 17.7-9.5 0-17.7-7.6-17.7-17.7v-99c0-9.5 8.2-17.7 17.7-17.7s17.7 7.6 17.7 17.7v69.4zm56.8 0v29.6c0 9.5-7.6 17.7-17.7 17.7-9.5 0-17.7-7.6-17.7-17.7v-99c0-9.5 7.6-17.7 17.7-17.7 9.5 0 17.7 7.6 17.7 17.7v69.4z"/></symbol><symbol id="close" viewBox="0 0 47.971 47.971"><path d="M28.228 23.986L47.092 5.122a2.998 2.998 0 0 0 0-4.242 2.998 2.998 0 0 0-4.242 0L23.986 19.744 5.121.88a2.998 2.998 0 0 0-4.242 0 2.998 2.998 0 0 0 0 4.242l18.865 18.864L.879 42.85a2.998 2.998 0 1 0 4.242 4.241l18.865-18.864L42.85 47.091c.586.586 1.354.879 2.121.879s1.535-.293 2.121-.879a2.998 2.998 0 0 0 0-4.242L28.228 23.986z"/></symbol><symbol id="delivery" viewBox="0 0 512 512"><path d="M315.743 85.333V128c0 32.939-26.795 59.733-59.733 59.733S196.277 160.939 196.277 128V85.333H179.21V128c0 42.342 34.458 76.8 76.8 76.8 42.351 0 76.8-34.458 76.8-76.8V85.333h-17.067z"/><path d="M495.882 437.743l-45.926-183.876c-4.881-18.876-21.871-31.718-40.713-31.974l-102.042-7.919V179.2h-17.067v42.667c0 4.454 3.43 8.158 7.876 8.508l110.592 8.559h.051c11.674 0 21.862 7.893 24.772 19.132l45.909 183.825a42.918 42.918 0 0 1 1.28 10.377c-.009 23.526-19.149 42.667-42.675 42.667V512c32.93 0 59.733-26.795 59.742-59.733a59.336 59.336 0 0 0-1.799-14.524zM204.81 179.2v34.773l-101.359 7.893h-.085c-19.447 0-36.437 13.15-41.327 32.068l-45.901 183.8c-3.883 15.479-1.51 31.539 6.69 45.227 8.192 13.687 21.231 23.364 36.702 27.238a59.689 59.689 0 0 0 14.549 1.8v-17.067c-3.499 0-6.989-.435-10.385-1.289-11.059-2.773-20.369-9.677-26.223-19.456-5.854-9.779-7.552-21.248-4.779-32.316l45.892-183.74c2.927-11.324 13.141-19.226 25.515-19.226l109.909-8.533c4.437-.341 7.868-4.053 7.868-8.508V179.2H204.81zM290.143 0h-68.267C198.35 0 179.21 19.14 179.21 42.667v51.2a8.536 8.536 0 0 0 8.533 8.533h136.533a8.536 8.536 0 0 0 8.533-8.533v-51.2C332.81 19.14 313.67 0 290.143 0zm25.6 85.333H196.277V42.667c0-14.114 11.486-25.6 25.6-25.6h68.267c14.114 0 25.6 11.486 25.6 25.6v42.666z"/><path d="M290.143 51.2h-68.267c-23.526 0-42.667 19.14-42.667 42.667a8.536 8.536 0 0 0 8.533 8.533h136.533a8.536 8.536 0 0 0 8.533-8.533C332.81 70.34 313.67 51.2 290.143 51.2zm-92.399 34.133c3.516-9.933 13.005-17.067 24.132-17.067h68.267c11.127 0 20.617 7.134 24.141 17.067h-116.54z"/><path d="M256.01 128V93.867h-17.067v42.667a8.536 8.536 0 0 0 8.533 8.533h17.067V128h-8.533zM179.21 460.8h-68.267v-17.067c0-14.114-11.486-25.6-25.6-25.6s-25.6 11.486-25.6 25.6v59.733a8.53 8.53 0 0 0 8.533 8.533h76.8c23.526 0 42.667-19.14 42.667-42.667a8.53 8.53 0 0 0-8.533-8.532zm-34.133 34.133H76.81v-51.2c0-4.71 3.831-8.533 8.533-8.533s8.533 3.823 8.533 8.533v25.6a8.53 8.53 0 0 0 8.533 8.533h66.807c-3.523 9.933-13.012 17.067-24.139 17.067zM42.668 366.933h59.733V384H42.668zM409.602 366.933h59.733V384h-59.733z"/><path d="M409.61 256h-307.2a8.536 8.536 0 0 0-8.533 8.533v204.8a8.53 8.53 0 0 0 8.533 8.533h307.2a8.53 8.53 0 0 0 8.533-8.533v-204.8A8.53 8.53 0 0 0 409.61 256zm-8.533 204.8H110.943V273.067h290.133V460.8z"/><path d="M366.935 426.667h17.067v17.067h-17.067zM332.801 426.667h17.067v17.067h-17.067zM292.635 215.834l-36.625 36.634-36.634-36.634L207.31 227.9l42.667 42.667c1.596 1.604 3.772 2.5 6.033 2.5s4.437-.896 6.033-2.5l42.658-42.667-12.066-12.066z"/><path d="M426.677 418.133c-14.114 0-25.6 11.486-25.6 25.6V460.8H332.81a8.525 8.525 0 0 0-8.533 8.533c0 23.526 19.14 42.667 42.667 42.667h76.8a8.53 8.53 0 0 0 8.533-8.533v-59.733c0-14.115-11.486-25.601-25.6-25.601zm8.533 76.8h-68.267c-11.127 0-20.617-7.134-24.141-17.067h66.807a8.525 8.525 0 0 0 8.533-8.533v-25.6c0-4.71 3.823-8.533 8.533-8.533s8.533 3.823 8.533 8.533v51.2zM102.401 315.733h307.2V332.8h-307.2z"/><path d="M290.143 256h-68.267a8.536 8.536 0 0 0-8.533 8.533v110.933a8.53 8.53 0 0 0 8.533 8.533h68.267a8.53 8.53 0 0 0 8.533-8.533V264.533a8.53 8.53 0 0 0-8.533-8.533zm-8.533 110.933h-51.2v-93.867h51.2v93.867z"/></symbol><symbol id="guarantee" viewBox="-3 0 512 512"><path d="M425.328 319.285c21.395-32.492 33.867-71.355 33.867-113.086C459.195 92.5 366.691 0 252.992 0S46.793 92.5 46.793 206.2c0 41.73 12.473 80.593 33.863 113.085L0 436.915l92.293-17.208L109.503 512l76.063-110.934c21.141 7.336 43.825 11.332 67.426 11.332 23.606 0 46.29-3.996 67.426-11.332L396.484 512l17.207-92.293 92.293 17.207zM125.813 434.852l-9.387-50.344-50.34 9.39 33.969-49.543a207.545 207.545 0 0 0 57.312 44.485zM76.969 206.199c0-97.058 78.965-176.023 176.023-176.023 97.063 0 176.028 78.965 176.028 176.023 0 97.063-78.965 176.028-176.028 176.028-97.058 0-176.023-78.965-176.023-176.028zm312.59 178.309l-9.387 50.344-31.55-46.012a207.545 207.545 0 0 0 57.312-44.485l33.968 49.54zm0 0"/><path d="M216.234 251.484l-49.062-49.058-21.336 21.336 70.398 70.398 143.918-143.914-21.336-21.336zm0 0"/></symbol><symbol id="location" viewBox="0 0 54.757 54.757"><path d="M27.557 12c-3.859 0-7 3.141-7 7s3.141 7 7 7 7-3.141 7-7-3.141-7-7-7zm0 12c-2.757 0-5-2.243-5-5s2.243-5 5-5 5 2.243 5 5-2.243 5-5 5z"/><path d="M40.94 5.617A19.052 19.052 0 0 0 27.38 0a19.05 19.05 0 0 0-13.56 5.617c-6.703 6.702-7.536 19.312-1.804 26.952L27.38 54.757 42.721 32.6c5.755-7.671 4.922-20.281-1.781-26.983zm.159 25.814L27.38 51.243 13.639 31.4C8.44 24.468 9.185 13.08 15.235 7.031 18.479 3.787 22.792 2 27.38 2s8.901 1.787 12.146 5.031c6.05 6.049 6.795 17.437 1.573 24.4z"/></symbol><symbol id="search" viewBox="0 0 56.966 56.966"><path d="M55.146 51.887L41.588 37.786A22.926 22.926 0 0 0 46.984 23c0-12.682-10.318-23-23-23s-23 10.318-23 23 10.318 23 23 23c4.761 0 9.298-1.436 13.177-4.162l13.661 14.208c.571.593 1.339.92 2.162.92.779 0 1.518-.297 2.079-.837a3.004 3.004 0 0 0 .083-4.242zM23.984 6c9.374 0 17 7.626 17 17s-7.626 17-17 17-17-7.626-17-17 7.626-17 17-17z"/></symbol><symbol id="wallet" viewBox="-12 1 511 511.999"><path d="M341.96 122.633h24.587a7.68 7.68 0 0 0 7.683-7.684 7.683 7.683 0 0 0-7.683-7.683H341.96a7.682 7.682 0 0 0-7.68 7.683 7.68 7.68 0 0 0 7.68 7.684zm0 0M173.797 107.266H149.21a7.683 7.683 0 0 0-7.684 7.683 7.68 7.68 0 0 0 7.684 7.684h24.586a7.68 7.68 0 0 0 7.68-7.684 7.682 7.682 0 0 0-7.68-7.683zm0 0M410.242 32.262c-7.125 0-10.387 9.347-4.715 13.746 5.555 4.308 13.832-.871 12.203-7.793-.812-3.442-3.949-5.953-7.488-5.953zm0 0M112.602 37.004c-1.211-3.031-4.415-4.965-7.657-4.719-3.199.246-5.98 2.512-6.832 5.61-.808 2.94.23 6.199 2.645 8.082 2.695 2.097 6.496 2.175 9.265.18 2.836-2.04 3.942-5.93 2.579-9.153zm0 0"/><path d="M479.617 221.93a7.68 7.68 0 0 0 7.684-7.684v-27.973c0-24.695-15.406-45.847-37.106-54.382V30.273C450.195 13.578 436.613 0 419.922 0H95.836C79.14 0 65.562 13.578 65.562 30.273v102.793c-20.222 9.196-34.328 29.579-34.328 53.207v61.754C13.633 252.22.5 268.063.5 286.926v65.992c0 18.863 13.133 34.71 30.734 38.898v61.758c0 32.215 26.203 58.426 58.41 58.426h339.243c32.21 0 58.414-26.21 58.414-58.426V244.98a7.68 7.68 0 0 0-7.684-7.68 7.682 7.682 0 0 0-7.683 7.68v208.598c0 23.742-19.309 43.055-43.047 43.055H89.645c-23.735 0-43.043-19.313-43.043-43.055V392.91H182.91c22.05 0 39.988-17.937 39.988-39.992v-65.992c0-22.051-17.937-39.988-39.988-39.988H46.602v-60.665c0-23.742 19.308-43.058 43.043-43.058h339.242c23.738 0 43.047 19.316 43.047 43.058v27.973a7.683 7.683 0 0 0 7.683 7.684zm-272.086 64.996v65.992c0 13.578-11.047 24.625-24.625 24.625H40.488c-13.574 0-24.625-11.047-24.625-24.625v-65.992c0-13.578 11.047-24.625 24.625-24.625h142.418c13.578 0 24.625 11.047 24.625 24.625zm18.078-171.973c0-17.797 14.477-32.27 32.27-32.27 17.793 0 32.27 14.473 32.27 32.27 0 4.461-.926 8.848-2.692 12.895h-59.156a32.242 32.242 0 0 1-2.692-12.895zm192.317 12.895v-48.25a7.683 7.683 0 0 0-7.684-7.684c-17.629 0-31.972-14.34-31.972-31.973a7.683 7.683 0 0 0-7.684-7.683H226.973a7.682 7.682 0 0 0-7.68 7.683 7.68 7.68 0 0 0 7.68 7.684h136.554c3.27 19.96 19.075 35.762 39.032 39.035v41.188h-98.825a47.544 47.544 0 0 0 1.782-12.895c0-26.27-21.368-47.637-47.637-47.637-26.266 0-47.633 21.368-47.633 47.637 0 4.383.606 8.719 1.777 12.895H113.2V86.656c19.961-3.27 35.762-19.07 39.035-39.031h44.008a7.682 7.682 0 0 0 7.68-7.684 7.682 7.682 0 0 0-7.68-7.683h-51.07a7.685 7.685 0 0 0-7.684 7.683c0 17.63-14.34 31.973-31.972 31.973a7.685 7.685 0 0 0-7.684 7.684v48.25h-8.187c-2.961 0-5.872.226-8.715.652V30.273c0-8.218 6.687-14.906 14.906-14.906h324.086c8.219 0 14.906 6.688 14.906 14.906v97.875c-1.953-.199-3.933-.3-5.941-.3zm0 0"/><path d="M147.555 361.215c22.77 0 41.293-18.524 41.293-41.293 0-22.766-18.524-41.293-41.293-41.293-22.766 0-41.29 18.527-41.29 41.293 0 22.77 18.524 41.293 41.29 41.293zm0-67.219c14.297 0 25.93 11.633 25.93 25.926 0 14.297-11.633 25.93-25.93 25.93-14.293 0-25.926-11.633-25.926-25.93 0-14.293 11.633-25.926 25.926-25.926zm0 0"/></symbol></svg>