<?xml version="1.0" standalone="no"?>
<!DOCTYPE svg PUBLIC "-//W3C//DTD SVG 1.1//EN" "http://www.w3.org/Graphics/SVG/1.1/DTD/svg11.dtd" >
<svg>
<metadata>
Created by FontForge 20090622 at Tue Nov  6 13:33:32 2018
 By deploy user
&#194;&#169; Copyright SoftMaker Software GmbH and its licensors
</metadata>
<defs>
<font id="VAGRounded" horiz-adv-x="500" >
  <font-face 
    font-family="VAGRounded"
    font-weight="400"
    font-stretch="normal"
    units-per-em="1000"
    panose-1="0 0 4 0 0 0 0 0 0 0"
    ascent="800"
    descent="-200"
    x-height="507"
    cap-height="677"
    bbox="-98 -250 1175 914"
    underline-thickness="95"
    underline-position="-54"
    unicode-range="U+0020-U+FB04"
  />
<missing-glyph 
d="M63 0v786h375v-786h-375zM125 63h250v661h-250v-661z" />
    <glyph glyph-name=".notdef" 
d="M63 0v786h375v-786h-375zM125 63h250v661h-250v-661z" />
    <glyph glyph-name="NULL" horiz-adv-x="0" 
 />
    <glyph glyph-name="nonmarkingreturn" horiz-adv-x="300" 
 />
    <glyph glyph-name="space" unicode=" " horiz-adv-x="300" 
 />
    <glyph glyph-name="exclam" unicode="!" horiz-adv-x="257" 
d="M127 147q34 0 59 -24.5t25 -56.5q0 -34 -24 -58.5t-57 -24.5t-58 26t-25 60q0 31 24 54.5t56 23.5zM209 296q0 -42 -10 -61q-19 -37 -63 -37q-45 0 -64 37q-10 19 -10 61v290q0 42 10 61q19 37 64 37q44 0 63 -37q10 -20 10 -61v-290z" />
    <glyph glyph-name="quotedbl" unicode="&#x22;" horiz-adv-x="443" 
d="M170 399h-114l-30 268h174zM387 399h-114l-30 268h174z" />
    <glyph glyph-name="numbersign" unicode="#" horiz-adv-x="688" 
d="M336 452h113l35 87q12 31 35 31q13 0 22.5 -9.5t9.5 -21.5q0 -9 -6 -24l-25 -63h48q44 0 44 -33q0 -32 -44 -32h-76l-45 -111h53q42 0 42 -31q0 -32 -42 -32h-78l-36 -90q-12 -30 -34 -30q-13 0 -22.5 9t-9.5 22q0 8 6 23l26 66h-111l-36 -89q-13 -31 -35 -31
q-13 0 -23 9.5t-10 22.5q0 5 7 23l25 65h-51q-42 0 -42 32q0 31 42 31h79l45 111h-53q-43 0 -43 33q0 32 43 32h78l36 88q13 30 34 30q13 0 22.5 -9t9.5 -22q0 -10 -6 -24zM311 387l-45 -111h112l45 111h-112z" />
    <glyph glyph-name="dollar" unicode="$" horiz-adv-x="533" 
d="M310 723v-46q140 -23 140 -93q0 -30 -20.5 -51t-50.5 -21q-18 0 -64 15q-30 10 -53 10q-31 0 -53 -16.5t-22 -39.5q0 -36 61 -52q110 -29 159 -59q87 -53 87 -158q0 -85 -50 -142q-45 -52 -134 -73v-53q0 -27 -6 -40q-14 -24 -43 -24t-41 24q-7 13 -7 40v48
q-88 8 -137.5 36.5t-49.5 71.5q0 29 20 50.5t48 21.5q16 0 84 -23q41 -14 77 -14q35 0 58 19t23 48t-24.5 45t-99.5 37q-96 26 -133 60q-52 48 -52 126q0 85 62 145q45 44 124 61v47q0 28 7 41q12 24 41 24t43 -24q6 -13 6 -41z" />
    <glyph glyph-name="percent" unicode="%" horiz-adv-x="800" 
d="M171 685q68 0 111.5 -61t43.5 -157t-43.5 -157t-111.5 -61q-70 0 -112.5 60.5t-42.5 160.5q0 95 43.5 155t111.5 60zM171 593q-56 0 -56 -125t56 -125t56 125t-56 125zM631 431q68 0 111.5 -61t43.5 -157q0 -95 -43.5 -156t-111.5 -61q-81 0 -123 76q-32 57 -32 144
q0 95 43.5 155t111.5 60zM631 339q-56 0 -56 -125q0 -124 56 -124t56 124q0 125 -56 125zM363 361l109 278q18 45 50 45q19 0 33 -13.5t14 -32.5q0 -11 -9 -34l-230 -578q-18 -44 -50 -44q-19 0 -33 13.5t-14 31.5q0 13 9 35z" />
    <glyph glyph-name="ampersand" unicode="&#x26;" horiz-adv-x="669" 
d="M374 365l96 -102l55 58q21 22 47 22t44.5 -19t18.5 -47q0 -20 -7 -33t-40 -48l-26 -28l42 -43q37 -38 37 -66q0 -29 -21 -50t-52 -21q-29 0 -65 38l-45 47q-109 -90 -216 -90q-97 0 -161 58t-64 146q0 62 32.5 111t107.5 99q-59 64 -59 135q0 65 59.5 108.5t148.5 43.5
q87 0 142 -43t55 -112q0 -106 -129 -164zM269 478l28 -33q66 33 66 71q0 21 -16.5 35.5t-40.5 14.5q-23 0 -39 -14t-16 -34q0 -19 18 -40zM369 168l-133 139q-42 -29 -57.5 -51t-15.5 -52q0 -38 26 -62.5t66 -24.5q46 0 114 51z" />
    <glyph glyph-name="quotesingle" unicode="'" horiz-adv-x="309" 
d="M51 464l109 190q17 30 44 30q18 0 31.5 -11.5t13.5 -26.5q0 -18 -14 -35l-140 -172q-28 -35 -43 -35q-19 0 -19 20q0 9 18 40z" />
    <glyph glyph-name="parenleft" unicode="(" horiz-adv-x="233" 
d="M157 684q25 0 43.5 -16.5t18.5 -37.5q0 -12 -8 -34q-57 -155 -57 -321t57 -321q8 -22 8 -33q0 -21 -18.5 -37.5t-43.5 -16.5q-41 0 -66 58q-27 63 -46 147q-20 90 -20 210q0 133 37 259q25 87 44 115t51 28z" />
    <glyph glyph-name="parenright" unicode=")" horiz-adv-x="233" 
d="M76 684q41 0 66 -58q27 -63 46 -147q20 -90 20 -210q0 -136 -37 -259q-26 -86 -45 -114.5t-50 -28.5q-25 0 -43.5 16.5t-18.5 37.5q0 11 8 33q57 155 57 322q0 165 -57 320q-8 22 -8 34q0 21 18.5 37.5t43.5 16.5z" />
    <glyph glyph-name="asterisk" unicode="*" horiz-adv-x="386" 
d="M235 578l35 33q12 11 27 11q22 0 37.5 -17t15.5 -40q0 -28 -26 -39l-49 -20l43 -15q34 -12 34 -44q0 -23 -15 -39t-36 -16q-14 0 -26 8l-40 33l6 -44q1 -4 1 -13q0 -49 -49 -49q-50 0 -50 49q0 7 1 13l7 44l-41 -33q-12 -8 -26 -8q-21 0 -36 16t-15 39q0 32 34 44l43 15
l-49 20q-25 10 -25 39q0 23 15.5 40t37.5 17q15 0 27 -11l35 -33l-5 47q-1 9 -1 19q0 40 48 40t48 -40q0 5 -2 -19z" />
    <glyph glyph-name="plus" unicode="+" 
d="M9 398h202v200h78v-200h203v-75h-203v-201h-78v201h-202v75z" />
    <glyph glyph-name="comma" unicode="," horiz-adv-x="267" 
d="M22 -43l90 156q19 33 58 33q29 0 50 -20.5t21 -48.5q0 -16 -9 -32l-87 -156q-20 -35 -59 -35q-31 0 -52 20t-21 49q0 18 9 34z" />
    <glyph glyph-name="hyphen" unicode="-" horiz-adv-x="313" 
d="M196 338q36 0 52 -8q32 -16 32 -54q0 -39 -31 -55q-16 -8 -53 -8h-79q-37 0 -53 8q-31 16 -31 55t31 54q17 8 53 8h79z" />
    <glyph glyph-name="period" unicode="." horiz-adv-x="267" 
d="M132 147q34 0 59 -24.5t25 -56.5q0 -34 -24 -58.5t-57 -24.5t-58 26t-25 60q0 31 24 54.5t56 23.5z" />
    <glyph glyph-name="slash" unicode="/" horiz-adv-x="447" 
d="M130 -90q-19 -47 -51 -47q-19 0 -33 13.5t-14 30.5q0 12 11 39l286 691q19 47 51 47q19 0 33 -13.5t14 -30.5q0 -14 -11 -40z" />
    <glyph glyph-name="zero" unicode="0" horiz-adv-x="533" 
d="M266 684q108 0 178 -99t70 -251t-70 -251.5t-177 -99.5q-96 0 -164 78q-82 95 -82 278q0 173 82 267q68 78 163 78zM268 534q-42 0 -66 -53t-24 -145q0 -96 23.5 -149.5t66.5 -53.5q39 0 64 56.5t25 143.5q0 88 -25 144.5t-64 56.5z" />
    <glyph glyph-name="one" unicode="1" horiz-adv-x="533" 
d="M214 532h-32q-38 0 -55 9q-34 17 -34 59q0 41 34 58q17 9 55 9h86q54 0 76 -21t22 -77v-478q0 -43 -10 -63q-19 -38 -66 -38t-66 38q-10 19 -10 63v441z" />
    <glyph glyph-name="two" unicode="2" horiz-adv-x="533" 
d="M263 135h145q38 0 55 -9q34 -17 34 -58q0 -42 -34 -59q-17 -9 -55 -9h-287q-47 0 -66 20t-19 44q0 30 41 74q123 132 189 219q60 78 60 122q0 28 -18.5 47t-45.5 19q-54 0 -73 -67q-15 -54 -27 -67q-17 -19 -46 -19q-31 0 -50.5 20.5t-19.5 54.5q0 88 67 152.5t158 64.5
q90 0 151 -58t61 -144q0 -94 -87 -201q-62 -77 -133 -146z" />
    <glyph glyph-name="three" unicode="3" horiz-adv-x="533" 
d="M396 373l-6 -4q111 -63 111 -169q0 -94 -67 -155.5t-169 -61.5q-81 0 -140 38q-41 26 -68 68t-27 79q0 27 21.5 47.5t50.5 20.5t48 -21q2 -2 25 -40q29 -51 84 -51q37 0 61 24.5t24 61.5q0 67 -83 75q-38 3 -54 16q-24 19 -24 52q0 30 17 46q9 9 57 22q64 18 64 67
q0 25 -17 40.5t-44 15.5q-39 0 -79 -44q-36 -40 -66 -40q-26 0 -45.5 19.5t-19.5 47.5q0 61 65.5 109t149.5 48q86 0 142.5 -51t56.5 -129q0 -86 -68 -131z" />
    <glyph glyph-name="four" unicode="4" horiz-adv-x="533" 
d="M289 143h-194q-81 0 -81 63q0 17 8 32l197 366q39 73 109 73q44 0 73.5 -32t29.5 -81v-288h16q31 0 50.5 -17.5t19.5 -46.5t-22 -49t-55 -20h-9v-58q0 -41 -9 -59q-18 -36 -62 -36q-43 0 -61 36q-10 19 -10 58v59zM289 276v211l-110 -211h110z" />
    <glyph glyph-name="five" unicode="5" horiz-adv-x="533" 
d="M245 532l-10 -85q38 10 66 10q89 0 143.5 -59.5t54.5 -156.5q0 -115 -68 -186.5t-177 -71.5q-66 0 -136 32q-85 40 -85 99q0 30 20 51.5t48 21.5q22 0 76 -33q35 -21 75 -21q39 0 64.5 30.5t25.5 76.5q0 43 -22.5 68.5t-60.5 25.5q-27 0 -80 -26q-14 -7 -32 -7
q-26 0 -44 17t-18 42q0 13 1 21l25 212q9 74 71 74h220q38 0 55 -9q34 -17 34 -58q0 -42 -34 -59q-17 -9 -55 -9h-157z" />
    <glyph glyph-name="six" unicode="6" horiz-adv-x="533" 
d="M264 422q31 9 54 9q83 0 140.5 -61.5t57.5 -150.5q0 -103 -68.5 -169.5t-174.5 -66.5q-103 0 -172.5 65t-69.5 163q0 144 137 322q71 93 103 122t62 29q28 0 49.5 -20t21.5 -46q0 -25 -19 -51q-4 -6 -41.5 -46.5t-79.5 -98.5zM273 305q-34 0 -59.5 -25t-25.5 -60
q0 -36 25 -61.5t61 -25.5q35 0 60 25.5t25 60.5t-25 60.5t-61 25.5z" />
    <glyph glyph-name="seven" unicode="7" horiz-adv-x="533" 
d="M312 532h-189q-39 0 -56 9q-34 17 -34 59q0 41 34 58q17 9 56 9h284q38 0 60.5 -21t22.5 -56q0 -13 -13 -43l-217 -497q-28 -63 -77 -63q-30 0 -54 21.5t-24 48.5q0 20 8 38z" />
    <glyph glyph-name="eight" unicode="8" horiz-adv-x="533" 
d="M419 366q93 -62 93 -165q0 -95 -69 -156.5t-176 -61.5q-108 0 -177 61.5t-69 157.5q0 102 93 164q-63 59 -63 130q0 83 60.5 135.5t155.5 52.5t155 -52.5t60 -135.5q0 -71 -63 -130zM264 554q-26 0 -46 -19.5t-20 -44.5q0 -28 21 -49.5t48 -21.5q28 0 48 20t20 48
q0 27 -21 47t-50 20zM264 309q-35 0 -60.5 -25.5t-25.5 -59.5q0 -37 27 -65t63 -28q35 0 61 26.5t26 63.5q0 35 -27 61.5t-64 26.5z" />
    <glyph glyph-name="nine" unicode="9" horiz-adv-x="533" 
d="M276 245q-31 -9 -54 -9q-83 0 -140.5 61.5t-57.5 150.5q0 103 68.5 169.5t174.5 66.5q103 0 172.5 -65t69.5 -163q0 -144 -137 -322q-71 -93 -103 -122t-62 -29q-28 0 -49.5 20t-21.5 46q0 25 19 51q2 4 43 48q28 30 78 97zM266 534q-35 0 -60 -25.5t-25 -60.5
q0 -36 25 -61t61 -25q35 0 60 25.5t25 59.5q0 36 -25 61.5t-61 25.5z" />
    <glyph glyph-name="colon" unicode=":" horiz-adv-x="267" 
d="M132 437q34 0 59 -24t25 -57q0 -34 -24 -58.5t-57 -24.5t-58 26t-25 60q0 31 24 54.5t56 23.5zM132 147q34 0 59 -24.5t25 -56.5q0 -34 -24 -58.5t-57 -24.5t-58 26t-25 60q0 31 24 54.5t56 23.5z" />
    <glyph glyph-name="semicolon" unicode=";" horiz-adv-x="267" 
d="M155 437q34 0 59 -24.5t25 -56.5q0 -34 -24 -58.5t-57 -24.5t-58 26t-25 60q0 31 24 54.5t56 23.5zM22 -43l90 156q19 33 58 33q29 0 50 -20.5t21 -48.5q0 -16 -9 -32l-87 -156q-20 -35 -59 -35q-31 0 -52 20t-21 49q0 18 9 34z" />
    <glyph glyph-name="less" unicode="&#x3c;" 
d="M466 635v-159l-264 -139l263 -139l1 -158l-433 231v134z" />
    <glyph glyph-name="equal" unicode="=" 
d="M8 472h483v-73h-483v73zM8 321h483v-73h-483v73z" />
    <glyph glyph-name="greater" unicode="&#x3e;" 
d="M33 40v159l264 139l-263 139l-1 158l433 -231v-134z" />
    <glyph glyph-name="question" unicode="?" horiz-adv-x="483" 
d="M224 147q34 0 59 -24.5t25 -56.5q0 -34 -24 -58.5t-57 -24.5t-58 26t-25 60q0 31 24 54.5t56 23.5zM301 277v-8q0 -40 -20 -63t-53 -23q-45 0 -64 37q-10 19 -10 61v47q0 32 13 45t50 19q85 14 85 77q0 28 -20.5 47t-52.5 19q-42 0 -74.5 -44.5t-67.5 -44.5q-30 0 -50 20
t-20 50q0 66 65.5 117t150.5 51q101 0 167.5 -60t66.5 -152q0 -74 -44.5 -126t-121.5 -69z" />
    <glyph glyph-name="at" unicode="@" horiz-adv-x="674" 
d="M589 170h57q-39 -80 -120.5 -129.5t-173.5 -49.5q-139 0 -236.5 97.5t-97.5 237.5t97.5 237t238.5 97q125 0 213.5 -81t88.5 -196q0 -116 -90 -185q-62 -48 -123 -48q-52 0 -70 43q-58 -44 -104 -44q-52 0 -85.5 36.5t-33.5 94.5q0 83 59.5 152t131.5 69q62 0 95 -50
l12 34h79l-77 -236q-9 -28 -9 -37q0 -22 26 -22q42 0 86 51q53 61 53 138q0 98 -73.5 166t-178.5 68q-119 0 -200.5 -82.5t-81.5 -203.5t82 -204t201 -83q70 0 133.5 35.5t100.5 94.5zM378 290l22 63q11 32 11 50q0 23 -13 38.5t-33 15.5q-41 0 -80 -57q-19 -29 -33.5 -73
t-14.5 -75q0 -63 47 -63q59 0 94 101z" />
    <glyph glyph-name="A" unicode="A" horiz-adv-x="607" 
d="M431 127h-256l-16 -58q-22 -81 -78 -81q-32 0 -55 22t-23 52q0 17 13 53l174 480q31 85 113 85t113 -85l174 -480q13 -36 13 -53q0 -30 -23 -52t-55 -22q-56 0 -78 81zM385 264l-81 254l-81 -254h162z" />
    <glyph glyph-name="B" unicode="B" horiz-adv-x="568" 
d="M158 667h134q89 0 138 -42q56 -48 56 -125q0 -84 -79 -133q54 -15 84 -42q54 -48 54 -127q0 -84 -59 -141t-146 -57h-182q-63 0 -87 24t-24 87v444q0 63 24 87q18 18 40 22q13 3 47 3zM200 133h106q45 0 62.5 21t17.5 49q0 73 -84 73h-102v-143zM200 413h76q29 0 47 17.5
t18 45.5q0 25 -20 41t-51 16h-70v-120z" />
    <glyph glyph-name="C" unicode="C" horiz-adv-x="572" 
d="M348 684q88 0 143.5 -30t55.5 -78q0 -29 -17.5 -48.5t-44.5 -19.5q-14 0 -65 20q-34 13 -71 13q-79 0 -123.5 -55.5t-44.5 -153.5q0 -96 45 -151t124 -55q28 0 41 4t65 27q18 8 34 8q26 0 44 -20.5t18 -49.5q0 -49 -57 -80.5t-145 -31.5q-151 0 -242 96.5t-91 256.5
q0 154 92.5 251t238.5 97z" />
    <glyph glyph-name="D" unicode="D" horiz-adv-x="637" 
d="M47 113v442q0 63 24 87q18 18 40 22q13 3 47 3h125q132 0 214 -61q58 -43 90.5 -116t32.5 -161q0 -149 -87 -240t-227 -89l-149 2q-39 1 -55 5.5t-31 19.5q-24 24 -24 86zM200 133h76q88 0 134.5 52t46.5 149q0 103 -61 158q-45 41 -138 41h-58v-400z" />
    <glyph glyph-name="E" unicode="E" horiz-adv-x="461" 
d="M200 530v-127h128q39 0 57 -9q34 -17 34 -59q0 -43 -34 -60q-18 -9 -57 -9h-128v-129h143q39 0 57 -9q34 -17 34 -59q0 -43 -34 -60q-18 -9 -57 -9h-185q-62 0 -86.5 24.5t-24.5 86.5v445q0 63 24 87t87 24h185q39 0 57 -9q34 -17 34 -59q0 -43 -34 -60q-18 -9 -57 -9
h-143z" />
    <glyph glyph-name="F" unicode="F" horiz-adv-x="457" 
d="M200 530v-133h121q39 0 57 -9q34 -17 34 -59q0 -43 -34 -60q-18 -9 -57 -9h-121v-168q0 -44 -10 -64q-19 -38 -66 -38t-67 38q-10 19 -10 64v464q0 63 24 87t87 24h188q39 0 57 -9q34 -17 34 -59q0 -43 -34 -60q-18 -9 -57 -9h-146z" />
    <glyph glyph-name="G" unicode="G" horiz-adv-x="670" 
d="M497 258h-74q-39 0 -57 9q-34 17 -34 60q0 42 34 59q18 9 57 9h149q82 0 82 -97q0 -133 -86 -224t-220 -91q-146 0 -238.5 97t-92.5 250q0 155 96 254.5t246 99.5q97 0 173.5 -42.5t76.5 -95.5q0 -27 -20.5 -47.5t-47.5 -20.5q-16 0 -30.5 7t-62.5 37q-40 25 -96 25
q-77 0 -124.5 -59.5t-47.5 -154.5q0 -97 47 -155t127 -58q72 0 110 51q23 30 33 87z" />
    <glyph glyph-name="H" unicode="H" horiz-adv-x="683" 
d="M483 273h-284v-181q0 -44 -10 -64q-19 -38 -66 -38t-67 38q-10 19 -10 64v483q0 44 10 64q19 38 67 38q46 0 66 -38q10 -19 10 -64v-165h284v165q0 44 10 64q19 38 67 38q46 0 66 -38q10 -19 10 -64v-483q0 -44 -10 -64q-19 -38 -66 -38t-67 38q-10 19 -10 64v181z" />
    <glyph glyph-name="I" unicode="I" horiz-adv-x="246" 
d="M46 575q0 44 10 64q19 38 67 38q47 0 66 -38q10 -20 10 -64v-483q0 -44 -10 -64q-19 -38 -66 -38t-67 38q-10 19 -10 64v483z" />
    <glyph glyph-name="J" unicode="J" horiz-adv-x="405" 
d="M359 575v-363q0 -116 -44 -169q-50 -60 -151 -60q-75 0 -126 30.5t-51 74.5q0 31 20.5 51.5t51.5 20.5q19 0 48 -17t47 -17q52 0 52 86v363q0 44 10 64q19 38 67 38q47 0 66 -38q10 -20 10 -64z" />
    <glyph glyph-name="K" unicode="K" horiz-adv-x="600" 
d="M200 299v-207q0 -44 -10 -64q-19 -38 -66 -38t-67 38q-10 19 -10 64v483q0 44 10 64q19 38 67 38q47 0 66 -38q10 -20 10 -64v-171l197 221q46 52 83 52q30 0 50.5 -21.5t20.5 -52.5q0 -25 -13 -45q-7 -12 -32 -37l-161 -163l203 -215q25 -26 31 -36q13 -20 13 -45
q0 -32 -20 -52t-52 -20q-27 0 -47 14q-11 8 -37 36z" />
    <glyph glyph-name="L" unicode="L" horiz-adv-x="414" 
d="M200 137h143q39 0 57 -9q34 -17 34 -59q0 -43 -34 -60q-18 -9 -57 -9h-181q-36 0 -48 2q-24 5 -42 23t-23 42q-2 13 -2 49v459q0 44 10 64q19 38 67 38q46 0 66 -38q10 -19 10 -64v-438z" />
    <glyph glyph-name="M" unicode="M" horiz-adv-x="814" 
d="M217 394l-49 -314q-7 -43 -20 -62q-20 -28 -60 -28q-32 0 -53.5 22t-21.5 56q0 11 4 36l79 486q14 87 103 87q74 0 95 -65l112 -344l103 329q25 80 101 80q38 0 66.5 -23t34.5 -57l85 -491q5 -29 5 -39q0 -33 -22 -55t-54 -22q-40 0 -60 28q-14 19 -21 62l-51 314
l-94 -313q-17 -55 -32 -70q-22 -21 -58 -21q-61 0 -85 73z" />
    <glyph glyph-name="N" unicode="N" horiz-adv-x="681" 
d="M200 404v-312q0 -44 -10 -64q-19 -38 -66 -38t-67 38q-10 19 -10 64v507q0 35 21 56.5t55 21.5q36 0 63 -34l295 -371v303q0 44 10 64q19 38 67 38q47 0 66 -38q10 -20 10 -64v-497q0 -42 -21 -65t-52 -23q-27 0 -48 19q-3 2 -31 36z" />
    <glyph glyph-name="O" unicode="O" horiz-adv-x="693" 
d="M347 684q146 0 237.5 -97.5t91.5 -252.5t-91 -253t-236 -98q-151 0 -241.5 97.5t-90.5 259.5q0 168 109 262q95 82 221 82zM348 547q-74 0 -121 -58t-47 -149q0 -100 45.5 -160t122.5 -60q75 0 120 58.5t45 155.5t-45 155t-120 58z" />
    <glyph glyph-name="P" unicode="P" horiz-adv-x="552" 
d="M203 219v-127q0 -43 -10 -63q-19 -39 -66 -39t-67 38q-10 19 -10 64v463q0 63 24 87q18 18 40 22q13 3 47 3h138q111 0 170 -56q70 -67 70 -170q0 -89 -51 -151q-58 -71 -169 -71h-116zM203 352h77q46 0 74 24t28 65t-26 66.5t-68 25.5h-85v-181z" />
    <glyph glyph-name="Q" unicode="Q" horiz-adv-x="729" 
d="M566 -23l-52 45q-78 -39 -162 -39q-148 0 -241.5 98.5t-93.5 253.5q0 154 93 251.5t239 97.5q145 0 237.5 -99t92.5 -253q0 -115 -62 -215l40 -34q43 -37 43 -68q0 -29 -21 -50t-50 -21q-25 0 -63 33zM396 129l-26 24q-20 18 -20 47q0 26 20.5 47.5t45.5 21.5t55 -26
l22 -19q23 53 23 115q0 94 -46 151t-121 57q-77 0 -123 -57.5t-46 -153.5q0 -100 46.5 -158t125.5 -58q20 0 44 9z" />
    <glyph glyph-name="R" unicode="R" horiz-adv-x="569" 
d="M200 271v-179q0 -44 -10 -64q-19 -38 -66 -38t-67 38q-10 19 -10 64v463q0 63 24 87q18 18 40 22q13 3 47 3h136q106 0 169.5 -56.5t63.5 -150.5q0 -86 -52 -135q-34 -32 -104 -48l130 -144q37 -41 37 -69q0 -31 -22.5 -53t-54.5 -22q-34 0 -73 48zM200 378h95
q36 0 59 21t23 54q0 34 -24.5 57t-60.5 23h-92v-155z" />
    <glyph glyph-name="S" unicode="S" horiz-adv-x="534" 
d="M278 684q80 0 131.5 -28t51.5 -71q0 -30 -19.5 -50.5t-48.5 -20.5q-15 0 -51.5 13.5t-69.5 13.5t-55 -15.5t-22 -39.5t21 -38q14 -10 24.5 -13.5t57.5 -16.5q111 -30 160.5 -80t49.5 -131q0 -92 -57 -153q-67 -71 -197 -71q-100 0 -163.5 31.5t-63.5 81.5q0 30 19.5 51.5
t46.5 21.5q19 0 92 -28q39 -15 75 -15q38 0 61 19.5t23 50.5t-25 47t-107 41q-100 30 -137 66q-43 42 -43 121q0 93 69.5 153t176.5 60z" />
    <glyph glyph-name="T" unicode="T" horiz-adv-x="485" 
d="M320 530v-438q0 -44 -10 -64q-19 -38 -66 -38t-67 38q-10 19 -10 64v438h-76q-39 0 -57 9q-34 17 -34 60q0 42 34 59q18 9 57 9h302q39 0 57 -9q34 -17 34 -59q0 -43 -34 -60q-18 -9 -57 -9h-73z" />
    <glyph glyph-name="U" unicode="U" horiz-adv-x="660" 
d="M620 575v-282q0 -74 -11.5 -116.5t-42.5 -82.5q-86 -111 -237 -111q-124 0 -206.5 77t-82.5 193v322q0 44 10 64q19 38 67 38q47 0 66 -38q10 -20 10 -64v-300q0 -68 37.5 -108.5t99.5 -40.5q70 0 109 52q28 38 28 115v282q0 44 10 64q19 38 67 38q47 0 66 -38
q10 -20 10 -64z" />
    <glyph glyph-name="V" unicode="V" horiz-adv-x="597" 
d="M299 256l130 347q28 75 80 75q32 0 55 -22t23 -52q0 -18 -15 -56l-197 -499q-24 -62 -78 -62q-49 0 -70 52l-202 509q-14 35 -14 56q0 30 23 52t55 22q51 0 79 -75z" />
    <glyph glyph-name="W" unicode="W" horiz-adv-x="866" 
d="M432 389l-94 -307q-28 -92 -111 -92q-33 0 -60 19.5t-34 48.5l-123 504q-7 29 -7 45q0 29 21.5 50.5t52.5 21.5q34 0 54 -24q15 -18 24 -58l82 -352l114 363q22 69 81 69t81 -69l116 -363l78 350q19 84 80 84q31 0 53 -21.5t22 -52.5q0 -16 -7 -45l-117 -486
q-20 -84 -101 -84q-76 0 -103 84z" />
    <glyph glyph-name="X" unicode="X" horiz-adv-x="611" 
d="M393 358l169 -224q31 -41 31 -71q0 -29 -23.5 -51.5t-54.5 -22.5q-39 0 -77 53l-134 186l-131 -185q-38 -54 -77 -54q-32 0 -55 23t-23 54q0 27 31 68l168 224l-137 180q-30 40 -30 65q0 30 22.5 52t53.5 22q38 0 75 -51l103 -141l96 137q23 33 38.5 44t39.5 11
q32 0 55 -22.5t23 -53.5q0 -26 -31 -68z" />
    <glyph glyph-name="Y" unicode="Y" horiz-adv-x="576" 
d="M361 315v-223q0 -44 -10 -64q-19 -38 -66 -38t-67 38q-10 19 -10 64v223l-161 220q-29 40 -29 67q0 31 22.5 53t54.5 22q23 0 38 -11t38 -43l114 -162l118 163q23 32 38.5 43t38.5 11q31 0 54.5 -22.5t23.5 -51.5q0 -28 -31 -70z" />
    <glyph glyph-name="Z" unicode="Z" horiz-adv-x="522" 
d="M198 137h233q39 0 57 -9q34 -17 34 -59q0 -43 -34 -60q-18 -9 -57 -9h-334q-49 0 -76 28q-21 22 -21 49q0 29 35 75l285 378h-216q-39 0 -57 9q-34 17 -34 60q0 42 34 59q18 9 57 9h316q52 0 76 -33q14 -20 14 -45q0 -31 -21 -59z" />
    <glyph glyph-name="bracketleft" unicode="[" horiz-adv-x="301" 
d="M163 549v-564h51q33 0 49 -8q30 -15 30 -51t-30 -51q-15 -8 -49 -8h-70q-61 0 -84 22t-23 78v600q0 56 23 78t84 22h70q33 0 49 -8q30 -15 30 -51t-30 -51q-15 -8 -49 -8h-51z" />
    <glyph glyph-name="backslash" unicode="\" horiz-adv-x="447" 
d="M32 600q-11 26 -11 40q0 17 14 30.5t33 13.5q32 0 51 -47l286 -691q11 -27 11 -39q0 -17 -14 -30.5t-33 -13.5q-32 0 -51 47z" />
    <glyph glyph-name="bracketright" unicode="]" horiz-adv-x="301" 
d="M138 549h-45q-35 0 -53 8q-32 14 -32 51q0 35 30 51q15 8 49 8h70q60 0 83 -22q17 -16 21 -36q3 -11 3 -42v-600q0 -36 -4 -50t-18 -28q-22 -22 -78 -22h-71q-35 0 -53 8q-32 15 -32 51t32 51q18 8 53 8h45v564z" />
    <glyph glyph-name="asciicircum" unicode="^" 
d="M154 347h-141l148 324h178l148 -324h-141l-96 216z" />
    <glyph glyph-name="underscore" unicode="_" 
d="M0 -54h500v-95h-500v95z" />
    <glyph glyph-name="grave" unicode="`" 
d="M309 557l-154 48q-38 12 -38 49q0 20 15 34.5t36 14.5q7 0 17 -3l157 -46q40 -12 40 -49q0 -22 -14 -37t-35 -15q-11 0 -24 4z" />
    <glyph glyph-name="a" unicode="a" horiz-adv-x="560" 
d="M518 439v-359q0 -39 -20.5 -63t-53.5 -24q-52 0 -74 58q-28 -34 -54 -47.5t-67 -13.5q-81 0 -145 56q-87 77 -87 210q0 118 77 194q68 67 153 67q68 0 125 -58q23 55 73 55q31 0 52 -21.5t21 -53.5zM265 380q-45 0 -73 -34.5t-28 -90.5q0 -58 28 -93t74 -35q45 0 73 35.5
t28 91.5t-28 91t-74 35z" />
    <glyph glyph-name="b" unicode="b" horiz-adv-x="553" 
d="M190 636v-162q59 43 119 43q95 0 161.5 -76.5t66.5 -185.5q0 -113 -65 -189t-162 -76q-78 0 -122 58q-22 -55 -69 -55q-34 0 -55 21.5t-21 56.5v565q0 42 10 61q19 37 64 37q44 0 63 -37q10 -20 10 -61zM291 380q-43 0 -72.5 -36.5t-29.5 -88.5q0 -56 29 -92t73 -36
q43 0 71.5 36.5t28.5 90.5q0 53 -28.5 89.5t-71.5 36.5z" />
    <glyph glyph-name="c" unicode="c" horiz-adv-x="457" 
d="M268 517q73 0 127 -30q41 -23 41 -67q0 -27 -17 -46.5t-41 -19.5q-12 0 -53 15q-30 11 -53 11q-47 0 -77.5 -35.5t-30.5 -91.5q0 -57 31 -91.5t81 -34.5q28 0 57 13.5t43 13.5q26 0 43.5 -19.5t17.5 -47.5q0 -33 -28 -54q-57 -43 -147 -43q-108 0 -178 76q-67 73 -67 189
q0 124 76 193t175 69z" />
    <glyph glyph-name="d" unicode="d" horiz-adv-x="554" 
d="M364 471v165q0 42 10 61q19 37 64 37q44 0 63 -37q10 -20 10 -61v-559q0 -84 -74 -84q-50 0 -71 58q-45 -61 -127 -61q-104 0 -168 92q-55 79 -55 175q0 58 24.5 114.5t65.5 91.5q62 54 139 54q63 0 119 -46zM265 387q-43 0 -72.5 -36.5t-29.5 -88.5q0 -56 29 -92t73 -36
q43 0 71.5 36.5t28.5 90.5q0 53 -28.5 89.5t-71.5 36.5z" />
    <glyph glyph-name="e" unicode="e" horiz-adv-x="529" 
d="M449 205h-274q32 -87 117 -87q26 0 43.5 6t77.5 35q14 7 32 7q23 0 41 -18.5t18 -41.5q0 -45 -67.5 -80.5t-152.5 -35.5q-117 0 -192 72t-75 184q0 116 71.5 193.5t180.5 77.5q103 0 173.5 -73.5t70.5 -180.5q0 -58 -64 -58zM170 305h198q-9 37 -21 54q-26 38 -75 38
q-72 0 -102 -92z" />
    <glyph glyph-name="f" unicode="f" horiz-adv-x="357" 
d="M242 369v-278q0 -42 -10 -61q-19 -37 -63 -37q-45 0 -64 37q-10 19 -10 61v278h-6q-39 0 -56 9q-33 17 -33 58t33 58q17 9 56 9h6v73q0 69 44 111.5t116 42.5q85 0 85 -67q0 -61 -57 -64q-14 -1 -23 -4q-18 -7 -18 -36v-56h26q38 0 55 -9q34 -17 34 -58t-33 -58
q-17 -9 -56 -9h-26z" />
    <glyph glyph-name="g" unicode="g" horiz-adv-x="550" 
d="M507 433v-388q0 -119 -69.5 -187t-191.5 -68q-100 0 -176 42q-45 25 -45 67q0 26 19.5 45t47.5 19q13 0 65 -18t91 -18q74 0 100 49q12 22 17 81q-30 -38 -56.5 -52.5t-66.5 -14.5q-99 0 -162.5 73t-63.5 186q0 114 65 191t162 77q67 0 122 -58q29 55 71 55
q32 0 51.5 -22.5t19.5 -58.5zM261 380q-44 0 -71 -35t-27 -91t28 -91.5t72 -35.5q43 0 71 35.5t28 90.5t-28.5 91t-72.5 36z" />
    <glyph glyph-name="h" unicode="h" horiz-adv-x="547" 
d="M190 636v-161q71 42 135 42q77 0 128 -48t51 -138v-240q0 -42 -10 -61q-19 -37 -63 -37q-45 0 -64 37q-10 19 -10 61v198q0 47 -22 74t-60 27q-37 0 -61 -26t-24 -65v-208q0 -42 -10 -61q-19 -37 -63 -37q-45 0 -64 37q-10 19 -10 61v545q0 42 10 61q19 37 64 37
q44 0 63 -37q10 -20 10 -61z" />
    <glyph glyph-name="i" unicode="i" horiz-adv-x="256" 
d="M126 732q36 0 62 -25t26 -59q0 -35 -25 -61t-59 -26t-60.5 27t-26.5 62q0 33 24.5 57.5t58.5 24.5zM53 416q0 42 10 61q19 37 64 37q44 0 63 -37q10 -20 10 -61v-325q0 -42 -10 -61q-19 -37 -63 -37q-45 0 -64 37q-10 19 -10 61v325z" />
    <glyph glyph-name="j" unicode="j" horiz-adv-x="257" 
d="M127 732q36 0 62 -25t26 -59q0 -35 -25 -61t-59 -26t-60.5 27t-26.5 62q0 33 24.5 57.5t58.5 24.5zM59 416q0 42 10 61q19 37 64 37q44 0 63 -37q10 -20 10 -61v-525q0 -43 -10 -61q-20 -37 -63 -37q-45 0 -64 37q-10 19 -10 61v525z" />
    <glyph glyph-name="k" unicode="k" horiz-adv-x="508" 
d="M190 241v-150q0 -42 -10 -61q-19 -37 -63 -37q-45 0 -64 37q-10 19 -10 61v545q0 42 10 61q19 37 64 37q44 0 63 -37q10 -20 10 -61v-295l135 138q38 39 67 39q30 0 51 -21.5t21 -52.5q0 -27 -40 -66l-91 -88l128 -159q32 -40 32 -65q0 -30 -22 -51.5t-53 -21.5
q-34 0 -71 47z" />
    <glyph glyph-name="l" unicode="l" horiz-adv-x="233" 
d="M190 636v-545q0 -42 -10 -61q-19 -37 -63 -37q-45 0 -64 37q-10 19 -10 61v545q0 41 10 60q19 37 64 37q44 0 63 -37q10 -19 10 -60z" />
    <glyph glyph-name="m" unicode="m" horiz-adv-x="832" 
d="M43 91v338q0 38 20 61.5t53 23.5q38 0 71 -48q57 51 129 51q55 0 100 -25q19 -11 41 -39q80 64 154 64q76 0 126.5 -48.5t50.5 -121.5v-256q0 -42 -10 -61q-19 -37 -63 -37q-45 0 -64 37q-10 19 -10 61v223q0 34 -20.5 55t-54.5 21t-55.5 -21t-21.5 -55v-223
q0 -42 -10 -61q-19 -37 -63 -37q-45 0 -64 37q-10 19 -10 61v209q0 90 -76 90q-33 0 -54.5 -21.5t-21.5 -54.5v-223q0 -42 -10 -61q-19 -37 -63 -37q-45 0 -64 37q-10 19 -10 61z" />
    <glyph glyph-name="n" unicode="n" horiz-adv-x="545" 
d="M43 91v337q0 39 20.5 62.5t54.5 23.5q48 0 68 -51q58 54 135 54q78 0 129.5 -45t51.5 -140v-241q0 -42 -10 -61q-19 -37 -63 -37q-45 0 -64 37q-10 19 -10 61v206q0 43 -22 68t-60 25q-35 0 -59 -25t-24 -62v-212q0 -42 -10 -61q-19 -37 -63 -37q-45 0 -64 37
q-10 19 -10 61z" />
    <glyph glyph-name="o" unicode="o" horiz-adv-x="526" 
d="M263 517q107 0 180 -80q66 -72 66 -184t-70.5 -187.5t-174.5 -75.5q-108 0 -181 80q-66 73 -66 187q0 109 71 184.5t175 75.5zM260 380q-41 0 -69.5 -36t-28.5 -89q0 -55 28 -91.5t71 -36.5t73 37t30 90t-30.5 89.5t-73.5 36.5z" />
    <glyph glyph-name="p" unicode="p" horiz-adv-x="550" 
d="M43 -109v536q0 87 71 87q46 0 71 -56q54 59 131 59q92 0 154.5 -75t62.5 -184q0 -115 -64.5 -191.5t-161.5 -76.5q-59 0 -117 43v-142q0 -43 -10 -61q-20 -37 -63 -37q-45 0 -64 37q-10 19 -10 61zM284 380q-43 0 -71 -35t-28 -90q0 -57 27.5 -92.5t71.5 -35.5
q43 0 72.5 36.5t29.5 89.5q0 54 -29.5 90.5t-72.5 36.5z" />
    <glyph glyph-name="q" unicode="q" horiz-adv-x="551" 
d="M361 -109v144q-58 -45 -118 -45q-39 0 -82 19t-73 49q-72 73 -72 192q0 110 65 188.5t157 78.5q71 0 125 -54q32 51 72 51q31 0 52 -21t21 -53v-549q0 -43 -10 -61q-20 -37 -63 -37q-45 0 -64 37q-10 19 -10 61zM264 380q-43 0 -72 -36t-29 -89q0 -55 28.5 -91.5
t72.5 -36.5t73 35.5t29 90.5t-29 91t-73 36z" />
    <glyph glyph-name="r" unicode="r" horiz-adv-x="365" 
d="M43 91v339q0 38 20 61t54 23q49 0 73 -52q55 55 101 55q31 0 53 -22t22 -54q0 -26 -15 -39.5t-60 -27.5q-60 -19 -80.5 -39t-20.5 -59v-185q0 -42 -10 -61q-19 -37 -63 -37q-45 0 -64 37q-10 19 -10 61z" />
    <glyph glyph-name="s" unicode="s" horiz-adv-x="435" 
d="M231 517q67 0 117 -30.5t50 -70.5q0 -25 -17.5 -44.5t-39.5 -19.5q-17 0 -62 20q-34 15 -57 15q-38 0 -38 -26q0 -19 31 -34q23 -8 46 -17q80 -31 112 -64q36 -37 36 -92q0 -72 -54.5 -118t-139.5 -46q-75 0 -131.5 32t-56.5 74q0 25 19 45.5t42 20.5q18 0 76 -26
q36 -16 59 -16q18 0 30.5 10t12.5 24q0 22 -56 43q-89 34 -118 55q-50 36 -50 106q0 68 54 113.5t135 45.5z" />
    <glyph glyph-name="t" unicode="t" horiz-adv-x="354" 
d="M238 374v-283q0 -42 -10 -61q-19 -37 -63 -37q-45 0 -64 37q-10 19 -10 61v283q-56 0 -73.5 21.5t-17.5 44.5q0 56 57 65q13 2 34 2v76q0 41 10 60q19 37 64 37q44 0 63 -37q10 -19 10 -60v-76h27q39 0 56 -9q33 -17 33 -57q0 -41 -33 -58q-17 -9 -56 -9h-27z" />
    <glyph glyph-name="u" unicode="u" horiz-adv-x="542" 
d="M499 416v-218q0 -76 -36 -121q-70 -87 -192 -87t-192 87q-36 45 -36 121v218q0 42 10 61q19 37 64 37q44 0 63 -37q10 -20 10 -61v-200q0 -41 23.5 -63.5t57.5 -22.5t57.5 22.5t23.5 63.5v200q0 42 10 61q19 37 64 37q44 0 63 -37q10 -20 10 -61z" />
    <glyph glyph-name="v" unicode="v" horiz-adv-x="491" 
d="M242 219l74 220q14 42 32 59t48 17q31 0 53.5 -22t22.5 -51q0 -20 -14 -55l-125 -313q-19 -47 -37.5 -64t-50.5 -17q-59 0 -87 71l-130 324q-14 35 -14 55q0 29 22 50.5t53 21.5q30 0 47.5 -17t31.5 -59z" />
    <glyph glyph-name="w" unicode="w" horiz-adv-x="745" 
d="M519 221l65 217q13 43 30 60t48 17q30 0 52 -21.5t22 -50.5q0 -19 -11 -50l-104 -296q-20 -57 -42.5 -80.5t-58.5 -23.5q-58 0 -85 78l-63 184l-51 -158q-19 -58 -40.5 -81t-56.5 -23q-63 0 -90 78l-113 323q-12 34 -12 51q0 28 22 49t51 21q30 0 50 -20q16 -16 28 -56
l65 -219l72 227q21 67 77 67q52 0 73 -67z" />
    <glyph glyph-name="x" unicode="x" horiz-adv-x="523" 
d="M353 266l117 -131q36 -40 36 -68q0 -31 -22.5 -53t-53.5 -22q-35 0 -72 46l-93 115l-95 -115q-38 -46 -74 -46q-31 0 -53.5 22.5t-22.5 54.5q0 28 38 69l119 128l-96 104q-37 40 -37 69q0 32 22.5 54t53.5 22q35 0 73 -48l72 -90l72 88q38 47 74 47q32 0 54 -22.5
t22 -54.5q0 -29 -39 -70z" />
    <glyph glyph-name="y" unicode="y" horiz-adv-x="497" 
d="M247 227l86 217q15 39 32.5 54.5t45.5 15.5q31 0 53 -21t22 -50q0 -20 -15 -56l-223 -534q-16 -38 -32.5 -52.5t-45.5 -14.5t-51 21t-22 49q0 20 15 55l58 135l-145 343q-15 35 -15 55q0 28 22 49t52 21q28 0 45 -15t32 -54z" />
    <glyph glyph-name="z" unicode="z" horiz-adv-x="449" 
d="M216 133h144q39 0 56 -9q33 -17 33 -57q0 -41 -33 -58q-17 -9 -56 -9h-283q-76 0 -76 50q0 21 17 44l205 280h-132q-38 0 -55 9q-34 17 -34 58q0 40 34 57q17 9 55 9h283q25 0 42.5 -15t17.5 -38q0 -24 -20 -51z" />
    <glyph glyph-name="braceleft" unicode="{" 
d="M304 451v-87q0 -49 -12 -74.5t-46 -47.5q33 -21 45.5 -47.5t12.5 -75.5v-92q0 -31 1 -38q4 -19 19.5 -30t63.5 -11h14v-139q-47 -1 -84 -1q-93 0 -129 26q-43 32 -43 119v139q0 77 -56 90v128q56 13 56 81v144q0 77 35 109q25 23 67 30q21 3 75 3q17 0 79 -2v-147h-13
q-51 0 -68 -13.5t-17 -63.5z" />
    <glyph glyph-name="bar" unicode="|" 
d="M169 667h161v-834h-161v834z" />
    <glyph glyph-name="braceright" unicode="}" 
d="M196 33v87q0 50 12 75.5t46 46.5q-33 21 -45.5 47.5t-12.5 75.5v93q0 53 -20 67q-15 11 -64 11h-14v139q53 2 83 2q56 0 78 -4q42 -8 66 -36q29 -33 29 -106v-139q0 -77 56 -89v-129q-56 -13 -56 -81v-144q0 -76 -35 -108q-25 -23 -68 -30q-20 -3 -75 -3q-34 0 -78 1v147
h13q51 0 68 13.5t17 63.5z" />
    <glyph glyph-name="asciitilde" unicode="~" horiz-adv-x="667" 
d="M169 548l-77 65q56 140 151 140q31 0 112 -34q57 -24 75 -24q37 0 69 60l77 -64q-31 -76 -66.5 -107.5t-90.5 -31.5q-32 0 -111 34q-51 22 -72 22q-34 0 -67 -60z" />
    <glyph glyph-name="Adieresis" unicode="&#xc4;" horiz-adv-x="607" 
d="M431 127h-256l-16 -58q-22 -81 -78 -81q-32 0 -55 22t-23 52q0 17 13 53l174 480q31 85 113 85t113 -85l174 -480q13 -36 13 -53q0 -30 -23 -52t-55 -22q-56 0 -78 81zM385 264l-81 254l-81 -254h162zM216 860q28 0 48.5 -20t20.5 -47t-19.5 -47t-46.5 -20t-47.5 21
t-20.5 49q0 26 19.5 45t45.5 19zM393 860q28 0 48.5 -20t20.5 -47t-19.5 -47t-46.5 -20t-47.5 21t-20.5 49q0 26 19.5 45t45.5 19z" />
    <glyph glyph-name="Aring" unicode="&#xc5;" horiz-adv-x="607" 
d="M431 127h-256l-16 -58q-22 -81 -78 -81q-32 0 -55 22t-23 52q0 17 13 53l174 480q31 85 113 85t113 -85l174 -480q13 -36 13 -53q0 -30 -23 -52t-55 -22q-56 0 -78 81zM385 264l-81 254l-81 -254h162zM304 900q38 0 66 -27t28 -64t-27 -64.5t-63 -27.5q-37 0 -65 29
t-28 67q0 35 26.5 61t62.5 26zM305 850q-16 0 -28 -12t-12 -28q0 -17 13 -30t29 -13q17 0 29 12.5t12 29.5q0 16 -13 28.5t-30 12.5z" />
    <glyph glyph-name="Ccedilla" unicode="&#xc7;" horiz-adv-x="572" 
d="M385 -15l-81 -114q-15 -21 -41 -21q-17 0 -31.5 14.5t-14.5 30.5q0 14 10 28l48 69q-98 20 -156 78q-103 102 -103 262q0 157 92 254.5t240 97.5q88 0 143.5 -30t55.5 -78q0 -30 -17.5 -49t-44.5 -19q-14 0 -65 20q-35 13 -71 13q-79 0 -124 -55.5t-45 -153.5
q0 -96 45 -150.5t124 -54.5q29 0 42.5 4t64.5 26q18 8 34 8q26 0 44 -20.5t18 -48.5q0 -91 -167 -111z" />
    <glyph glyph-name="Eacute" unicode="&#xc9;" horiz-adv-x="461" 
d="M200 530v-127h128q39 0 57 -9q34 -17 34 -59q0 -43 -34 -60q-18 -9 -57 -9h-128v-129h143q39 0 57 -9q34 -17 34 -59q0 -43 -34 -60q-18 -9 -57 -9h-185q-62 0 -86.5 24.5t-24.5 86.5v445q0 63 24 87t87 24h185q39 0 57 -9q34 -17 34 -59q0 -43 -34 -60q-18 -9 -57 -9
h-143zM180 819l157 46q10 3 17 3q22 0 36.5 -14.5t14.5 -34.5q0 -38 -37 -49l-155 -48q-13 -4 -24 -4q-21 0 -35 15t-14 37q0 37 40 49z" />
    <glyph glyph-name="Ntilde" unicode="&#xd1;" horiz-adv-x="681" 
d="M200 404v-312q0 -44 -10 -64q-19 -38 -66 -38t-67 38q-10 19 -10 64v507q0 35 21 56.5t55 21.5q36 0 63 -34l295 -371v303q0 44 10 64q19 38 67 38q47 0 66 -38q10 -20 10 -64v-497q0 -42 -21 -65t-52 -23q-27 0 -48 19q-3 2 -31 36zM280 863q35 0 108 -37q18 -9 34 -9
t28 23.5t37 23.5q19 0 31.5 -13t12.5 -33q0 -37 -31 -64.5t-74 -27.5q-32 0 -76 22q-48 24 -64 24q-11 0 -16 -4.5t-19 -26.5q-10 -16 -32 -16q-43 0 -43 47q0 37 30.5 64t73.5 27z" />
    <glyph glyph-name="Odieresis" unicode="&#xd6;" horiz-adv-x="693" 
d="M347 684q146 0 237.5 -97.5t91.5 -252.5t-91 -253t-236 -98q-151 0 -241.5 97.5t-90.5 259.5q0 168 109 262q95 82 221 82zM348 547q-74 0 -121 -58t-47 -149q0 -100 45.5 -160t122.5 -60q75 0 120 58.5t45 155.5t-45 155t-120 58zM263 860q28 0 48.5 -20t20.5 -47
t-19.5 -47t-46.5 -20t-47.5 21t-20.5 49q0 26 19.5 45t45.5 19zM440 860q28 0 48.5 -20t20.5 -47t-19.5 -47t-46.5 -20t-47.5 21t-20.5 49q0 26 19.5 45t45.5 19z" />
    <glyph glyph-name="Udieresis" unicode="&#xdc;" horiz-adv-x="660" 
d="M620 575v-282q0 -74 -11.5 -116.5t-42.5 -82.5q-86 -111 -237 -111q-124 0 -206.5 77t-82.5 193v322q0 44 10 64q19 38 67 38q47 0 66 -38q10 -20 10 -64v-300q0 -68 37.5 -108.5t99.5 -40.5q70 0 109 52q28 38 28 115v282q0 44 10 64q19 38 67 38q47 0 66 -38
q10 -20 10 -64zM247 860q28 0 48.5 -20t20.5 -47t-19.5 -47t-46.5 -20t-47.5 21t-20.5 49q0 26 19.5 45t45.5 19zM424 860q28 0 48.5 -20t20.5 -47t-19.5 -47t-46.5 -20t-47.5 21t-20.5 49q0 26 19.5 45t45.5 19z" />
    <glyph glyph-name="aacute" unicode="&#xe1;" horiz-adv-x="560" 
d="M518 439v-359q0 -39 -20.5 -63t-53.5 -24q-52 0 -74 58q-28 -34 -54 -47.5t-67 -13.5q-81 0 -145 56q-87 77 -87 210q0 118 77 194q68 67 153 67q68 0 125 -58q23 55 73 55q31 0 52 -21.5t21 -53.5zM265 380q-45 0 -73 -34.5t-28 -90.5q0 -58 28 -93t74 -35q45 0 73 35.5
t28 91.5t-28 91t-74 35zM268 654l157 46q10 3 17 3q22 0 36.5 -14.5t14.5 -34.5q0 -38 -37 -49l-155 -48q-13 -4 -24 -4q-21 0 -35 15t-14 37q0 37 40 49z" />
    <glyph glyph-name="agrave" unicode="&#xe0;" horiz-adv-x="560" 
d="M518 439v-359q0 -39 -20.5 -63t-53.5 -24q-52 0 -74 58q-28 -34 -54 -47.5t-67 -13.5q-81 0 -145 56q-87 77 -87 210q0 118 77 194q68 67 153 67q68 0 125 -58q23 55 73 55q31 0 52 -21.5t21 -53.5zM265 380q-45 0 -73 -34.5t-28 -90.5q0 -58 28 -93t74 -35q45 0 73 35.5
t28 91.5t-28 91t-74 35zM317 557l-154 48q-38 12 -38 49q0 20 15 34.5t36 14.5q7 0 17 -3l157 -46q40 -12 40 -49q0 -22 -14 -37t-35 -15q-11 0 -24 4z" />
    <glyph glyph-name="acircumflex" unicode="&#xe2;" horiz-adv-x="560" 
d="M518 439v-359q0 -39 -20.5 -63t-53.5 -24q-52 0 -74 58q-28 -34 -54 -47.5t-67 -13.5q-81 0 -145 56q-87 77 -87 210q0 118 77 194q68 67 153 67q68 0 125 -58q23 55 73 55q31 0 52 -21.5t21 -53.5zM265 380q-45 0 -73 -34.5t-28 -90.5q0 -58 28 -93t74 -35q45 0 73 35.5
t28 91.5t-28 91t-74 35zM291 585l-113 -43q-11 -4 -21 -4q-19 0 -34 16t-15 36q0 33 33 45l130 48q11 4 19 4q6 0 18 -4l127 -43q39 -13 39 -48q0 -22 -15.5 -37t-37.5 -15q-3 0 -11 2z" />
    <glyph glyph-name="adieresis" unicode="&#xe4;" horiz-adv-x="560" 
d="M518 439v-359q0 -39 -20.5 -63t-53.5 -24q-52 0 -74 58q-28 -34 -54 -47.5t-67 -13.5q-81 0 -145 56q-87 77 -87 210q0 118 77 194q68 67 153 67q68 0 125 -58q23 55 73 55q31 0 52 -21.5t21 -53.5zM265 380q-45 0 -73 -34.5t-28 -90.5q0 -58 28 -93t74 -35q45 0 73 35.5
t28 91.5t-28 91t-74 35zM178 699q31 0 53.5 -22t22.5 -51q0 -30 -21.5 -52t-50.5 -22q-30 0 -52.5 23t-22.5 54q0 28 21 49t50 21zM395 699q31 0 53.5 -22t22.5 -51q0 -30 -21.5 -52t-50.5 -22q-30 0 -52.5 23t-22.5 54q0 28 21 49t50 21z" />
    <glyph glyph-name="atilde" unicode="&#xe3;" horiz-adv-x="560" 
d="M518 439v-359q0 -39 -20.5 -63t-53.5 -24q-52 0 -74 58q-28 -34 -54 -47.5t-67 -13.5q-81 0 -145 56q-87 77 -87 210q0 118 77 194q68 67 153 67q68 0 125 -58q23 55 73 55q31 0 52 -21.5t21 -53.5zM265 380q-45 0 -73 -34.5t-28 -90.5q0 -58 28 -93t74 -35q45 0 73 35.5
t28 91.5t-28 91t-74 35zM215 694q39 0 120 -41q20 -10 38 -10t31.5 26t41.5 26q21 0 35 -14.5t14 -36.5q0 -42 -34.5 -72t-81.5 -30q-37 0 -85 24q-54 27 -72 27q-12 0 -18 -5.5t-21 -29.5q-10 -17 -35 -17q-48 0 -48 52q0 41 34 71t81 30z" />
    <glyph glyph-name="aring" unicode="&#xe5;" horiz-adv-x="560" 
d="M518 439v-359q0 -39 -20.5 -63t-53.5 -24q-52 0 -74 58q-28 -34 -54 -47.5t-67 -13.5q-81 0 -145 56q-87 77 -87 210q0 118 77 194q68 67 153 67q68 0 125 -58q23 55 73 55q31 0 52 -21.5t21 -53.5zM265 380q-45 0 -73 -34.5t-28 -90.5q0 -58 28 -93t74 -35q45 0 73 35.5
t28 91.5t-28 91t-74 35zM285 734q38 0 66 -27t28 -64t-27 -65t-63 -28q-37 0 -65 29t-28 67q0 35 26.5 61.5t62.5 26.5zM286 684q-16 0 -28 -12t-12 -28q0 -17 13 -30.5t29 -13.5t28.5 12.5t12.5 29.5t-13 29.5t-30 12.5z" />
    <glyph glyph-name="ccedilla" unicode="&#xe7;" horiz-adv-x="457" 
d="M322 -6l-88 -112q-22 -28 -44 -28q-18 0 -32 14t-14 32q0 16 12 32l51 68q-41 6 -67 20t-56 47q-67 72 -67 184q0 127 77 198q74 68 174 68q73 0 127 -30q41 -23 41 -67q0 -27 -17 -46.5t-41 -19.5q-12 0 -53 15q-30 11 -53 11q-47 0 -77.5 -35.5t-30.5 -91.5
q0 -57 31 -91.5t81 -34.5q28 0 57 13.5t43 13.5q26 0 43.5 -19t17.5 -47q0 -35 -28 -55q-23 -17 -87 -39z" />
    <glyph glyph-name="eacute" unicode="&#xe9;" horiz-adv-x="529" 
d="M449 205h-274q32 -87 117 -87q26 0 43.5 6t77.5 35q14 7 32 7q23 0 41 -18.5t18 -41.5q0 -45 -67.5 -80.5t-152.5 -35.5q-117 0 -192 72t-75 184q0 116 71.5 193.5t180.5 77.5q103 0 173.5 -73.5t70.5 -180.5q0 -58 -64 -58zM170 305h198q-9 37 -21 54q-26 38 -75 38
q-72 0 -102 -92zM235 654l157 46q10 3 17 3q22 0 36.5 -14.5t14.5 -34.5q0 -38 -37 -49l-155 -48q-13 -4 -24 -4q-21 0 -35 15t-14 37q0 37 40 49z" />
    <glyph glyph-name="egrave" unicode="&#xe8;" horiz-adv-x="529" 
d="M449 205h-274q32 -87 117 -87q26 0 43.5 6t77.5 35q14 7 32 7q23 0 41 -18.5t18 -41.5q0 -45 -67.5 -80.5t-152.5 -35.5q-117 0 -192 72t-75 184q0 116 71.5 193.5t180.5 77.5q103 0 173.5 -73.5t70.5 -180.5q0 -58 -64 -58zM170 305h198q-9 37 -21 54q-26 38 -75 38
q-72 0 -102 -92zM297 557l-154 48q-38 12 -38 49q0 20 15 34.5t36 14.5q7 0 17 -3l157 -46q40 -12 40 -49q0 -22 -14 -37t-35 -15q-11 0 -24 4z" />
    <glyph glyph-name="ecircumflex" unicode="&#xea;" horiz-adv-x="529" 
d="M449 205h-274q32 -87 117 -87q26 0 43.5 6t77.5 35q14 7 32 7q23 0 41 -18.5t18 -41.5q0 -45 -67.5 -80.5t-152.5 -35.5q-117 0 -192 72t-75 184q0 116 71.5 193.5t180.5 77.5q103 0 173.5 -73.5t70.5 -180.5q0 -58 -64 -58zM170 305h198q-9 37 -21 54q-26 38 -75 38
q-72 0 -102 -92zM268 585l-113 -43q-11 -4 -21 -4q-19 0 -34 16t-15 36q0 33 33 45l130 48q11 4 19 4q6 0 18 -4l127 -43q39 -13 39 -48q0 -22 -15.5 -37t-37.5 -15q-3 0 -11 2z" />
    <glyph glyph-name="edieresis" unicode="&#xeb;" horiz-adv-x="529" 
d="M449 205h-274q32 -87 117 -87q26 0 43.5 6t77.5 35q14 7 32 7q23 0 41 -18.5t18 -41.5q0 -45 -67.5 -80.5t-152.5 -35.5q-117 0 -192 72t-75 184q0 116 71.5 193.5t180.5 77.5q103 0 173.5 -73.5t70.5 -180.5q0 -58 -64 -58zM170 305h198q-9 37 -21 54q-26 38 -75 38
q-72 0 -102 -92zM166 699q31 0 53.5 -22t22.5 -51q0 -30 -21.5 -52t-50.5 -22q-30 0 -52.5 23t-22.5 54q0 28 21 49t50 21zM383 699q31 0 53.5 -22t22.5 -51q0 -30 -21.5 -52t-50.5 -22q-30 0 -52.5 23t-22.5 54q0 28 21 49t50 21z" />
    <glyph glyph-name="iacute" unicode="&#xed;" horiz-adv-x="169" 
d="M10 416q0 42 10 61q19 37 64 37q44 0 63 -37q10 -20 10 -61v-325q0 -42 -10 -61q-19 -37 -63 -37q-45 0 -64 37q-10 19 -10 61v325zM52 654l157 46q10 3 17 3q22 0 36.5 -14.5t14.5 -34.5q0 -38 -37 -49l-155 -48q-13 -4 -24 -4q-21 0 -35 15t-14 37q0 37 40 49z" />
    <glyph glyph-name="igrave" unicode="&#xec;" horiz-adv-x="169" 
d="M10 416q0 42 10 61q19 37 64 37q44 0 63 -37q10 -20 10 -61v-325q0 -42 -10 -61q-19 -37 -63 -37q-45 0 -64 37q-10 19 -10 61v325zM104 557l-154 48q-38 12 -38 49q0 20 15 34.5t36 14.5q7 0 17 -3l157 -46q40 -12 40 -49q0 -22 -14 -37t-35 -15q-11 0 -24 4z" />
    <glyph glyph-name="icircumflex" unicode="&#xee;" horiz-adv-x="169" 
d="M10 416q0 42 10 61q19 37 64 37q44 0 63 -37q10 -20 10 -61v-325q0 -42 -10 -61q-19 -37 -63 -37q-45 0 -64 37q-10 19 -10 61v325zM85 585l-113 -43q-11 -4 -21 -4q-19 0 -34 16t-15 36q0 33 33 45l130 48q11 4 19 4q6 0 18 -4l127 -43q39 -13 39 -48q0 -22 -15.5 -37
t-37.5 -15q-3 0 -11 2z" />
    <glyph glyph-name="idieresis" unicode="&#xef;" horiz-adv-x="169" 
d="M10 416q0 42 10 61q19 37 64 37q44 0 63 -37q10 -20 10 -61v-325q0 -42 -10 -61q-19 -37 -63 -37q-45 0 -64 37q-10 19 -10 61v325zM-12 699q28 0 47.5 -20t19.5 -49q0 -30 -19.5 -54t-44.5 -24q-27 0 -47.5 23.5t-20.5 53.5q0 28 19.5 49t45.5 21zM183 699
q28 0 47.5 -20t19.5 -49q0 -30 -19.5 -54t-44.5 -24q-27 0 -47.5 23.5t-20.5 53.5q0 28 19.5 49t45.5 21z" />
    <glyph glyph-name="ntilde" unicode="&#xf1;" horiz-adv-x="545" 
d="M43 91v337q0 39 20.5 62.5t54.5 23.5q48 0 68 -51q58 54 135 54q78 0 129.5 -45t51.5 -140v-241q0 -42 -10 -61q-19 -37 -63 -37q-45 0 -64 37q-10 19 -10 61v206q0 43 -22 68t-60 25q-35 0 -59 -25t-24 -62v-212q0 -42 -10 -61q-19 -37 -63 -37q-45 0 -64 37
q-10 19 -10 61zM203 694q39 0 120 -41q20 -10 38 -10t31.5 26t41.5 26q21 0 35 -14.5t14 -36.5q0 -42 -34.5 -72t-81.5 -30q-37 0 -85 24q-54 27 -72 27q-12 0 -18 -5.5t-21 -29.5q-10 -17 -35 -17q-48 0 -48 52q0 41 34 71t81 30z" />
    <glyph glyph-name="oacute" unicode="&#xf3;" horiz-adv-x="526" 
d="M263 517q107 0 180 -80q66 -72 66 -184t-70.5 -187.5t-174.5 -75.5q-108 0 -181 80q-66 73 -66 187q0 109 71 184.5t175 75.5zM260 380q-41 0 -69.5 -36t-28.5 -89q0 -55 28 -91.5t71 -36.5t73 37t30 90t-30.5 89.5t-73.5 36.5zM234 654l157 46q10 3 17 3
q22 0 36.5 -14.5t14.5 -34.5q0 -38 -37 -49l-155 -48q-13 -4 -24 -4q-21 0 -35 15t-14 37q0 37 40 49z" />
    <glyph glyph-name="ograve" unicode="&#xf2;" horiz-adv-x="526" 
d="M263 517q107 0 180 -80q66 -72 66 -184t-70.5 -187.5t-174.5 -75.5q-108 0 -181 80q-66 73 -66 187q0 109 71 184.5t175 75.5zM260 380q-41 0 -69.5 -36t-28.5 -89q0 -55 28 -91.5t71 -36.5t73 37t30 90t-30.5 89.5t-73.5 36.5zM282 557l-154 48q-38 12 -38 49
q0 20 15 34.5t36 14.5q7 0 17 -3l157 -46q40 -12 40 -49q0 -22 -14 -37t-35 -15q-11 0 -24 4z" />
    <glyph glyph-name="ocircumflex" unicode="&#xf4;" horiz-adv-x="526" 
d="M263 517q107 0 180 -80q66 -72 66 -184t-70.5 -187.5t-174.5 -75.5q-108 0 -181 80q-66 73 -66 187q0 109 71 184.5t175 75.5zM260 380q-41 0 -69.5 -36t-28.5 -89q0 -55 28 -91.5t71 -36.5t73 37t30 90t-30.5 89.5t-73.5 36.5zM266 585l-113 -43q-11 -4 -21 -4
q-19 0 -34 16t-15 36q0 33 33 45l130 48q11 4 19 4q6 0 18 -4l127 -43q39 -13 39 -48q0 -22 -15.5 -37t-37.5 -15q-3 0 -11 2z" />
    <glyph glyph-name="odieresis" unicode="&#xf6;" horiz-adv-x="526" 
d="M263 517q107 0 180 -80q66 -72 66 -184t-70.5 -187.5t-174.5 -75.5q-108 0 -181 80q-66 73 -66 187q0 109 71 184.5t175 75.5zM260 380q-41 0 -69.5 -36t-28.5 -89q0 -55 28 -91.5t71 -36.5t73 37t30 90t-30.5 89.5t-73.5 36.5zM157 699q31 0 53.5 -22t22.5 -51
q0 -30 -21.5 -52t-50.5 -22q-30 0 -52.5 23t-22.5 54q0 28 21 49t50 21zM374 699q31 0 53.5 -22t22.5 -51q0 -30 -21.5 -52t-50.5 -22q-30 0 -52.5 23t-22.5 54q0 28 21 49t50 21z" />
    <glyph glyph-name="otilde" unicode="&#xf5;" horiz-adv-x="526" 
d="M263 517q107 0 180 -80q66 -72 66 -184t-70.5 -187.5t-174.5 -75.5q-108 0 -181 80q-66 73 -66 187q0 109 71 184.5t175 75.5zM260 380q-41 0 -69.5 -36t-28.5 -89q0 -55 28 -91.5t71 -36.5t73 37t30 90t-30.5 89.5t-73.5 36.5zM194 694q39 0 120 -41q20 -10 38 -10
t31.5 26t41.5 26q21 0 35 -14.5t14 -36.5q0 -42 -34.5 -72t-81.5 -30q-37 0 -85 24q-54 27 -72 27q-12 0 -18 -5.5t-21 -29.5q-10 -17 -35 -17q-48 0 -48 52q0 41 34 71t81 30z" />
    <glyph glyph-name="uacute" unicode="&#xfa;" horiz-adv-x="542" 
d="M499 416v-218q0 -76 -36 -121q-70 -87 -192 -87t-192 87q-36 45 -36 121v218q0 42 10 61q19 37 64 37q44 0 63 -37q10 -20 10 -61v-200q0 -41 23.5 -63.5t57.5 -22.5t57.5 22.5t23.5 63.5v200q0 42 10 61q19 37 64 37q44 0 63 -37q10 -20 10 -61zM232 654l157 46
q10 3 17 3q22 0 36.5 -14.5t14.5 -34.5q0 -38 -37 -49l-155 -48q-13 -4 -24 -4q-21 0 -35 15t-14 37q0 37 40 49z" />
    <glyph glyph-name="ugrave" unicode="&#xf9;" horiz-adv-x="542" 
d="M499 416v-218q0 -76 -36 -121q-70 -87 -192 -87t-192 87q-36 45 -36 121v218q0 42 10 61q19 37 64 37q44 0 63 -37q10 -20 10 -61v-200q0 -41 23.5 -63.5t57.5 -22.5t57.5 22.5t23.5 63.5v200q0 42 10 61q19 37 64 37q44 0 63 -37q10 -20 10 -61zM290 557l-154 48
q-38 12 -38 49q0 20 15 34.5t36 14.5q7 0 17 -3l157 -46q40 -12 40 -49q0 -22 -14 -37t-35 -15q-11 0 -24 4z" />
    <glyph glyph-name="ucircumflex" unicode="&#xfb;" horiz-adv-x="542" 
d="M499 416v-218q0 -76 -36 -121q-70 -87 -192 -87t-192 87q-36 45 -36 121v218q0 42 10 61q19 37 64 37q44 0 63 -37q10 -20 10 -61v-200q0 -41 23.5 -63.5t57.5 -22.5t57.5 22.5t23.5 63.5v200q0 42 10 61q19 37 64 37q44 0 63 -37q10 -20 10 -61zM278 585l-113 -43
q-11 -4 -21 -4q-19 0 -34 16t-15 36q0 33 33 45l130 48q11 4 19 4q6 0 18 -4l127 -43q39 -13 39 -48q0 -22 -15.5 -37t-37.5 -15q-3 0 -11 2z" />
    <glyph glyph-name="udieresis" unicode="&#xfc;" horiz-adv-x="542" 
d="M499 416v-218q0 -76 -36 -121q-70 -87 -192 -87t-192 87q-36 45 -36 121v218q0 42 10 61q19 37 64 37q44 0 63 -37q10 -20 10 -61v-200q0 -41 23.5 -63.5t57.5 -22.5t57.5 22.5t23.5 63.5v200q0 42 10 61q19 37 64 37q44 0 63 -37q10 -20 10 -61zM165 699q31 0 53.5 -22
t22.5 -51q0 -30 -21.5 -52t-50.5 -22q-30 0 -52.5 23t-22.5 54q0 28 21 49t50 21zM382 699q31 0 53.5 -22t22.5 -51q0 -30 -21.5 -52t-50.5 -22q-30 0 -52.5 23t-22.5 54q0 28 21 49t50 21z" />
    <glyph glyph-name="dagger" unicode="&#x2020;" horiz-adv-x="533" 
d="M333 344v-391q0 -39 -9 -56q-17 -33 -57 -33q-41 0 -58 33q-9 17 -9 56v391h-84q-39 0 -56 9q-33 17 -33 58q0 40 33 57q17 9 56 9h84v118q0 38 9 55q17 34 58 34q40 0 57 -33q9 -17 9 -56v-118h84q39 0 56 -9q33 -17 33 -57q0 -41 -33 -58q-17 -9 -56 -9h-84z" />
    <glyph glyph-name="degree" unicode="&#xb0;" 
d="M251 673q66 0 112 -47t46 -114q0 -64 -46.5 -110.5t-111.5 -46.5q-67 0 -113.5 46.5t-46.5 112.5t46.5 112.5t113.5 46.5zM249 612q-39 0 -67.5 -29t-28.5 -69t28.5 -69t68.5 -29q39 0 68 28.5t29 67.5q0 41 -29 70.5t-69 29.5z" />
    <glyph glyph-name="cent" unicode="&#xa2;" horiz-adv-x="533" 
d="M355 624v-30q125 -25 125 -96q0 -27 -18 -47t-43 -20q-12 0 -56 16q-25 9 -54 9q-47 0 -77 -35t-30 -91q0 -55 31.5 -90t80.5 -35q26 0 84 22q8 4 22 4q22 0 40 -20t18 -46q0 -31 -22 -52q-26 -25 -101 -43v-35q0 -29 -7 -42q-13 -25 -43 -25q-31 0 -43 25q-7 14 -7 42
v35q-94 18 -148 87.5t-54 171.5q0 142 98 219q41 32 104 46v30q0 28 7 42q12 25 43 25t43 -25q7 -14 7 -42z" />
    <glyph glyph-name="sterling" unicode="&#xa3;" horiz-adv-x="667" 
d="M299 141h233q42 0 59 -9q35 -18 35 -61t-35 -61q-19 -10 -59 -10h-344q-39 0 -62.5 20t-23.5 53q0 30 23 59q29 37 38.5 60.5t15.5 73.5h-45q-40 0 -59 10q-36 18 -36 62q0 43 36 61q19 10 59 10h14q-18 50 -18 86q0 82 71.5 135.5t179.5 53.5q100 0 171 -48t71 -115
q0 -32 -23.5 -54.5t-56.5 -22.5q-38 0 -69 49q-35 54 -93 54q-37 0 -60 -21t-23 -54q0 -21 22 -63h57q40 0 59 -10q36 -18 36 -61q0 -44 -36 -62q-19 -10 -59 -10h-39v-7q0 -43 -39 -118z" />
    <glyph glyph-name="section" unicode="&#xa7;" horiz-adv-x="501" 
d="M409 139q47 -43 47 -102q0 -72 -62.5 -121t-154.5 -49q-79 0 -137 39t-58 92q0 26 17.5 43t42.5 17q16 0 25 -5.5t32 -30.5q32 -34 79 -34q32 0 51.5 12.5t19.5 32.5q0 26 -28 40q-4 2 -97 42q-88 37 -123 70q-46 43 -46 101q0 80 73 144q-29 39 -29 90q0 70 60 117
t148 47q76 0 134 -40t58 -93q0 -25 -17.5 -42.5t-41.5 -17.5q-20 0 -34 12q-7 5 -24 28q-27 35 -75 35q-62 0 -62 -40q0 -21 23 -34q16 -9 78 -36q106 -46 132 -71q44 -42 44 -105q0 -70 -75 -141zM295 221l27 -14q25 25 25 46t-23 37q-14 10 -66 31q-41 17 -79 38
q-26 -22 -26 -42q0 -28 45 -51q17 -6 97 -45z" />
    <glyph glyph-name="bullet" unicode="&#x2022;" horiz-adv-x="667" 
d="M337 477q55 0 95.5 -41t40.5 -97q0 -58 -40.5 -98.5t-97.5 -40.5t-98 40.5t-41 97.5q0 58 41 98.5t100 40.5z" />
    <glyph glyph-name="paragraph" unicode="&#xb6;" horiz-adv-x="628" 
d="M248 -113v433h-13q-80 0 -130.5 48t-50.5 124q0 105 83 149q49 26 144 26h258v-59h-51v-721h-76v721h-88v-721h-76z" />
    <glyph glyph-name="germandbls" unicode="&#xdf;" horiz-adv-x="548" 
d="M43 91v413q0 103 62 166t164 63q89 0 149 -56.5t60 -140.5q0 -79 -63 -131q51 -19 80 -60q36 -51 36 -119q0 -94 -65.5 -165t-152.5 -71q-85 0 -85 70q0 33 23 50q9 7 46 17q81 22 81 103q0 77 -75 92q-47 10 -62 24q-18 17 -18 48q0 51 54 66q58 16 58 67q0 29 -20 49
t-50 20q-43 0 -61 -32q-14 -25 -14 -79v-394q0 -42 -10 -61q-19 -37 -63 -37q-45 0 -64 37q-10 19 -10 61z" />
    <glyph glyph-name="registered" unicode="&#xae;" horiz-adv-x="768" 
d="M238 529h163q57 0 89 -18q52 -30 52 -90q0 -64 -64 -93q33 -13 44.5 -38t13.5 -86q1 -40 10 -59h-90q-5 10 -8 50q-5 70 -19 86q-18 20 -56 20h-41v-156h-94v384zM332 471v-116h48q69 0 69 59q0 57 -63 57h-54zM389 681q140 0 240.5 -103t100.5 -245q0 -143 -101.5 -245
t-243.5 -102q-143 0 -245 102t-102 245q0 146 102 247t249 101zM388 613q-116 0 -196.5 -81t-80.5 -199q0 -115 80.5 -197t192.5 -82q113 0 192.5 82t79.5 197t-79 197.5t-189 82.5z" />
    <glyph glyph-name="copyright" unicode="&#xa9;" horiz-adv-x="768" 
d="M490 296h73q-6 -74 -54 -117.5t-124 -43.5q-85 0 -137 55.5t-52 145.5q0 89 53.5 145t138.5 56q70 0 118.5 -41t52.5 -103h-72q-16 63 -98 63q-46 0 -72.5 -32.5t-26.5 -88.5q0 -55 26.5 -87t71.5 -32q91 0 102 80zM389 681q140 0 240.5 -103t100.5 -245
q0 -143 -101.5 -245t-243.5 -102q-143 0 -245 102t-102 245q0 146 102 247t249 101zM388 613q-116 0 -196.5 -81t-80.5 -199q0 -115 80.5 -197t192.5 -82q113 0 192.5 82t79.5 197t-79 197.5t-189 82.5z" />
    <glyph glyph-name="trademark" unicode="&#x2122;" horiz-adv-x="840" 
d="M212 580v-255q0 -27 -7 -40q-13 -24 -44 -24q-32 0 -45 24q-7 12 -7 40v255h-43q-61 0 -61 44q0 43 61 43h187q61 0 61 -44q0 -43 -61 -43h-41zM463 487l-28 -170q-9 -56 -54 -56q-22 0 -36.5 14t-14.5 35q0 5 3 23l49 286q9 54 68 54q48 0 62 -41l66 -191l60 183
q16 49 67 49q25 0 43.5 -14t22.5 -36l53 -289q3 -16 3 -24q0 -21 -14.5 -35t-36.5 -14q-44 0 -54 56l-29 169l-53 -169q-11 -34 -22.5 -45t-37.5 -11q-41 0 -56 45z" />
    <glyph glyph-name="acute" unicode="&#xb4;" 
d="M157 654l157 46q10 3 17 3q22 0 36.5 -14.5t14.5 -34.5q0 -38 -37 -49l-155 -48q-13 -4 -24 -4q-21 0 -35 15t-14 37q0 37 40 49z" />
    <glyph glyph-name="dieresis" unicode="&#xa8;" 
d="M141 699q31 0 53.5 -22t22.5 -51q0 -30 -21.5 -52t-50.5 -22q-30 0 -52.5 23t-22.5 54q0 28 21 49t50 21zM358 699q31 0 53.5 -22t22.5 -51q0 -30 -21.5 -52t-50.5 -22q-30 0 -52.5 23t-22.5 54q0 28 21 49t50 21z" />
    <glyph glyph-name="notequal" unicode="&#x2260;" 
d="M257 483l69 131l99 -54l-42 -77h84l-1 -133h-138l-40 -75h178v-133h-227l-60 -112l-99 54l33 58h-80l1 133h128l40 75h-168v133h223z" />
    <glyph glyph-name="AE" unicode="&#xc6;" horiz-adv-x="789" 
d="M523 530v-124h132q40 0 57 -9q34 -17 34 -59q0 -43 -34 -60q-18 -9 -57 -9h-132v-132h148q40 0 57 -9q34 -18 34 -60t-34 -59q-18 -9 -57 -9h-186q-41 0 -58 5q-27 9 -44 36q-13 21 -13 72h-174l-23 -57q-27 -66 -76 -66q-29 0 -51 20.5t-22 48.5q0 19 15 54l218 502
q13 30 31 41t53 11h330q40 0 57 -9q34 -17 34 -59q0 -43 -34 -60q-18 -9 -57 -9h-148zM370 250v272l-115 -272h115z" />
    <glyph glyph-name="Oslash" unicode="&#xd8;" horiz-adv-x="694" 
d="M519 638l17 20q31 36 57 36q24 0 41.5 -17.5t17.5 -41.5q0 -20 -26 -52l-17 -21q69 -99 69 -224q0 -158 -92 -256.5t-240 -98.5q-81 0 -175 51l-12 -14q-32 -37 -57 -37t-42.5 17.5t-17.5 41.5q0 21 26 53l17 21q-68 93 -68 219q0 156 92.5 252.5t241.5 96.5
q87 0 168 -46zM507 439l-243 -296q38 -23 81 -23q84 0 132 58t48 159q0 47 -18 102zM187 239l240 288q-36 20 -72 20q-88 0 -136.5 -55.5t-48.5 -153.5q0 -56 17 -99z" />
    <glyph glyph-name="infinity" unicode="&#x221e;" horiz-adv-x="667" 
d="M335 271q-70 -90 -160 -90q-70 0 -114 44.5t-44 115.5q0 69 44.5 113.5t114.5 44.5q88 0 155 -90q67 90 160 90q70 0 114 -44.5t44 -114.5t-44.5 -114.5t-112.5 -44.5q-90 0 -157 90zM385 340q1 -1 4 -6q38 -59 87 -59q28 0 46.5 18.5t18.5 46.5t-19 46.5t-47 18.5
q-46 0 -90 -65zM281 340q-1 1 -4 5q-37 60 -87 60q-28 0 -46.5 -18.5t-18.5 -46.5t19 -46.5t47 -18.5q45 0 90 65z" />
    <glyph glyph-name="plusminus" unicode="&#xb1;" 
d="M9 402h202v200h78v-200h203v-75h-203v-193h-78v193h-202v75zM9 94h483v-75h-483v75z" />
    <glyph glyph-name="lessequal" unicode="&#x2264;" 
d="M466 652v-150l-259 -80l258 -80l1 -149l-433 163v133zM466 166v-140h-433v140h433z" />
    <glyph glyph-name="greaterequal" unicode="&#x2265;" 
d="M33 193l1 149l258 80l-259 80v150l433 -163v-133zM33 26v140h433v-140h-433z" />
    <glyph glyph-name="yen" unicode="&#xa5;" horiz-adv-x="645" 
d="M239 0v224h-202v61h182l-58 99h-140v60h107l-127 220h175l146 -281l144 284h178l-129 -223h107v-60h-141l-58 -99h186v-61h-206v-224h-164z" />
    <glyph glyph-name="mu" unicode="&#x3bc;" horiz-adv-x="589" 
d="M57 -171v651h147v-248q0 -60 16 -85q27 -43 75 -43q90 0 90 131v245h147v-480h-147v64q-31 -73 -93 -73q-55 0 -88 58v-220h-147z" />
    <glyph glyph-name="partialdiff" unicode="&#x2202;" 
d="M58 547l17 117q186 -20 284 -106q124 -109 124 -295q0 -151 -89 -223q-60 -49 -148 -49q-99 0 -164 65t-65 164q0 90 58 151t143 61q69 0 120 -42q-26 46 -43 65t-52 41q-88 43 -185 51zM252 320q-43 0 -72 -30.5t-29 -75.5q0 -42 28.5 -73t68.5 -31q41 0 69.5 31
t28.5 75q0 43 -27.5 73.5t-66.5 30.5z" />
    <glyph glyph-name="summation" unicode="&#x2211;" horiz-adv-x="667" 
d="M624 750v-258h-137l-16 119h-267l241 -346l-240 -376h275l9 124h144v-263h-599v160l232 355l-232 325v160h590z" />
    <glyph glyph-name="product" unicode="&#x220f;" horiz-adv-x="667" 
d="M18 750h631v-121h-72v-758h72v-121h-271v121h63v758h-215v-758h62v-121h-270v121h73v758h-73v121z" />
    <glyph glyph-name="pi" unicode="&#x3c0;" horiz-adv-x="590" 
d="M63 0v367h-62v113h588v-113h-62v-367h-147v367h-170v-367h-147z" />
    <glyph glyph-name="integral" unicode="&#x222b;" 
d="M41 -240l25 144q24 -10 43 -10q42 0 55 34q5 13 5 110v396q0 110 2 136q1 23 9 53q16 59 67 93t125 34q37 0 88 -10l-25 -144q-23 10 -44 10q-42 0 -54 -34q-5 -14 -5 -60v-442q0 -136 -5 -164q-27 -154 -205 -154q-47 0 -81 8z" />
    <glyph glyph-name="ordfeminine" unicode="&#xaa;" horiz-adv-x="347" 
d="M330 361v-67h-310v67h310zM318 414h-102q-2 5 -7 22l-2 6q-25 -22 -38 -28q-16 -8 -44 -8q-46 0 -72.5 21t-26.5 56q0 36 26 57q19 15 76 25q2 0 31.5 6.5t30.5 6.5q15 5 15 18q0 27 -43 27q-38 0 -41 -32h-84q6 91 127 91q76 0 107 -40q15 -19 17.5 -40t2.5 -127
q0 -43 27 -61zM205 525l1 12q-10 -5 -59 -16q-42 -6 -42 -33q0 -29 37 -29q58 0 63 66z" />
    <glyph glyph-name="ordmasculine" unicode="&#xba;" horiz-adv-x="347" 
d="M328 361v-67h-310v67h310zM176 682q61 0 101 -39.5t40 -100.5q0 -59 -40.5 -97.5t-102.5 -38.5q-63 0 -104 39t-41 99q0 61 41 99.5t106 38.5zM175 621q-56 0 -56 -78q0 -75 54 -75q55 0 55 76q0 77 -53 77z" />
    <glyph glyph-name="Omega" unicode="&#x3a9;" horiz-adv-x="666" 
d="M27 0v132h135q-138 86 -138 238q0 131 90 222.5t219 91.5t219 -91.5t90 -222.5q0 -151 -137 -238h134v-132h-270v122q119 62 119 220q0 89 -44 149t-111 60q-66 0 -110.5 -59.5t-44.5 -147.5q0 -160 120 -222v-122h-271z" />
    <glyph glyph-name="ae" unicode="&#xe6;" horiz-adv-x="867" 
d="M781 211h-270q18 -49 53 -68q31 -17 71 -17q33 0 110 28q19 7 35 7q26 0 44.5 -17t18.5 -42q0 -41 -48 -69q-75 -43 -167 -43q-85 0 -143 47q-2 -44 -61 -44q-52 0 -55 60q-26 -33 -55 -46q-38 -17 -76 -17q-41 0 -85.5 21.5t-72.5 54.5q-63 76 -63 191q0 108 67 184
t163 76q75 0 124 -57q1 54 58 54q44 0 56 -36q51 39 117 39q102 0 173 -74q76 -79 76 -181q0 -28 -15.5 -39.5t-54.5 -11.5zM508 308h197q-24 92 -99 92q-76 0 -98 -92zM265 380q-44 0 -72.5 -35.5t-28.5 -90.5q0 -57 27 -92.5t71 -35.5q46 0 74 37t28 96q0 55 -27 88
t-72 33z" />
    <glyph glyph-name="oslash" unicode="&#xf8;" horiz-adv-x="578" 
d="M421 480l7 8q28 32 54 32q24 0 41 -17t17 -41q0 -21 -28 -52l-11 -12q35 -66 35 -142q0 -115 -71.5 -190.5t-180.5 -75.5q-72 0 -129 39l-6 -6q-32 -32 -54 -32q-24 0 -41 17t-17 41q0 22 29 51l9 11q-36 75 -36 143q0 110 74 186.5t181 76.5q61 0 127 -37zM399 290
l-155 -165q21 -10 42 -10q50 0 83 37.5t33 95.5q0 18 -3 42zM175 217l153 163q-23 10 -42 10q-48 0 -80.5 -40t-32.5 -99q0 -8 2 -34z" />
    <glyph glyph-name="questiondown" unicode="&#xbf;" horiz-adv-x="483" 
d="M257 684q33 0 58 -26t25 -60q0 -31 -24 -54.5t-56 -23.5q-34 0 -59 24.5t-25 56.5q0 34 24 58.5t57 24.5zM183 390v8q0 40 20 63t54 23q44 0 63 -37q10 -19 10 -61v-47q0 -32 -13 -45t-50 -19q-85 -14 -85 -77q0 -28 20.5 -47t52.5 -19q42 0 76 46q31 43 66 43
q30 0 50 -20t20 -50q0 -66 -65.5 -117t-150.5 -51q-101 0 -167.5 60t-66.5 152q0 74 44.5 126t121.5 69z" />
    <glyph glyph-name="exclamdown" unicode="&#xa1;" horiz-adv-x="257" 
d="M127 684q34 0 59 -24.5t25 -56.5q0 -34 -24 -58.5t-57 -24.5t-58 26t-25 60q0 31 24 54.5t56 23.5zM209 81q0 -42 -10 -61q-19 -37 -64 -37q-44 0 -63 37q-10 19 -10 61v290q0 42 10 61q19 37 64 37q44 0 63 -37q10 -20 10 -61v-290z" />
    <glyph glyph-name="logicalnot" unicode="&#xac;" 
d="M310 0v152h-277v140h433v-292h-156z" />
    <glyph glyph-name="radical" unicode="&#x221a;" horiz-adv-x="667" 
d="M667 827v-125h-166l-177 -702h-177l-58 252h-89v125h175l27 -103q9 -34 20 -143h8q24 159 63 314l97 382h277z" />
    <glyph glyph-name="florin" unicode="&#x192;" horiz-adv-x="533" 
d="M208 436h-6q-39 0 -56 9q-33 17 -33 58q0 40 33 57q17 9 56 9h30l12 73q12 71 64.5 113t128.5 42q86 0 86 -67q0 -66 -67 -66q-2 0 -24 2q-37 -1 -44 -41l-10 -56h26q39 0 56 -9q33 -17 33 -57q0 -41 -33 -58q-17 -9 -56 -9h-49l-70 -399q-13 -76 -66 -123t-124 -47
q-85 0 -85 67q0 38 26 56q10 7 45 10q51 4 59 50z" />
    <glyph glyph-name="approxequal" unicode="&#x2248;" 
d="M86 348l-78 55q56 139 151 139q33 0 112 -33q57 -24 75 -24q34 0 69 50l77 -55q-31 -76 -66.5 -107t-90.5 -31q-31 0 -111 34q-49 21 -72 21q-33 0 -66 -49zM86 125l-78 55q56 140 151 140q31 0 112 -34q57 -24 75 -24q34 0 69 50l77 -54q-31 -76 -66.5 -107.5
t-90.5 -31.5q-34 0 -111 34q-50 22 -72 22q-33 0 -66 -50z" />
    <glyph glyph-name="approxequal" unicode="&#x22f2;" 
d="M86 348l-78 55q56 139 151 139q33 0 112 -33q57 -24 75 -24q34 0 69 50l77 -55q-31 -76 -66.5 -107t-90.5 -31q-31 0 -111 34q-49 21 -72 21q-33 0 -66 -49zM86 125l-78 55q56 140 151 140q31 0 112 -34q57 -24 75 -24q34 0 69 50l77 -54q-31 -76 -66.5 -107.5
t-90.5 -31.5q-34 0 -111 34q-50 22 -72 22q-33 0 -66 -50z" />
    <glyph glyph-name="increment.001" unicode="&#x394;" horiz-adv-x="674" 
d="M-6 0l263 667h158l265 -667h-686zM202 132h266l-131 355z" />
    <glyph glyph-name="guillemotleft" unicode="&#xab;" horiz-adv-x="573" 
d="M162 271l96 -98q20 -20 20 -47q0 -26 -17.5 -45t-41.5 -19q-33 0 -55 30l-84 116q-25 35 -25 63t25 63l84 116q22 30 55 30q24 0 41.5 -19t17.5 -45q0 -27 -20 -47zM402 271l96 -98q20 -20 20 -47q0 -26 -17.5 -45t-41.5 -19q-33 0 -55 30l-84 116q-25 35 -25 63t25 63
l84 116q22 30 55 30q24 0 41.5 -19t17.5 -45q0 -27 -20 -47z" />
    <glyph glyph-name="guillemotright" unicode="&#xbb;" horiz-adv-x="573" 
d="M411 271l-96 98q-20 20 -20 47q0 26 17.5 45t41.5 19q33 0 55 -30l84 -116q25 -35 25 -63t-25 -63l-84 -116q-22 -30 -55 -30q-24 0 -41.5 19t-17.5 45q0 27 20 47zM171 271l-96 98q-20 20 -20 47q0 26 17.5 45t41.5 19q33 0 55 -30l84 -116q25 -35 25 -63t-25 -63
l-84 -116q-22 -30 -55 -30q-24 0 -41.5 19t-17.5 45q0 27 20 47z" />
    <glyph glyph-name="ellipsis" unicode="&#x2026;" horiz-adv-x="800" 
d="M132 147q34 0 59 -24.5t25 -56.5q0 -34 -24 -58.5t-57 -24.5t-58 26t-25 60q0 31 24 54.5t56 23.5zM398 147q34 0 59 -24.5t25 -56.5q0 -34 -24 -58.5t-57 -24.5t-58 26t-25 60q0 31 24 54.5t56 23.5zM665 147q34 0 59 -24.5t25 -56.5q0 -34 -24 -58.5t-57 -24.5t-58 26
t-25 60q0 31 24 54.5t56 23.5z" />
    <glyph glyph-name="nonbreakingspace" unicode="&#xa0;" horiz-adv-x="300" 
 />
    <glyph glyph-name="Agrave" unicode="&#xc0;" horiz-adv-x="607" 
d="M431 127h-256l-16 -58q-22 -81 -78 -81q-32 0 -55 22t-23 52q0 17 13 53l174 480q31 85 113 85t113 -85l174 -480q13 -36 13 -53q0 -30 -23 -52t-55 -22q-56 0 -78 81zM385 264l-81 254l-81 -254h162zM318 722l-154 48q-38 12 -38 49q0 20 15 34.5t36 14.5q7 0 17 -3
l157 -46q40 -12 40 -49q0 -22 -14 -37t-35 -15q-11 0 -24 4z" />
    <glyph glyph-name="Atilde" unicode="&#xc3;" horiz-adv-x="607" 
d="M431 127h-256l-16 -58q-22 -81 -78 -81q-32 0 -55 22t-23 52q0 17 13 53l174 480q31 85 113 85t113 -85l174 -480q13 -36 13 -53q0 -30 -23 -52t-55 -22q-56 0 -78 81zM385 264l-81 254l-81 -254h162zM239 863q35 0 108 -37q18 -9 34 -9t28 23.5t37 23.5q19 0 31.5 -13
t12.5 -33q0 -37 -31 -64.5t-74 -27.5q-32 0 -76 22q-48 24 -64 24q-11 0 -16 -4.5t-19 -26.5q-10 -16 -32 -16q-43 0 -43 47q0 37 30.5 64t73.5 27z" />
    <glyph glyph-name="Otilde" unicode="&#xd5;" horiz-adv-x="693" 
d="M347 684q146 0 237.5 -97.5t91.5 -252.5t-91 -253t-236 -98q-151 0 -241.5 97.5t-90.5 259.5q0 168 109 262q95 82 221 82zM348 547q-74 0 -121 -58t-47 -149q0 -100 45.5 -160t122.5 -60q75 0 120 58.5t45 155.5t-45 155t-120 58zM290 863q35 0 108 -37q18 -9 34 -9
t28 23.5t37 23.5q19 0 31.5 -13t12.5 -33q0 -37 -31 -64.5t-74 -27.5q-32 0 -76 22q-48 24 -64 24q-11 0 -16 -4.5t-19 -26.5q-10 -16 -32 -16q-43 0 -43 47q0 37 30.5 64t73.5 27z" />
    <glyph glyph-name="OE" unicode="&#x152;" horiz-adv-x="936" 
d="M666 530v-126h133q39 0 57 -9q34 -17 34 -59q0 -43 -34 -60q-18 -9 -57 -9h-133v-130h152q40 0 57 -9q34 -17 34 -59q0 -43 -34 -60q-18 -9 -57 -9h-235q-43 0 -52 18q-3 6 -3 24q-81 -59 -189 -59q-142 0 -232 92t-90 253q0 158 92 257t240 99q57 0 96.5 -14.5
t82.5 -51.5q1 24 9.5 36.5t41.5 12.5h239q40 0 57 -9q34 -17 34 -59q0 -43 -34 -60q-18 -9 -57 -9h-152zM349 547q-76 0 -121 -57.5t-45 -153.5q0 -99 44.5 -157.5t121.5 -58.5q74 0 119.5 59t45.5 154q0 96 -45.5 155t-119.5 59z" />
    <glyph glyph-name="oe" unicode="&#x153;" horiz-adv-x="869" 
d="M791 212h-277q9 -45 42 -65t77 -20q35 0 114 29q19 7 35 7q25 0 42.5 -19t17.5 -47q0 -37 -40 -61q-78 -46 -183 -46q-112 0 -186 72q-79 -72 -170 -72q-107 0 -176.5 74t-69.5 189q0 113 69.5 188.5t173.5 75.5q98 0 179 -69q68 69 167 69q135 0 203 -115q17 -29 30 -74
t13 -76q0 -40 -61 -40zM510 308h198q-24 92 -97 92q-71 0 -101 -92zM264 380q-44 0 -72 -35t-28 -90t27.5 -91.5t68.5 -36.5q45 0 74.5 36t29.5 90q0 55 -28.5 91t-71.5 36z" />
    <glyph glyph-name="endash" unicode="&#x2013;" horiz-adv-x="507" 
d="M389 338q37 0 53 -8q31 -16 31 -54q0 -39 -31 -55q-16 -8 -53 -8h-272q-37 0 -53 8q-31 16 -31 55t31 54q17 8 53 8h272z" />
    <glyph glyph-name="emdash" unicode="&#x2014;" horiz-adv-x="813" 
d="M696 338q36 0 52 -8q32 -16 32 -54q0 -39 -31 -55q-16 -8 -53 -8h-579q-37 0 -53 8q-31 16 -31 55t31 54q17 8 53 8h579z" />
    <glyph glyph-name="quotedblleft" unicode="&#x201c;" horiz-adv-x="459" 
d="M146 652l79 -141q7 -12 7 -28q0 -25 -19 -43.5t-45 -18.5q-35 0 -52 30l-81 140q-8 14 -8 30q0 26 19 44.5t47 18.5q35 0 53 -32zM359 652l79 -141q8 -14 8 -28q0 -25 -19 -43.5t-45 -18.5q-36 0 -53 30l-80 140q-9 16 -9 30q0 26 19 44.5t47 18.5q35 0 53 -32z" />
    <glyph glyph-name="quotedblright" unicode="&#x201d;" horiz-adv-x="459" 
d="M21 513l81 141q17 30 52 30q26 0 45 -19t19 -44q0 -16 -7 -28l-79 -141q-17 -31 -53 -31q-28 0 -47 18t-19 44q0 16 8 30zM235 513l80 141q17 30 53 30q26 0 45 -19t19 -44q0 -14 -8 -28l-79 -141q-17 -31 -53 -31q-28 0 -47 18t-19 44q0 14 9 30z" />
    <glyph glyph-name="quoteleft" unicode="&#x2018;" horiz-adv-x="245" 
d="M146 652l79 -141q7 -12 7 -28q0 -25 -19 -43.5t-45 -18.5q-35 0 -52 30l-81 140q-8 14 -8 30q0 26 19 44.5t47 18.5q35 0 53 -32z" />
    <glyph glyph-name="quoteright" unicode="&#x2019;" horiz-adv-x="245" 
d="M21 513l81 141q17 30 52 30q26 0 45 -19t19 -44q0 -16 -7 -28l-79 -141q-17 -31 -53 -31q-28 0 -47 18t-19 44q0 16 8 30z" />
    <glyph glyph-name="divide" unicode="&#xf7;" 
d="M9 398h483v-75h-483v75zM251 589q23 0 40 -17t17 -40q0 -24 -17 -41t-40 -17q-24 0 -41 17t-17 41q0 23 17 40t41 17zM251 245q23 0 40 -17t17 -40q0 -24 -17 -41t-40 -17q-24 0 -41 17t-17 41q0 23 17 40t41 17z" />
    <glyph glyph-name="lozenge" unicode="&#x25ca;" horiz-adv-x="667" 
d="M334 693l259 -359l-259 -360l-260 360zM334 604l-197 -270l197 -271l197 271z" />
    <glyph glyph-name="ydieresis" unicode="&#xff;" horiz-adv-x="497" 
d="M247 227l86 217q15 39 32.5 54.5t45.5 15.5q31 0 53 -21t22 -50q0 -20 -15 -56l-223 -534q-16 -38 -32.5 -52.5t-45.5 -14.5t-51 21t-22 49q0 20 15 55l58 135l-145 343q-15 35 -15 55q0 28 22 49t52 21q28 0 45 -15t32 -54zM146 699q31 0 53.5 -22t22.5 -51
q0 -30 -21.5 -52t-50.5 -22q-30 0 -52.5 23t-22.5 54q0 28 21 49t50 21zM363 699q31 0 53.5 -22t22.5 -51q0 -30 -21.5 -52t-50.5 -22q-30 0 -52.5 23t-22.5 54q0 28 21 49t50 21z" />
    <glyph glyph-name="Ydieresis" unicode="&#x178;" horiz-adv-x="576" 
d="M361 315v-223q0 -44 -10 -64q-19 -38 -66 -38t-67 38q-10 19 -10 64v223l-161 220q-29 40 -29 67q0 31 22.5 53t54.5 22q23 0 38 -11t38 -43l114 -162l118 163q23 32 38.5 43t38.5 11q31 0 54.5 -22.5t23.5 -51.5q0 -28 -31 -70zM205 860q28 0 48.5 -20t20.5 -47
t-19.5 -47t-46.5 -20t-47.5 21t-20.5 49q0 26 19.5 45t45.5 19zM382 860q28 0 48.5 -20t20.5 -47t-19.5 -47t-46.5 -20t-47.5 21t-20.5 49q0 26 19.5 45t45.5 19z" />
    <glyph glyph-name="fraction" unicode="&#x2044;" horiz-adv-x="310" 
d="M132 361l109 278q18 45 50 45q20 0 34 -13.5t14 -32.5q0 -11 -9 -34l-231 -578q-18 -44 -50 -44q-19 0 -33 13.5t-14 31.5q0 13 9 35z" />
    <glyph glyph-name="currency" unicode="&#xa4;" horiz-adv-x="642" 
d="M90 274h-35q-34 0 -34 30t34 30h31q1 14 1 25h-32q-34 0 -34 30t34 30h40q26 123 112.5 194t210.5 71q88 0 143.5 -30t55.5 -78q0 -29 -17.5 -48.5t-44.5 -19.5q-17 0 -57 16.5t-79 16.5q-122 0 -157 -122h248q34 0 34 -30t-34 -30h-259l-1 -25h225q34 0 34 -30t-34 -30
h-220q28 -148 164 -148q29 0 42.5 4t64.5 27q18 8 34 8q26 0 44 -20.5t18 -49.5q0 -49 -57.5 -80.5t-145.5 -31.5q-133 0 -221 78t-108 213z" />
    <glyph glyph-name="guilsinglleft" unicode="&#x2039;" horiz-adv-x="333" 
d="M162 271l96 -98q20 -20 20 -47q0 -26 -17.5 -45t-41.5 -19q-33 0 -55 30l-84 116q-25 35 -25 63t25 63l84 116q22 30 55 30q24 0 41.5 -19t17.5 -45q0 -27 -20 -47z" />
    <glyph glyph-name="guilsinglright" unicode="&#x203a;" horiz-adv-x="333" 
d="M171 271l-96 98q-20 20 -20 47q0 26 17.5 45t41.5 19q33 0 55 -30l84 -116q25 -35 25 -63t-25 -63l-84 -116q-22 -30 -55 -30q-24 0 -41.5 19t-17.5 45q0 27 20 47z" />
    <glyph glyph-name="fi" unicode="&#xf001;" horiz-adv-x="612" 
d="M242 369v-278q0 -42 -10 -61q-19 -37 -63 -37q-45 0 -64 37q-10 19 -10 61v278h-6q-39 0 -56 9q-33 17 -33 58t33 58q17 9 56 9h6v73q0 69 44 111.5t116 42.5q85 0 85 -67q0 -61 -57 -64q-14 -1 -23 -4q-18 -7 -18 -36v-56h26q38 0 55 -9q34 -17 34 -58t-33 -58
q-17 -9 -56 -9h-26zM483 732q36 0 62 -25t26 -59q0 -35 -25 -61t-59 -26t-60.5 27t-26.5 62q0 33 24.5 57.5t58.5 24.5zM410 91v325q0 42 10 61q19 37 64 37q44 0 63 -37q10 -20 10 -61v-325q0 -42 -10 -61q-19 -37 -63 -37q-45 0 -64 37q-10 19 -10 61z" />
    <glyph glyph-name="fl" unicode="&#xf002;" horiz-adv-x="590" 
d="M242 369v-278q0 -42 -10 -61q-19 -37 -63 -37q-45 0 -64 37q-10 19 -10 61v278h-6q-39 0 -56 9q-33 17 -33 58t33 58q17 9 56 9h6v73q0 69 44 111.5t116 42.5q85 0 85 -67q0 -61 -57 -64q-14 -1 -23 -4q-18 -7 -18 -36v-56h26q38 0 55 -9q34 -17 34 -58t-33 -58
q-17 -9 -56 -9h-26zM546 636v-545q0 -42 -10 -61q-19 -37 -63 -37q-45 0 -64 37q-10 19 -10 61v545q0 41 10 60q19 37 64 37q44 0 63 -37q10 -19 10 -60z" />
    <glyph glyph-name="daggerdbl" unicode="&#x2021;" horiz-adv-x="533" 
d="M333 344v-141h84q39 0 56 -9q33 -17 33 -58q0 -40 -33 -57q-17 -9 -56 -9h-84v-118q0 -39 -9 -56q-17 -33 -58 -33q-40 0 -57 34q-9 17 -9 55v118h-84q-39 0 -56 9q-33 17 -33 58q0 40 33 57q17 9 56 9h84v141h-84q-39 0 -56 9q-33 17 -33 58q0 40 33 57q17 9 56 9h84
v118q0 38 9 55q17 34 58 34q40 0 57 -33q9 -17 9 -56v-118h84q39 0 56 -9q33 -17 33 -57q0 -41 -33 -58q-17 -9 -56 -9h-84z" />
    <glyph glyph-name="periodcentered" unicode="&#x2219;" horiz-adv-x="252" 
d="M202 332v-169h-151v169h151z" />
    <glyph glyph-name="quotesinglbase" unicode="&#x201a;" horiz-adv-x="267" 
d="M22 -43l90 156q19 33 58 33q29 0 50 -20.5t21 -48.5q0 -16 -9 -32l-87 -156q-20 -35 -59 -35q-31 0 -52 20t-21 49q0 18 9 34z" />
    <glyph glyph-name="quotedblbase" unicode="&#x201e;" horiz-adv-x="459" 
d="M21 -40l81 140q17 30 52 30q26 0 45 -18.5t19 -43.5q0 -13 -7 -29l-79 -140q-18 -32 -53 -32q-28 0 -47 18.5t-19 44.5q0 16 8 30zM235 -40l80 140q17 30 53 30q26 0 45 -18.5t19 -43.5q0 -15 -8 -29l-79 -140q-18 -32 -53 -32q-28 0 -47 18.5t-19 44.5q0 14 9 30z" />
    <glyph glyph-name="perthousand" unicode="&#x2030;" horiz-adv-x="1211" 
d="M195 672q69 0 111.5 -47.5t42.5 -124.5q0 -76 -43.5 -123t-113.5 -47t-113.5 48.5t-43.5 126.5q0 74 45 120.5t115 46.5zM193 606q-72 0 -72 -106q0 -105 71 -105q72 0 72 108q0 103 -71 103zM614 669l-318 -675h-76l318 675h76zM646 333q68 0 111 -47.5t43 -123.5
t-43 -123t-114 -47q-70 0 -113.5 48t-43.5 126q0 74 45 120.5t115 46.5zM644 267q-72 0 -72 -106q0 -104 71 -104q72 0 72 108q0 102 -71 102zM1021 334q69 0 111.5 -47.5t42.5 -123.5q0 -77 -43.5 -124t-113.5 -47t-113.5 48t-43.5 126q0 74 44.5 121t115.5 47zM1019 268
q-72 0 -72 -106q0 -105 71 -105q72 0 72 108q0 103 -71 103z" />
    <glyph glyph-name="Acircumflex" unicode="&#xc2;" horiz-adv-x="607" 
d="M431 127h-256l-16 -58q-22 -81 -78 -81q-32 0 -55 22t-23 52q0 17 13 53l174 480q31 85 113 85t113 -85l174 -480q13 -36 13 -53q0 -30 -23 -52t-55 -22q-56 0 -78 81zM385 264l-81 254l-81 -254h162zM307 771l-113 -42q-13 -5 -21 -5q-19 0 -34 16t-15 36q0 34 33 46
l130 47q14 5 19 5q3 0 18 -5l127 -43q39 -13 39 -48q0 -21 -15.5 -36t-37.5 -15q-8 0 -11 2z" />
    <glyph glyph-name="Ecircumflex" unicode="&#xca;" horiz-adv-x="461" 
d="M200 530v-127h128q39 0 57 -9q34 -17 34 -59q0 -43 -34 -60q-18 -9 -57 -9h-128v-129h143q39 0 57 -9q34 -17 34 -59q0 -43 -34 -60q-18 -9 -57 -9h-185q-62 0 -86.5 24.5t-24.5 86.5v445q0 63 24 87t87 24h185q39 0 57 -9q34 -17 34 -59q0 -43 -34 -60q-18 -9 -57 -9
h-143zM241 771l-113 -42q-13 -5 -21 -5q-19 0 -34 16t-15 36q0 34 33 46l130 47q14 5 19 5q3 0 18 -5l127 -43q39 -13 39 -48q0 -21 -15.5 -36t-37.5 -15q-8 0 -11 2z" />
    <glyph glyph-name="Aacute" unicode="&#xc1;" horiz-adv-x="607" 
d="M431 127h-256l-16 -58q-22 -81 -78 -81q-32 0 -55 22t-23 52q0 17 13 53l174 480q31 85 113 85t113 -85l174 -480q13 -36 13 -53q0 -30 -23 -52t-55 -22q-56 0 -78 81zM385 264l-81 254l-81 -254h162zM262 819l157 46q10 3 17 3q22 0 36.5 -14.5t14.5 -34.5
q0 -38 -37 -49l-155 -48q-13 -4 -24 -4q-21 0 -35 15t-14 37q0 37 40 49z" />
    <glyph glyph-name="Edieresis" unicode="&#xcb;" horiz-adv-x="461" 
d="M200 530v-127h128q39 0 57 -9q34 -17 34 -59q0 -43 -34 -60q-18 -9 -57 -9h-128v-129h143q39 0 57 -9q34 -17 34 -59q0 -43 -34 -60q-18 -9 -57 -9h-185q-62 0 -86.5 24.5t-24.5 86.5v445q0 63 24 87t87 24h185q39 0 57 -9q34 -17 34 -59q0 -43 -34 -60q-18 -9 -57 -9
h-143zM151 860q28 0 48.5 -20t20.5 -47t-19.5 -47t-46.5 -20t-47.5 21t-20.5 49q0 26 19.5 45t45.5 19zM328 860q28 0 48.5 -20t20.5 -47t-19.5 -47t-46.5 -20t-47.5 21t-20.5 49q0 26 19.5 45t45.5 19z" />
    <glyph glyph-name="Egrave" unicode="&#xc8;" horiz-adv-x="461" 
d="M200 530v-127h128q39 0 57 -9q34 -17 34 -59q0 -43 -34 -60q-18 -9 -57 -9h-128v-129h143q39 0 57 -9q34 -17 34 -59q0 -43 -34 -60q-18 -9 -57 -9h-185q-62 0 -86.5 24.5t-24.5 86.5v445q0 63 24 87t87 24h185q39 0 57 -9q34 -17 34 -59q0 -43 -34 -60q-18 -9 -57 -9
h-143zM272 722l-154 48q-38 12 -38 49q0 20 15 34.5t36 14.5q7 0 17 -3l157 -46q40 -12 40 -49q0 -22 -14 -37t-35 -15q-11 0 -24 4z" />
    <glyph glyph-name="Iacute" unicode="&#xcd;" horiz-adv-x="246" 
d="M46 575q0 44 10 64q19 38 67 38q47 0 66 -38q10 -20 10 -64v-483q0 -44 -10 -64q-19 -38 -66 -38t-67 38q-10 19 -10 64v483zM99 819l157 46q10 3 17 3q22 0 36.5 -14.5t14.5 -34.5q0 -38 -37 -49l-155 -48q-13 -4 -24 -4q-21 0 -35 15t-14 37q0 37 40 49z" />
    <glyph glyph-name="Icircumflex" unicode="&#xce;" horiz-adv-x="246" 
d="M47 575q0 44 10 64q19 38 67 38q47 0 66 -38q10 -20 10 -64v-483q0 -44 -10 -64q-19 -38 -66 -38t-67 38q-10 19 -10 64v483zM127 771l-113 -42q-13 -5 -21 -5q-19 0 -34 16t-15 36q0 34 33 46l130 47q14 5 19 5q3 0 18 -5l127 -43q39 -13 39 -48q0 -21 -15.5 -36
t-37.5 -15q-8 0 -11 2z" />
    <glyph glyph-name="Idieresis" unicode="&#xcf;" horiz-adv-x="246" 
d="M46 575q0 44 10 64q19 38 67 38q47 0 66 -38q10 -20 10 -64v-483q0 -44 -10 -64q-19 -38 -66 -38t-67 38q-10 19 -10 64v483zM46 859q25 0 43 -18.5t18 -43.5q0 -28 -17.5 -49.5t-40.5 -21.5q-25 0 -43.5 21t-18.5 49q0 26 17.5 44.5t41.5 18.5zM205 859q25 0 43 -18.5
t18 -43.5q0 -28 -17.5 -49.5t-40.5 -21.5q-25 0 -43.5 21t-18.5 49q0 26 17.5 44.5t41.5 18.5z" />
    <glyph glyph-name="Igrave" unicode="&#xcc;" horiz-adv-x="246" 
d="M46 575q0 44 10 64q19 38 67 38q47 0 66 -38q10 -20 10 -64v-483q0 -44 -10 -64q-19 -38 -66 -38t-67 38q-10 19 -10 64v483zM141 722l-154 48q-38 12 -38 49q0 20 15 34.5t36 14.5q7 0 17 -3l157 -46q40 -12 40 -49q0 -22 -14 -37t-35 -15q-11 0 -24 4z" />
    <glyph glyph-name="Oacute" unicode="&#xd3;" horiz-adv-x="693" 
d="M347 684q146 0 237.5 -97.5t91.5 -252.5t-91 -253t-236 -98q-151 0 -241.5 97.5t-90.5 259.5q0 168 109 262q95 82 221 82zM348 547q-74 0 -121 -58t-47 -149q0 -100 45.5 -160t122.5 -60q75 0 120 58.5t45 155.5t-45 155t-120 58zM319 819l157 46q10 3 17 3
q22 0 36.5 -14.5t14.5 -34.5q0 -38 -37 -49l-155 -48q-13 -4 -24 -4q-21 0 -35 15t-14 37q0 37 40 49z" />
    <glyph glyph-name="Ocircumflex" unicode="&#xd4;" horiz-adv-x="693" 
d="M347 684q146 0 237.5 -97.5t91.5 -252.5t-91 -253t-236 -98q-151 0 -241.5 97.5t-90.5 259.5q0 168 109 262q95 82 221 82zM348 547q-74 0 -121 -58t-47 -149q0 -100 45.5 -160t122.5 -60q75 0 120 58.5t45 155.5t-45 155t-120 58zM350 771l-113 -42q-13 -5 -21 -5
q-19 0 -34 16t-15 36q0 34 33 46l130 47q14 5 19 5q3 0 18 -5l127 -43q39 -13 39 -48q0 -21 -15.5 -36t-37.5 -15q-8 0 -11 2z" />
    <glyph glyph-name="apple" unicode="&#xf000;" horiz-adv-x="667" 
d="M481 692v-10q0 -60 -38 -106q-23 -27 -55 -44.5t-54 -13.5h-2q-1 68 40.5 117t108.5 57zM624 457q-81 -63 -81 -139q0 -108 100 -149q-80 -196 -170 -196q-19 0 -81 27q-7 3 -37 3q-26 0 -36.5 -3t-52.5 -20q-19 -8 -39 -8q-65 0 -129.5 111.5t-64.5 223.5
q0 65 27.5 119.5t73.5 79.5q37 20 86 20q35 0 77 -17q32 -13 47 -13q17 0 44 10q58 22 92 22q91 0 144 -71z" />
    <glyph glyph-name="Ograve" unicode="&#xd2;" horiz-adv-x="693" 
d="M347 684q146 0 237.5 -97.5t91.5 -252.5t-91 -253t-236 -98q-151 0 -241.5 97.5t-90.5 259.5q0 168 109 262q95 82 221 82zM348 547q-74 0 -121 -58t-47 -149q0 -100 45.5 -160t122.5 -60q75 0 120 58.5t45 155.5t-45 155t-120 58zM368 722l-154 48q-38 12 -38 49
q0 20 15 34.5t36 14.5q7 0 17 -3l157 -46q40 -12 40 -49q0 -22 -14 -37t-35 -15q-11 0 -24 4z" />
    <glyph glyph-name="Uacute" unicode="&#xda;" horiz-adv-x="660" 
d="M620 575v-282q0 -74 -11.5 -116.5t-42.5 -82.5q-86 -111 -237 -111q-124 0 -206.5 77t-82.5 193v322q0 44 10 64q19 38 67 38q47 0 66 -38q10 -20 10 -64v-300q0 -68 37.5 -108.5t99.5 -40.5q70 0 109 52q28 38 28 115v282q0 44 10 64q19 38 67 38q47 0 66 -38
q10 -20 10 -64zM283 819l157 46q10 3 17 3q22 0 36.5 -14.5t14.5 -34.5q0 -38 -37 -49l-155 -48q-13 -4 -24 -4q-21 0 -35 15t-14 37q0 37 40 49z" />
    <glyph glyph-name="Ucircumflex" unicode="&#xdb;" horiz-adv-x="660" 
d="M620 575v-282q0 -74 -11.5 -116.5t-42.5 -82.5q-86 -111 -237 -111q-124 0 -206.5 77t-82.5 193v322q0 44 10 64q19 38 67 38q47 0 66 -38q10 -20 10 -64v-300q0 -68 37.5 -108.5t99.5 -40.5q70 0 109 52q28 38 28 115v282q0 44 10 64q19 38 67 38q47 0 66 -38
q10 -20 10 -64zM334 771l-113 -42q-13 -5 -21 -5q-19 0 -34 16t-15 36q0 34 33 46l130 47q14 5 19 5q3 0 18 -5l127 -43q39 -13 39 -48q0 -21 -15.5 -36t-37.5 -15q-8 0 -11 2z" />
    <glyph glyph-name="Ugrave" unicode="&#xd9;" horiz-adv-x="660" 
d="M620 575v-282q0 -74 -11.5 -116.5t-42.5 -82.5q-86 -111 -237 -111q-124 0 -206.5 77t-82.5 193v322q0 44 10 64q19 38 67 38q47 0 66 -38q10 -20 10 -64v-300q0 -68 37.5 -108.5t99.5 -40.5q70 0 109 52q28 38 28 115v282q0 44 10 64q19 38 67 38q47 0 66 -38
q10 -20 10 -64zM361 722l-154 48q-38 12 -38 49q0 20 15 34.5t36 14.5q7 0 17 -3l157 -46q40 -12 40 -49q0 -22 -14 -37t-35 -15q-11 0 -24 4z" />
    <glyph glyph-name="dotlessi" unicode="&#x131;" horiz-adv-x="169" 
d="M10 416q0 42 10 61q19 37 64 37q44 0 63 -37q10 -20 10 -61v-325q0 -42 -10 -61q-19 -37 -63 -37q-45 0 -64 37q-10 19 -10 61v325z" />
    <glyph glyph-name="circumflex" unicode="&#x2c6;" 
d="M250 585l-113 -43q-11 -4 -21 -4q-19 0 -34 16t-15 36q0 33 33 45l130 48q11 4 19 4q6 0 18 -4l127 -43q39 -13 39 -48q0 -22 -15.5 -37t-37.5 -15q-3 0 -11 2z" />
    <glyph glyph-name="tilde" unicode="&#x2dc;" 
d="M168 694q39 0 120 -41q20 -10 38 -10t31.5 26t41.5 26q21 0 35 -14.5t14 -36.5q0 -42 -34.5 -72t-81.5 -30q-37 0 -85 24q-54 27 -72 27q-12 0 -18 -5.5t-21 -29.5q-10 -17 -35 -17q-48 0 -48 52q0 41 34 71t81 30z" />
    <glyph glyph-name="macron" unicode="&#x2c9;" 
d="M323 576h-226q-28 0 -42 7q-25 12 -25 43q0 30 25 43q13 7 42 7h226q20 0 30 -3q37 -7 37 -47q0 -31 -25 -43q-14 -7 -42 -7z" />
    <glyph glyph-name="breve" unicode="&#x2d8;" 
d="M141 672q14 0 35 -20q35 -33 75 -33q35 0 65 24q35 28 50 28q16 0 28.5 -14t12.5 -32q0 -32 -51 -61.5t-106 -29.5t-105.5 30t-50.5 63q0 19 13.5 32t33.5 13z" />
    <glyph glyph-name="dotaccent" unicode="&#x2d9;" 
d="M248 699q31 0 53.5 -22t22.5 -51q0 -30 -21.5 -52t-50.5 -22q-30 0 -52.5 23t-22.5 54q0 28 21 49t50 21z" />
    <glyph glyph-name="ring" unicode="&#x2da;" 
d="M247 734q38 0 66 -27t28 -64t-27 -65t-63 -28q-37 0 -65 29t-28 67q0 35 26.5 61.5t62.5 26.5zM248 684q-16 0 -28 -12t-12 -28q0 -17 13 -30.5t29 -13.5t28.5 12.5t12.5 29.5t-13 29.5t-30 12.5z" />
    <glyph glyph-name="cedilla" unicode="&#xb8;" 
d="M341 0l-90 -118q-21 -28 -45 -28q-18 0 -32 14t-14 32t12 33l52 67h117z" />
    <glyph glyph-name="hungarumlaut" unicode="&#x2dd;" 
d="M319 687l-99 -139h-76l54 139h121zM484 687l-99 -139h-76l53 139h122z" />
    <glyph glyph-name="ogonek" unicode="&#x2db;" 
d="M191 7h73q-21 -23 -21 -44q0 -12 10 -22t22 -10q5 0 16 2t16 2q36 0 36 -33q0 -25 -25 -41.5t-61 -16.5q-45 0 -72.5 24.5t-27.5 64.5q0 41 34 74z" />
    <glyph glyph-name="caron" unicode="&#x2c7;" 
d="M250 636l119 42q6 2 11 2q22 0 37.5 -15.5t15.5 -35.5q0 -36 -39 -49l-127 -42q-15 -5 -18 -5q-5 0 -19 5l-130 47q-33 12 -33 45q0 20 15 36t34 16q10 0 21 -4z" />
    <glyph glyph-name="Lslash" unicode="&#x141;" horiz-adv-x="536" 
d="M60 258l-58 -41v113l58 41v296h161v-199l111 80v-113l-111 -80v-217h319v-138h-480v258z" />
    <glyph glyph-name="lslash" unicode="&#x142;" horiz-adv-x="256" 
d="M204 450l59 42v-99l-59 -43v-350h-147v264l-55 -40v100l55 39v304h147v-217z" />
    <glyph glyph-name="Scaron" unicode="&#x160;" horiz-adv-x="534" 
d="M278 684q80 0 131.5 -28t51.5 -71q0 -30 -19.5 -50.5t-48.5 -20.5q-15 0 -51.5 13.5t-69.5 13.5t-55 -15.5t-22 -39.5t21 -38q14 -10 24.5 -13.5t57.5 -16.5q111 -30 160.5 -80t49.5 -131q0 -92 -57 -153q-67 -71 -197 -71q-100 0 -163.5 31.5t-63.5 81.5q0 30 19.5 51.5
t46.5 21.5q19 0 92 -28q39 -15 75 -15q38 0 61 19.5t23 50.5t-25 47t-107 41q-100 30 -137 66q-43 42 -43 121q0 93 69.5 153t176.5 60zM278 827l118 42q4 2 12 2q21 0 36.5 -15.5t15.5 -35.5q0 -35 -38 -48l-127 -43q-15 -5 -19 -5t-18 5l-131 47q-33 12 -33 46
q0 20 15.5 36t34.5 16q6 0 20 -5z" />
    <glyph glyph-name="scaron" unicode="&#x161;" horiz-adv-x="435" 
d="M231 517q67 0 117 -30.5t50 -70.5q0 -25 -17.5 -44.5t-39.5 -19.5q-17 0 -62 20q-34 15 -57 15q-38 0 -38 -26q0 -19 31 -34q23 -8 46 -17q80 -31 112 -64q36 -37 36 -92q0 -72 -54.5 -118t-139.5 -46q-75 0 -131.5 32t-56.5 74q0 25 19 45.5t42 20.5q18 0 76 -26
q36 -16 59 -16q18 0 30.5 10t12.5 24q0 22 -56 43q-89 34 -118 55q-50 36 -50 106q0 68 54 113.5t135 45.5zM232 636l118 42q8 2 12 2q21 0 36.5 -15.5t15.5 -35.5q0 -36 -38 -49l-127 -42q-15 -5 -19 -5q-5 0 -19 5l-130 47q-33 12 -33 45q0 20 15 36t34 16q10 0 21 -4z
" />
    <glyph glyph-name="Zcaron" unicode="&#x17d;" horiz-adv-x="522" 
d="M198 137h233q39 0 57 -9q34 -17 34 -59q0 -43 -34 -60q-18 -9 -57 -9h-334q-49 0 -76 28q-21 22 -21 49q0 29 35 75l285 378h-216q-39 0 -57 9q-34 17 -34 60q0 42 34 59q18 9 57 9h316q52 0 76 -33q14 -20 14 -45q0 -31 -21 -59zM271 827l119 42q3 2 11 2
q22 0 37.5 -15.5t15.5 -35.5q0 -35 -39 -48l-127 -43q-15 -5 -18 -5q-5 0 -19 5l-130 47q-33 12 -33 46q0 20 15 36t34 16q8 0 21 -5z" />
    <glyph glyph-name="zcaron" unicode="&#x17e;" horiz-adv-x="449" 
d="M216 133h144q39 0 56 -9q33 -17 33 -57q0 -41 -33 -58q-17 -9 -56 -9h-283q-76 0 -76 50q0 21 17 44l205 280h-132q-38 0 -55 9q-34 17 -34 58q0 40 34 57q17 9 55 9h283q25 0 42.5 -15t17.5 -38q0 -24 -20 -51zM232 636l118 42q8 2 12 2q21 0 36.5 -15.5t15.5 -35.5
q0 -36 -38 -49l-127 -42q-15 -5 -19 -5t-18 5l-131 47q-33 12 -33 45q0 20 15.5 36t34.5 16q9 0 20 -4z" />
    <glyph glyph-name="brokenbar" unicode="&#xa6;" 
d="M169 667h161v-354h-161v354zM169 153h161v-320h-161v320z" />
    <glyph glyph-name="Eth" unicode="&#xd0;" horiz-adv-x="703" 
d="M59 667h280q145 0 228 -76q100 -92 100 -255q0 -167 -94 -258q-81 -78 -238 -78h-276v281h-60v124h60v262zM220 405h80v-124h-80v-147h102q84 0 128 44q54 54 54 154q0 111 -68 164q-47 37 -126 37h-90v-128z" />
    <glyph glyph-name="eth" unicode="&#xf0;" horiz-adv-x="561" 
d="M54 630l21 50q115 -23 155 -42l115 78l30 -46l-85 -56q97 -53 149 -110q95 -106 95 -251q0 -118 -71.5 -194t-183.5 -76q-109 0 -181 73t-72 183q0 71 32 128.5t88 85.5q44 22 80 22h31q13 0 27 1l18 -4q-45 60 -90 92l-108 -74l-30 47l87 56q-47 25 -107 37zM288 398
q-53 0 -83.5 -43t-30.5 -116q0 -62 25.5 -107.5t81.5 -45.5q105 0 105 157q0 155 -98 155z" />
    <glyph glyph-name="Yacute" unicode="&#xdd;" horiz-adv-x="576" 
d="M361 315v-223q0 -44 -10 -64q-19 -38 -66 -38t-67 38q-10 19 -10 64v223l-161 220q-29 40 -29 67q0 31 22.5 53t54.5 22q23 0 38 -11t38 -43l114 -162l118 163q23 32 38.5 43t38.5 11q31 0 54.5 -22.5t23.5 -51.5q0 -28 -31 -70zM248 819l157 46q10 3 17 3
q22 0 36.5 -14.5t14.5 -34.5q0 -38 -37 -49l-155 -48q-13 -4 -24 -4q-21 0 -35 15t-14 37q0 37 40 49z" />
    <glyph glyph-name="yacute" unicode="&#xfd;" horiz-adv-x="497" 
d="M247 227l86 217q15 39 32.5 54.5t45.5 15.5q31 0 53 -21t22 -50q0 -20 -15 -56l-223 -534q-16 -38 -32.5 -52.5t-45.5 -14.5t-51 21t-22 49q0 20 15 55l58 135l-145 343q-15 35 -15 55q0 28 22 49t52 21q28 0 45 -15t32 -54zM202 654l157 46q10 3 17 3q22 0 36.5 -14.5
t14.5 -34.5q0 -38 -37 -49l-155 -48q-13 -4 -24 -4q-21 0 -35 15t-14 37q0 37 40 49z" />
    <glyph glyph-name="Thorn" unicode="&#xde;" horiz-adv-x="627" 
d="M59 667h160v-80h143q119 0 185 -71q57 -61 57 -154q0 -97 -64 -156t-170 -59h-151v-147h-160v667zM219 456v-185h119q49 0 77.5 25.5t28.5 69.5q0 90 -107 90h-118z" />
    <glyph glyph-name="thorn" unicode="&#xfe;" horiz-adv-x="588" 
d="M195 667v-264q63 90 155 90q96 0 153 -69.5t57 -186.5q0 -116 -57 -185t-152 -69q-50 0 -96 28q-35 21 -54 56v-226h-144v826h138zM307 376q-51 0 -80 -39t-29 -108q0 -63 29.5 -100.5t79.5 -37.5q49 0 78.5 38t29.5 103t-29.5 104.5t-78.5 39.5z" />
    <glyph glyph-name="minus" unicode="&#x2212;" 
d="M9 398h483v-75h-483v75z" />
    <glyph glyph-name="multiply" unicode="&#xd7;" 
d="M102 562l147 -149l149 151l55 -55l-150 -149l149 -148l-53 -53l-148 149l-149 -151l-55 55l150 150l-148 147z" />
    <glyph glyph-name="onesuperior" unicode="&#xb9;" horiz-adv-x="389" 
d="M158 581h-17q-59 0 -59 43q0 26 23 37q13 6 36 6h54q37 0 51 -13.5t14 -47.5v-282q0 -26 -7 -39q-13 -24 -44 -24t-44 24q-7 12 -7 39v257z" />
    <glyph glyph-name="twosuperior" unicode="&#xb2;" horiz-adv-x="389" 
d="M201 353h82q60 0 60 -43t-60 -43h-180q-57 0 -57 41q0 20 27 46q60 59 119 129q38 45 38 70q0 35 -37 35q-33 0 -44 -37q-9 -30 -15 -38q-11 -15 -34 -15q-48 0 -48 48q0 53 43.5 92t101.5 39q59 0 98.5 -35t39.5 -87q0 -57 -56 -121q-39 -45 -78 -81z" />
    <glyph glyph-name="threesuperior" unicode="&#xb3;" horiz-adv-x="389" 
d="M278 488q67 -35 67 -100q0 -56 -43 -93.5t-109 -37.5q-51 0 -89 23q-26 16 -44 41.5t-18 47.5q0 18 14.5 31t34.5 13q18 0 29 -11q5 -4 19 -27q17 -28 50 -28q22 0 36.5 13.5t14.5 33.5q0 36 -49 41q-53 5 -53 44q0 19 12 29q7 6 37 14q38 10 38 36q0 30 -35 30
q-25 0 -48 -25t-44 -25q-18 0 -31 13t-13 30q0 37 42.5 66.5t96.5 29.5q56 0 92.5 -31t36.5 -78q0 -50 -44 -80z" />
    <glyph glyph-name="onehalf" unicode="&#xbd;" horiz-adv-x="1089" 
d="M158 581h-17q-59 0 -59 43q0 26 23 37q13 6 36 6h54q37 0 51 -13.5t14 -47.5v-282q0 -26 -7 -39q-13 -24 -44 -24t-44 24q-7 12 -7 39v257zM521 361l109 278q18 45 50 45q19 0 33 -13.5t14 -32.5q0 -11 -9 -34l-230 -578q-18 -44 -50 -44q-19 0 -33 13.5t-14 31.5
q0 13 9 35zM900 86h83q24 0 37 -6q23 -11 23 -37q0 -43 -60 -43h-181q-57 0 -57 41q0 20 27 46q60 59 119 129q38 45 38 70q0 35 -37 35q-33 0 -44 -37q-9 -30 -15 -38q-11 -15 -34 -15q-48 0 -48 48q0 53 43.5 92t101.5 39q59 0 98.5 -35t39.5 -87q0 -56 -56 -121
q-39 -45 -78 -81z" />
    <glyph glyph-name="onequarter" unicode="&#xbc;" horiz-adv-x="1089" 
d="M158 581h-17q-59 0 -59 43q0 26 23 37q13 6 36 6h54q37 0 51 -13.5t14 -47.5v-282q0 -26 -7 -39q-13 -24 -44 -24t-44 24q-7 12 -7 39v257zM521 361l109 278q18 45 50 45q19 0 33 -13.5t14 -32.5q0 -11 -9 -34l-230 -578q-18 -44 -50 -44q-19 0 -33 13.5t-14 31.5
q0 13 9 35zM905 85h-119q-54 0 -54 40q0 12 5 21l124 215q26 45 72 45q29 0 48.5 -20t19.5 -50v-166h7q47 0 47 -41t-53 -44l-1 -31q-2 -60 -48 -60q-48 0 -48 60v31zM905 170v108l-60 -108h60z" />
    <glyph glyph-name="threequarters" unicode="&#xbe;" horiz-adv-x="1089" 
d="M278 488q67 -35 67 -100q0 -56 -43 -93.5t-109 -37.5q-51 0 -89 23q-26 16 -44 41.5t-18 47.5q0 18 14.5 31t34.5 13q18 0 29 -11q5 -4 19 -27q17 -28 50 -28q22 0 36.5 13.5t14.5 33.5q0 36 -49 41q-53 5 -53 44q0 19 12 29q7 6 37 14q38 10 38 36q0 30 -35 30
q-25 0 -48 -25t-44 -25q-18 0 -31 13t-13 30q0 37 42.5 66.5t96.5 29.5q56 0 92.5 -31t36.5 -78q0 -50 -44 -80zM521 361l109 278q18 45 50 45q20 0 34 -13.5t14 -32.5q0 -11 -9 -34l-231 -578q-18 -44 -50 -44q-19 0 -33 13.5t-14 31.5q0 13 9 35zM905 85h-119
q-54 0 -54 40q0 12 5 21l124 215q26 45 72 45q29 0 48.5 -20t19.5 -50v-166h7q47 0 47 -41t-53 -44l-1 -31q-2 -60 -48 -60q-48 0 -48 60v31zM905 170v108l-60 -108h60z" />
    <glyph glyph-name="franc" unicode="&#x20a3;" horiz-adv-x="822" 
d="M200 530v-133h121q39 0 57 -9q34 -17 34 -59q0 -43 -34 -60q-18 -9 -57 -9h-121v-168q0 -44 -10 -64q-19 -38 -66 -38t-67 38q-10 19 -10 64v464q0 63 24 87t87 24h188q39 0 57 -9q34 -17 34 -59q0 -43 -34 -60q-18 -9 -57 -9h-146zM500 91v339q0 38 20 61t54 23
q49 0 73 -52q55 55 101 55q31 0 53 -22t22 -54q0 -26 -15 -39.5t-60 -27.5q-60 -19 -80.5 -39t-20.5 -59v-185q0 -42 -10 -61q-19 -37 -63 -37q-45 0 -64 37q-10 19 -10 61z" />
    <glyph glyph-name="Gbreve" unicode="&#x11e;" horiz-adv-x="670" 
d="M497 258h-74q-39 0 -57 9q-34 17 -34 60q0 42 34 59q18 9 57 9h149q82 0 82 -97q0 -133 -86 -224t-220 -91q-146 0 -238.5 97t-92.5 250q0 155 96 254.5t246 99.5q97 0 173.5 -42.5t76.5 -95.5q0 -27 -20.5 -47.5t-47.5 -20.5q-16 0 -30.5 7t-62.5 37q-40 25 -96 25
q-77 0 -124.5 -59.5t-47.5 -154.5q0 -97 47 -155t127 -58q72 0 110 51q23 30 33 87zM237 872q15 0 39 -23q38 -36 84 -36q37 0 72 27q40 31 56 31q18 0 32 -15.5t14 -35.5q0 -36 -56.5 -69t-117.5 -33q-62 0 -118.5 33t-56.5 70q0 22 15 36.5t37 14.5z" />
    <glyph glyph-name="gbreve" unicode="&#x11f;" horiz-adv-x="550" 
d="M507 433v-388q0 -119 -69.5 -187t-191.5 -68q-100 0 -176 42q-45 25 -45 67q0 26 19.5 45t47.5 19q13 0 65 -18t91 -18q74 0 100 49q12 22 17 81q-30 -38 -56.5 -52.5t-66.5 -14.5q-99 0 -162.5 73t-63.5 186q0 114 65 191t162 77q67 0 122 -58q29 55 71 55
q32 0 51.5 -22.5t19.5 -58.5zM261 380q-44 0 -71 -35t-27 -91t28 -91.5t72 -35.5q43 0 71 35.5t28 90.5t-28.5 91t-72.5 36zM169 672q14 0 35 -20q35 -33 75 -33q35 0 65 24q35 28 50 28q16 0 28.5 -14t12.5 -32q0 -32 -51 -61.5t-106 -29.5t-105.5 30t-50.5 63
q0 19 13.5 32t33.5 13z" />
    <glyph glyph-name="Scedilla" unicode="&#x15e;" horiz-adv-x="619" 
d="M325 -15l-26 -41q32 6 46 6q42 0 68 -22t26 -57q0 -42 -35.5 -68.5t-92.5 -26.5q-62 0 -135 28l21 44q54 -22 97 -22q54 0 54 41q0 38 -49 38q-18 0 -46 -9l-25 22l44 69q-119 10 -184 72t-66 165h162q3 -55 28 -81q35 -36 106 -36q53 0 84 22.5t31 60.5q0 29 -22 44
q-25 17 -130 47q-89 25 -123 39t-59 35q-53 44 -53 126q0 91 71.5 146t187.5 55q125 0 193.5 -55.5t70.5 -158.5h-152q-3 92 -118 92q-45 0 -71.5 -18t-26.5 -49q0 -33 27 -47q18 -9 125 -38q115 -31 157 -56q83 -50 83 -149t-70.5 -156t-197.5 -62z" />
    <glyph glyph-name="scedilla" unicode="&#x15f;" horiz-adv-x="501" 
d="M261 -13l-25 -40q25 6 43 6q39 0 63.5 -20t24.5 -52q0 -39 -33 -64t-85 -25q-64 0 -125 26l18 40q53 -20 91 -20q50 0 50 39q0 37 -44 37q-17 0 -43 -10l-24 21l41 63q-92 7 -144 52.5t-54 121.5h139q6 -81 96 -81q82 0 82 58q0 24 -20.5 35.5t-88.5 26.5
q-100 21 -137 43q-59 34 -59 105t56.5 109t161.5 38q129 0 183 -61q30 -34 34 -94h-134q-5 36 -24 51t-61 15q-72 0 -72 -48q0 -24 21.5 -34.5t97.5 -25.5q103 -20 144.5 -53.5t41.5 -96.5q0 -73 -56.5 -115.5t-158.5 -46.5z" />
    <glyph glyph-name="Cacute" unicode="&#x106;" horiz-adv-x="572" 
d="M348 684q88 0 143.5 -30t55.5 -78q0 -29 -17.5 -48.5t-44.5 -19.5q-14 0 -65 20q-34 13 -71 13q-79 0 -123.5 -55.5t-44.5 -153.5q0 -96 45 -151t124 -55q28 0 41 4t65 27q18 8 34 8q26 0 44 -20.5t18 -49.5q0 -49 -57 -80.5t-145 -31.5q-151 0 -242 96.5t-91 256.5
q0 154 92.5 251t238.5 97zM512 852l-126 -131h-80l69 131h137z" />
    <glyph glyph-name="cacute" unicode="&#x107;" horiz-adv-x="457" 
d="M268 517q73 0 127 -30q41 -23 41 -67q0 -27 -17 -46.5t-41 -19.5q-12 0 -53 15q-30 11 -53 11q-47 0 -77.5 -35.5t-30.5 -91.5q0 -57 31 -91.5t81 -34.5q28 0 57 13.5t43 13.5q26 0 43.5 -19.5t17.5 -47.5q0 -33 -28 -54q-57 -43 -147 -43q-108 0 -178 76q-67 73 -67 189
q0 124 76 193t175 69zM405 687l-99 -139h-76l54 139h121z" />
    <glyph glyph-name="Ccaron" unicode="&#x10c;" horiz-adv-x="572" 
d="M348 684q88 0 143.5 -30t55.5 -78q0 -29 -17.5 -48.5t-44.5 -19.5q-14 0 -65 20q-34 13 -71 13q-79 0 -123.5 -55.5t-44.5 -153.5q0 -96 45 -151t124 -55q28 0 41 4t65 27q18 8 34 8q26 0 44 -20.5t18 -49.5q0 -49 -57 -80.5t-145 -31.5q-151 0 -242 96.5t-91 256.5
q0 154 92.5 251t238.5 97zM330 827l119 42q3 2 11 2q22 0 37.5 -15.5t15.5 -35.5q0 -35 -39 -48l-127 -43q-15 -5 -18 -5q-5 0 -19 5l-130 47q-33 12 -33 46q0 20 15 36t34 16q8 0 21 -5z" />
    <glyph glyph-name="ccaron" unicode="&#x10d;" horiz-adv-x="457" 
d="M268 517q73 0 127 -30q41 -23 41 -67q0 -27 -17 -46.5t-41 -19.5q-12 0 -53 15q-30 11 -53 11q-47 0 -77.5 -35.5t-30.5 -91.5q0 -57 31 -91.5t81 -34.5q28 0 57 13.5t43 13.5q26 0 43.5 -19.5t17.5 -47.5q0 -33 -28 -54q-57 -43 -147 -43q-108 0 -178 76q-67 73 -67 189
q0 124 76 193t175 69zM256 636l119 42q6 2 11 2q22 0 37.5 -15.5t15.5 -35.5q0 -36 -39 -49l-127 -42q-15 -5 -18 -5q-5 0 -19 5l-130 47q-33 12 -33 45q0 20 15 36t34 16q10 0 21 -4z" />
    <glyph glyph-name="sfthyphen" unicode="&#xad;" horiz-adv-x="313" 
d="M196 338q36 0 52 -8q32 -16 32 -54q0 -39 -31 -55q-16 -8 -53 -8h-79q-37 0 -53 8q-31 16 -31 55t31 54q17 8 53 8h79z" />
    <glyph glyph-name="overscore.001" unicode="&#xaf;" 
d="M0 879h500v-94h-500v94z" />
    <glyph glyph-name="mu1" unicode="&#xb5;" 
d="M28 -171v651h135v-249q0 -59 16 -85q27 -43 71 -43q86 0 86 132v245h135v-480h-135v64q-28 -74 -89 -74q-53 0 -84 59v-220h-135z" />
    <glyph glyph-name="middot.001" unicode="&#xb7;" horiz-adv-x="252" 
d="M202 332v-169h-151v169h151z" />
    <glyph glyph-name="Amacron" unicode="&#x100;" horiz-adv-x="607" 
d="M431 127h-256l-16 -58q-22 -81 -78 -81q-32 0 -55 22t-23 52q0 17 13 53l174 480q31 85 113 85t113 -85l174 -480q13 -36 13 -53q0 -30 -23 -52t-55 -22q-56 0 -78 81zM385 264l-81 254l-81 -254h162zM419 743h-226q-28 0 -42 7q-25 12 -25 43t25 43q14 7 42 7h226
q18 0 30 -3q37 -9 37 -47q0 -31 -25 -43q-14 -7 -42 -7z" />
    <glyph glyph-name="amacron" unicode="&#x101;" horiz-adv-x="560" 
d="M518 439v-359q0 -39 -20.5 -63t-53.5 -24q-52 0 -74 58q-28 -34 -54 -47.5t-67 -13.5q-81 0 -145 56q-87 77 -87 210q0 118 77 194q68 67 153 67q68 0 125 -58q23 55 73 55q31 0 52 -21.5t21 -53.5zM265 380q-45 0 -73 -34.5t-28 -90.5q0 -58 28 -93t74 -35q45 0 73 35.5
t28 91.5t-28 91t-74 35zM414 576h-226q-28 0 -42 7q-25 12 -25 43q0 30 25 43q13 7 42 7h226q20 0 30 -3q37 -7 37 -47q0 -31 -25 -43q-14 -7 -42 -7z" />
    <glyph glyph-name="Abreve" unicode="&#x102;" horiz-adv-x="607" 
d="M431 127h-256l-16 -58q-22 -81 -78 -81q-32 0 -55 22t-23 52q0 17 13 53l174 480q31 85 113 85t113 -85l174 -480q13 -36 13 -53q0 -30 -23 -52t-55 -22q-56 0 -78 81zM385 264l-81 254l-81 -254h162zM184 872q15 0 39 -23q38 -36 84 -36q37 0 72 27q40 31 56 31
q18 0 32 -15.5t14 -35.5q0 -36 -56.5 -69t-117.5 -33q-62 0 -118.5 33t-56.5 70q0 22 15 36.5t37 14.5z" />
    <glyph glyph-name="abreve" unicode="&#x103;" horiz-adv-x="560" 
d="M518 439v-359q0 -39 -20.5 -63t-53.5 -24q-52 0 -74 58q-28 -34 -54 -47.5t-67 -13.5q-81 0 -145 56q-87 77 -87 210q0 118 77 194q68 67 153 67q68 0 125 -58q23 55 73 55q31 0 52 -21.5t21 -53.5zM265 380q-45 0 -73 -34.5t-28 -90.5q0 -58 28 -93t74 -35q45 0 73 35.5
t28 91.5t-28 91t-74 35zM178 672q14 0 35 -20q35 -33 75 -33q35 0 65 24q35 28 50 28q16 0 28.5 -14t12.5 -32q0 -32 -51 -61.5t-106 -29.5t-105.5 30t-50.5 63q0 19 13.5 32t33.5 13z" />
    <glyph glyph-name="Aogonek" unicode="&#x104;" horiz-adv-x="607" 
d="M416 595l174 -480q13 -36 13 -53q0 -41 -39 -63q-14 -20 -14 -36q0 -12 10 -22t22 -10q6 0 16.5 2t16.5 2q36 0 36 -33q0 -25 -25 -41.5t-62 -16.5q-45 0 -72.5 24.5t-27.5 64.5q0 37 25 65q-27 18 -42 71l-16 58h-256l-16 -58q-22 -81 -78 -81q-32 0 -55 22t-23 53
q0 16 13 52l174 480q31 85 113 85t113 -85zM385 264l-81 254l-81 -254h162z" />
    <glyph glyph-name="aogonek" unicode="&#x105;" horiz-adv-x="560" 
d="M518 439v-359q0 -65 -51 -83q-13 -17 -13 -34q0 -12 10 -22t22 -10q5 0 16 2t17 2q36 0 36 -33q0 -25 -25 -41.5t-62 -16.5q-45 0 -72.5 24.5t-27.5 64.5q0 39 34 74q-21 16 -32 44q-28 -34 -54 -47.5t-67 -13.5q-81 0 -145 56q-87 77 -87 210q0 118 77 194q68 67 153 67
q68 0 125 -58q23 55 73 55q31 0 52 -21.5t21 -53.5zM265 380q-45 0 -73 -34.5t-28 -90.5q0 -58 28 -93t74 -35q45 0 73 35.5t28 91.5t-28 91t-74 35z" />
    <glyph glyph-name="Ccircumflex" unicode="&#x108;" horiz-adv-x="572" 
d="M348 684q88 0 143.5 -30t55.5 -78q0 -29 -17.5 -48.5t-44.5 -19.5q-14 0 -65 20q-34 13 -71 13q-79 0 -123.5 -55.5t-44.5 -153.5q0 -96 45 -151t124 -55q28 0 41 4t65 27q18 8 34 8q26 0 44 -20.5t18 -49.5q0 -49 -57 -80.5t-145 -31.5q-151 0 -242 96.5t-91 256.5
q0 154 92.5 251t238.5 97zM327 771l-114 -42q-14 -5 -20 -5q-19 0 -34 16t-15 36q0 35 32 46l131 47q14 5 18 5t19 -5l127 -43q38 -13 38 -48q0 -21 -15.5 -36t-36.5 -15q-9 0 -12 2z" />
    <glyph glyph-name="Cdotaccent" unicode="&#x10a;" horiz-adv-x="572" 
d="M348 684q88 0 143.5 -30t55.5 -78q0 -29 -17.5 -48.5t-44.5 -19.5q-14 0 -65 20q-34 13 -71 13q-79 0 -123.5 -55.5t-44.5 -153.5q0 -96 45 -151t124 -55q28 0 41 4t65 27q18 8 34 8q26 0 44 -20.5t18 -49.5q0 -49 -57 -80.5t-145 -31.5q-151 0 -242 96.5t-91 256.5
q0 154 92.5 251t238.5 97zM328 860q28 0 48.5 -20t20.5 -47t-19.5 -47t-46.5 -20t-47.5 21t-20.5 49q0 26 19.5 45t45.5 19z" />
    <glyph glyph-name="cdotaccent" unicode="&#x10b;" horiz-adv-x="457" 
d="M268 517q73 0 127 -30q41 -23 41 -67q0 -27 -17 -46.5t-41 -19.5q-12 0 -53 15q-30 11 -53 11q-47 0 -77.5 -35.5t-30.5 -91.5q0 -57 31 -91.5t81 -34.5q28 0 57 13.5t43 13.5q26 0 43.5 -19.5t17.5 -47.5q0 -33 -28 -54q-57 -43 -147 -43q-108 0 -178 76q-67 73 -67 189
q0 124 76 193t175 69zM260 699q31 0 53.5 -22t22.5 -51q0 -30 -21.5 -52t-50.5 -22q-30 0 -52.5 23t-22.5 54q0 28 21 49t50 21z" />
    <glyph glyph-name="Dcaron" unicode="&#x10e;" horiz-adv-x="637" 
d="M47 113v442q0 63 24 87q18 18 40 22q13 3 47 3h125q132 0 214 -61q58 -43 90.5 -116t32.5 -161q0 -149 -87 -240t-227 -89l-149 2q-39 1 -55 5.5t-31 19.5q-24 24 -24 86zM200 133h76q88 0 134.5 52t46.5 149q0 103 -61 158q-45 41 -138 41h-58v-400zM322 827l119 42
q3 2 11 2q22 0 37.5 -15.5t15.5 -35.5q0 -35 -39 -48l-127 -43q-15 -5 -18 -5q-5 0 -19 5l-130 47q-33 12 -33 46q0 20 15 36t34 16q8 0 21 -5z" />
    <glyph glyph-name="dcaron" unicode="&#x10f;" horiz-adv-x="766" 
d="M364 471v165q0 42 10 61q19 37 64 37q44 0 63 -37q10 -20 10 -61v-559q0 -84 -74 -84q-50 0 -71 58q-45 -61 -127 -61q-104 0 -168 92q-55 79 -55 175q0 58 24.5 114.5t65.5 91.5q62 54 139 54q63 0 119 -46zM265 387q-43 0 -72.5 -36.5t-29.5 -88.5q0 -56 29 -92t73 -36
q43 0 71.5 36.5t28.5 90.5q0 53 -28.5 89.5t-71.5 36.5zM542 513l81 141q17 30 52 30q26 0 45 -19t19 -44q0 -16 -7 -28l-79 -141q-17 -31 -53 -31q-28 0 -47 18t-19 44q0 16 8 30z" />
    <glyph glyph-name="Dcroat" unicode="&#x110;" horiz-adv-x="703" 
d="M59 667h280q145 0 228 -76q100 -92 100 -255q0 -167 -94 -258q-81 -78 -238 -78h-276v281h-60v124h60v262zM220 405h80v-124h-80v-147h102q84 0 128 44q54 54 54 154q0 111 -68 164q-47 37 -126 37h-90v-128z" />
    <glyph glyph-name="dcroat" unicode="&#x111;" horiz-adv-x="590" 
d="M532 667v-58h69v-86h-69v-523h-137l-3 78q-46 -93 -156 -93q-103 0 -157 76q-52 73 -52 180q0 112 58.5 183t150.5 71q93 0 152 -85v113h-97v86h97v58h144zM282 386q-51 0 -80 -39t-29 -108q0 -62 29 -100.5t76 -38.5q49 0 79.5 39t30.5 103t-29.5 104t-76.5 40z" />
    <glyph glyph-name="emacron" unicode="&#x113;" horiz-adv-x="529" 
d="M449 205h-274q32 -87 117 -87q26 0 43.5 6t77.5 35q14 7 32 7q23 0 41 -18.5t18 -41.5q0 -45 -67.5 -80.5t-152.5 -35.5q-117 0 -192 72t-75 184q0 116 71.5 193.5t180.5 77.5q103 0 173.5 -73.5t70.5 -180.5q0 -58 -64 -58zM170 305h198q-9 37 -21 54q-26 38 -75 38
q-72 0 -102 -92zM395 576h-227q-28 0 -42 7q-25 12 -25 43t25 43q14 7 42 7h227q19 0 29 -3q37 -7 37 -47t-39 -48q-8 -2 -27 -2z" />
    <glyph glyph-name="Ebreve" unicode="&#x114;" horiz-adv-x="461" 
d="M200 530v-127h128q39 0 57 -9q34 -17 34 -59q0 -43 -34 -60q-18 -9 -57 -9h-128v-129h143q39 0 57 -9q34 -17 34 -59q0 -43 -34 -60q-18 -9 -57 -9h-185q-62 0 -86.5 24.5t-24.5 86.5v445q0 63 24 87t87 24h185q39 0 57 -9q34 -17 34 -59q0 -43 -34 -60q-18 -9 -57 -9
h-143zM122 872q15 0 39 -23q37 -36 83 -36q39 0 73 27q39 31 55 31q18 0 32 -15.5t14 -35.5q0 -36 -56.5 -69t-117.5 -33q-62 0 -118 33t-56 70q0 22 15 36.5t37 14.5z" />
    <glyph glyph-name="Edotaccent" unicode="&#x116;" horiz-adv-x="461" 
d="M200 530v-127h128q39 0 57 -9q34 -17 34 -59q0 -43 -34 -60q-18 -9 -57 -9h-128v-129h143q39 0 57 -9q34 -17 34 -59q0 -43 -34 -60q-18 -9 -57 -9h-185q-62 0 -86.5 24.5t-24.5 86.5v445q0 63 24 87t87 24h185q39 0 57 -9q34 -17 34 -59q0 -43 -34 -60q-18 -9 -57 -9
h-143zM246 860q28 0 48.5 -20t20.5 -47t-19.5 -47t-46.5 -20t-47.5 21t-20.5 49q0 26 19.5 45t45.5 19z" />
    <glyph glyph-name="edotaccent" unicode="&#x117;" horiz-adv-x="529" 
d="M449 205h-274q32 -87 117 -87q26 0 43.5 6t77.5 35q14 7 32 7q23 0 41 -18.5t18 -41.5q0 -45 -67.5 -80.5t-152.5 -35.5q-117 0 -192 72t-75 184q0 116 71.5 193.5t180.5 77.5q103 0 173.5 -73.5t70.5 -180.5q0 -58 -64 -58zM170 305h198q-9 37 -21 54q-26 38 -75 38
q-72 0 -102 -92zM269 699q31 0 53.5 -22t22.5 -51q0 -30 -21.5 -52t-50.5 -22q-30 0 -52.5 23t-22.5 54q0 28 21 49t50 21z" />
    <glyph glyph-name="Eogonek" unicode="&#x118;" horiz-adv-x="461" 
d="M345 0q-15 -20 -15 -37q0 -12 10 -22t22 -10q5 0 16 2t16 2q36 0 36 -33q0 -25 -25 -41.5t-61 -16.5q-45 0 -72.5 24.5t-27.5 64.5q0 38 27 67h-113q-62 0 -86.5 24.5t-24.5 86.5v445q0 63 24 87t87 24h185q40 0 57 -9q34 -18 34 -59q0 -42 -34 -60q-17 -9 -57 -9h-143
v-127h128q40 0 57 -9q34 -18 34 -59q0 -42 -34 -60q-17 -9 -57 -9h-128v-129h143q40 0 57 -9q34 -18 34 -59q0 -31 -21 -50t-55 -19h-13z" />
    <glyph glyph-name="eogonek" unicode="&#x119;" horiz-adv-x="529" 
d="M449 205h-274q32 -87 117 -87q26 0 43.5 6t77.5 35q14 7 32 7q23 0 41 -18.5t18 -41.5q0 -31 -36 -59.5t-94 -44.5q-17 -22 -17 -39q0 -12 10 -22t22 -10q6 0 16.5 2t16.5 2q36 0 36 -33q0 -25 -25 -41.5t-62 -16.5q-45 0 -72.5 24.5t-27.5 64.5q0 32 19 57h-10
q-115 0 -189 72t-74 184q0 116 71.5 193.5t180.5 77.5q103 0 173.5 -73.5t70.5 -180.5q0 -58 -64 -58zM170 305h198q-9 37 -21 54q-26 38 -75 38q-72 0 -102 -92z" />
    <glyph glyph-name="Ecaron" unicode="&#x11a;" horiz-adv-x="461" 
d="M200 530v-127h128q39 0 57 -9q34 -17 34 -59q0 -43 -34 -60q-18 -9 -57 -9h-128v-129h143q39 0 57 -9q34 -17 34 -59q0 -43 -34 -60q-18 -9 -57 -9h-185q-62 0 -86.5 24.5t-24.5 86.5v445q0 63 24 87t87 24h185q39 0 57 -9q34 -17 34 -59q0 -43 -34 -60q-18 -9 -57 -9
h-143zM241 827l119 42q3 2 11 2q22 0 37.5 -15.5t15.5 -35.5q0 -35 -39 -48l-127 -43q-15 -5 -18 -5q-5 0 -19 5l-130 47q-33 12 -33 46q0 20 15 36t34 16q8 0 21 -5z" />
    <glyph glyph-name="ecaron" unicode="&#x11b;" horiz-adv-x="529" 
d="M449 205h-274q32 -87 117 -87q26 0 43.5 6t77.5 35q14 7 32 7q23 0 41 -18.5t18 -41.5q0 -45 -67.5 -80.5t-152.5 -35.5q-117 0 -192 72t-75 184q0 116 71.5 193.5t180.5 77.5q103 0 173.5 -73.5t70.5 -180.5q0 -58 -64 -58zM170 305h198q-9 37 -21 54q-26 38 -75 38
q-72 0 -102 -92zM268 636l119 42q6 2 11 2q22 0 37.5 -15.5t15.5 -35.5q0 -36 -39 -49l-127 -42q-15 -5 -18 -5q-5 0 -19 5l-130 47q-33 12 -33 45q0 20 15 36t34 16q10 0 21 -4z" />
    <glyph glyph-name="Gcircumflex" unicode="&#x11c;" horiz-adv-x="670" 
d="M497 258h-74q-39 0 -57 9q-34 17 -34 60q0 42 34 59q18 9 57 9h149q82 0 82 -97q0 -133 -86 -224t-220 -91q-146 0 -238.5 97t-92.5 250q0 155 96 254.5t246 99.5q97 0 173.5 -42.5t76.5 -95.5q0 -27 -20.5 -47.5t-47.5 -20.5q-16 0 -30.5 7t-62.5 37q-40 25 -96 25
q-77 0 -124.5 -59.5t-47.5 -154.5q0 -97 47 -155t127 -58q72 0 110 51q23 30 33 87zM356 771l-114 -42q-14 -5 -21 -5q-19 0 -34 16t-15 36q0 34 33 46l131 47q14 5 18 5t19 -5l127 -43q38 -13 38 -48q0 -21 -15.5 -36t-36.5 -15q-9 0 -12 2z" />
    <glyph glyph-name="gcircumflex" unicode="&#x11d;" horiz-adv-x="550" 
d="M507 433v-388q0 -119 -69.5 -187t-191.5 -68q-100 0 -176 42q-45 25 -45 67q0 26 19.5 45t47.5 19q13 0 65 -18t91 -18q74 0 100 49q12 22 17 81q-30 -38 -56.5 -52.5t-66.5 -14.5q-99 0 -162.5 73t-63.5 186q0 114 65 191t162 77q67 0 122 -58q29 55 71 55
q32 0 51.5 -22.5t19.5 -58.5zM261 380q-44 0 -71 -35t-27 -91t28 -91.5t72 -35.5q43 0 71 35.5t28 90.5t-28.5 91t-72.5 36zM282 585l-113 -43q-11 -4 -21 -4q-19 0 -34 16t-15 36q0 33 33 45l130 48q11 4 19 4q6 0 18 -4l127 -43q39 -13 39 -48q0 -22 -15.5 -37t-37.5 -15
q-3 0 -11 2z" />
    <glyph glyph-name="Gdotaccent" unicode="&#x120;" horiz-adv-x="670" 
d="M497 258h-74q-39 0 -57 9q-34 17 -34 60q0 42 34 59q18 9 57 9h149q82 0 82 -97q0 -133 -86 -224t-220 -91q-146 0 -238.5 97t-92.5 250q0 155 96 254.5t246 99.5q97 0 173.5 -42.5t76.5 -95.5q0 -27 -20.5 -47.5t-47.5 -20.5q-16 0 -30.5 7t-62.5 37q-40 25 -96 25
q-77 0 -124.5 -59.5t-47.5 -154.5q0 -97 47 -155t127 -58q72 0 110 51q23 30 33 87zM357 860q28 0 48.5 -20t20.5 -47t-19.5 -47t-46.5 -20t-47.5 21t-20.5 49q0 26 19.5 45t45.5 19z" />
    <glyph glyph-name="gdotaccent" unicode="&#x121;" horiz-adv-x="550" 
d="M507 433v-388q0 -119 -69.5 -187t-191.5 -68q-100 0 -176 42q-45 25 -45 67q0 26 19.5 45t47.5 19q13 0 65 -18t91 -18q74 0 100 49q12 22 17 81q-30 -38 -56.5 -52.5t-66.5 -14.5q-99 0 -162.5 73t-63.5 186q0 114 65 191t162 77q67 0 122 -58q29 55 71 55
q32 0 51.5 -22.5t19.5 -58.5zM261 380q-44 0 -71 -35t-27 -91t28 -91.5t72 -35.5q43 0 71 35.5t28 90.5t-28.5 91t-72.5 36zM283 699q31 0 53.5 -22t22.5 -51q0 -30 -21.5 -52t-50.5 -22q-30 0 -52.5 23t-22.5 54q0 28 21 49t50 21z" />
    <glyph glyph-name="Gcommaaccent" unicode="&#x122;" horiz-adv-x="670" 
d="M497 258h-74q-39 0 -57 9q-34 17 -34 60q0 42 34 59q18 9 57 9h149q82 0 82 -97q0 -133 -86 -224t-220 -91q-146 0 -238.5 97t-92.5 250q0 155 96 254.5t246 99.5q97 0 173.5 -42.5t76.5 -95.5q0 -27 -20.5 -47.5t-47.5 -20.5q-16 0 -30.5 7t-62.5 37q-40 25 -96 25
q-77 0 -124.5 -59.5t-47.5 -154.5q0 -97 47 -155t127 -58q72 0 110 51q23 30 33 87zM409 -42v-65q0 -65 -30 -92t-103 -29v45q37 2 51 9q24 11 26 42h-74v90h130z" />
    <glyph glyph-name="Hcircumflex" unicode="&#x124;" horiz-adv-x="683" 
d="M483 273h-284v-181q0 -44 -10 -64q-19 -38 -66 -38t-67 38q-10 19 -10 64v483q0 44 10 64q19 38 67 38q46 0 66 -38q10 -19 10 -64v-165h284v165q0 44 10 64q19 38 67 38q46 0 66 -38q10 -19 10 -64v-483q0 -44 -10 -64q-19 -38 -66 -38t-67 38q-10 19 -10 64v181z
M351 771l-113 -42q-13 -5 -21 -5q-19 0 -34 16t-15 36q0 34 33 46l130 47q14 5 19 5q4 0 19 -5l126 -43q39 -13 39 -48q0 -21 -15.5 -36t-37.5 -15q-8 0 -11 2z" />
    <glyph glyph-name="Hbar" unicode="&#x126;" horiz-adv-x="697" 
d="M638 597h54v-90h-54v-507h-162v280h-256v-280h-161v507h-55v90h55v70h161v-70h256v70h162v-70zM220 507v-105h256v105h-256z" />
    <glyph glyph-name="hbar" unicode="&#x127;" horiz-adv-x="589" 
d="M204 609h96v-86h-96v-117q52 90 152 90q96 0 143 -65q32 -44 32 -128v-303h-147v275q0 52 -18 74q-25 30 -67 30q-49 0 -77 -44q-18 -28 -18 -87v-248h-147v523h-67v86h67v58h147v-58z" />
    <glyph glyph-name="ibreve" unicode="&#x12d;" horiz-adv-x="169" 
d="M10 416q0 42 10 61q19 37 64 37q44 0 63 -37q10 -20 10 -61v-325q0 -42 -10 -61q-19 -37 -63 -37q-45 0 -64 37q-10 19 -10 61v325zM-25 672q14 0 35 -20q35 -33 75 -33q35 0 65 24q35 28 50 28q16 0 28.5 -14t12.5 -32q0 -32 -51 -61.5t-106 -29.5t-105.5 30t-50.5 63
q0 19 13.5 32t33.5 13z" />
    <glyph glyph-name="Iogonek" unicode="&#x12e;" horiz-adv-x="246" 
d="M199 575v-482q0 -37 -5 -53q-8 -24 -32 -39q-16 -19 -16 -38q0 -12 10 -22t22 -10q6 0 16.5 2t16.5 2q36 0 36 -33q0 -25 -25 -41.5t-62 -16.5q-45 0 -72.5 24.5t-27.5 64.5q0 36 26 67q-27 15 -35 39q-5 16 -5 54v482q0 43 10 64q22 38 67 38q47 0 66 -38q10 -19 10 -64
z" />
    <glyph glyph-name="iogonek" unicode="&#x12f;" horiz-adv-x="256" 
d="M200 416v-325q0 -41 -9.5 -60.5t-35.5 -30.5q-15 -21 -15 -37q0 -12 10 -22t23 -10q6 0 16.5 2t16.5 2q36 0 36 -33q0 -25 -25 -41.5t-62 -16.5q-46 0 -73.5 24.5t-27.5 64.5t32 73q-22 15 -29 37q-4 14 -4 48v325q0 43 10 61q20 37 64 37q50 0 68 -47q5 -15 5 -51z
M126 732q36 0 62 -25t26 -59q0 -35 -25 -61t-59 -26t-60.5 27t-26.5 62q0 33 24.5 57.5t58.5 24.5z" />
    <glyph glyph-name="Idotaccent" unicode="&#x130;" horiz-adv-x="246" 
d="M46 575q0 44 10 64q19 38 67 38q47 0 66 -38q10 -20 10 -64v-483q0 -44 -10 -64q-19 -38 -66 -38t-67 38q-10 19 -10 64v483zM121 860q28 0 48.5 -20t20.5 -47t-19.5 -47t-46.5 -20t-47.5 21t-20.5 49q0 26 19.5 45t45.5 19z" />
    <glyph glyph-name="IJ" unicode="&#x132;" horiz-adv-x="652" 
d="M46 575q0 44 10 64q19 38 67 38q47 0 66 -38q10 -20 10 -64v-483q0 -44 -10 -64q-19 -38 -66 -38t-67 38q-10 19 -10 64v483zM604 575v-363q0 -116 -44 -169q-50 -60 -151 -60q-75 0 -126 30.5t-51 74.5q0 31 20.5 51.5t51.5 20.5q19 0 48 -17t47 -17q52 0 52 86v363
q0 44 10 64q19 38 67 38q47 0 66 -38q10 -20 10 -64z" />
    <glyph glyph-name="ij" unicode="&#x133;" horiz-adv-x="513" 
d="M126 732q36 0 62 -25t26 -59q0 -35 -25 -61t-59 -26t-60.5 27t-26.5 62q0 33 24.5 57.5t58.5 24.5zM53 416q0 42 10 61q19 37 64 37q44 0 63 -37q10 -20 10 -61v-325q0 -42 -10 -61q-19 -37 -63 -37q-45 0 -64 37q-10 19 -10 61v325zM382 732q36 0 62 -25t26 -59
q0 -35 -25 -61t-59 -26t-60.5 27t-26.5 62q0 33 24.5 57.5t58.5 24.5zM315 416q0 42 10 61q19 37 64 37q44 0 63 -37q10 -20 10 -61v-525q0 -43 -10 -61q-20 -37 -63 -37q-45 0 -64 37q-10 19 -10 61v525z" />
    <glyph glyph-name="Kcommaaccent" unicode="&#x136;" horiz-adv-x="600" 
d="M200 299v-207q0 -44 -10 -64q-19 -38 -66 -38t-67 38q-10 19 -10 64v483q0 44 10 64q19 38 67 38q47 0 66 -38q10 -20 10 -64v-171l197 221q46 52 83 52q30 0 50.5 -21.5t20.5 -52.5q0 -25 -13 -45q-7 -12 -32 -37l-161 -163l203 -215q25 -26 31 -36q13 -20 13 -45
q0 -32 -20 -52t-52 -20q-27 0 -47 14q-11 8 -37 36zM355 -42v-65q0 -65 -30 -92t-103 -29v45q37 2 51 9q24 11 26 42h-74v90h130z" />
    <glyph glyph-name="kcommaaccent" unicode="&#x137;" horiz-adv-x="508" 
d="M190 241v-150q0 -42 -10 -61q-19 -37 -63 -37q-45 0 -64 37q-10 19 -10 61v545q0 42 10 61q19 37 64 37q44 0 63 -37q10 -20 10 -61v-295l135 138q38 39 67 39q30 0 51 -21.5t21 -52.5q0 -27 -40 -66l-91 -88l128 -159q32 -40 32 -65q0 -30 -22 -51.5t-53 -21.5
q-34 0 -71 47zM310 -58v-58q0 -79 -50 -103q-21 -10 -80 -18v46q4 1 8 1l34 6q28 5 31 43h-69v83h126z" />
    <glyph glyph-name="kgreenlandic" unicode="&#x138;" horiz-adv-x="548" 
d="M534 482l-185 -187l211 -295h-174l-133 198l-49 -47v-151h-147v482h147v-179l164 179h166z" />
    <glyph glyph-name="Lacute" unicode="&#x139;" horiz-adv-x="414" 
d="M200 137h143q39 0 57 -9q34 -17 34 -59q0 -43 -34 -60q-18 -9 -57 -9h-181q-36 0 -48 2q-24 5 -42 23t-23 42q-2 13 -2 49v459q0 44 10 64q19 38 67 38q46 0 66 -38q10 -19 10 -64v-438zM299 852l-126 -131h-80l69 131h137z" />
    <glyph glyph-name="lacute" unicode="&#x13a;" horiz-adv-x="233" 
d="M190 636v-545q0 -42 -10 -61q-19 -37 -63 -37q-45 0 -64 37q-10 19 -10 61v545q0 41 10 60q19 37 64 37q44 0 63 -37q10 -19 10 -60zM283 886l-127 -131h-79l69 131h137z" />
    <glyph glyph-name="Lcommaaccent" unicode="&#x13b;" horiz-adv-x="414" 
d="M200 137h143q39 0 57 -9q34 -17 34 -59q0 -43 -34 -60q-18 -9 -57 -9h-181q-36 0 -48 2q-24 5 -42 23t-23 42q-2 13 -2 49v459q0 44 10 64q19 38 67 38q46 0 66 -38q10 -19 10 -64v-438zM285 -42v-65q0 -65 -30 -92t-103 -29v45q37 2 51 9q24 11 26 42h-74v90h130z" />
    <glyph glyph-name="lcommaaccent" unicode="&#x13c;" horiz-adv-x="233" 
d="M190 636v-545q0 -42 -10 -61q-19 -37 -63 -37q-45 0 -64 37q-10 19 -10 61v545q0 41 10 60q19 37 64 37q44 0 63 -37q10 -19 10 -60zM179 -58v-58q0 -79 -50 -103q-21 -10 -80 -18v46q4 1 8 1l34 6q28 5 31 43h-69v83h126z" />
    <glyph glyph-name="Lcaron" unicode="&#x13d;" horiz-adv-x="414" 
d="M200 137h143q39 0 57 -9q34 -17 34 -59q0 -43 -34 -60q-18 -9 -57 -9h-181q-36 0 -48 2q-24 5 -42 23t-23 42q-2 13 -2 49v459q0 44 10 64q19 38 67 38q46 0 66 -38q10 -19 10 -64v-438zM253 513l81 141q17 30 52 30q26 0 45 -19t19 -44q0 -14 -8 -28l-78 -141
q-17 -31 -53 -31q-28 0 -47 18t-19 44q0 16 8 30z" />
    <glyph glyph-name="lcaron" unicode="&#x13e;" horiz-adv-x="478" 
d="M190 636v-545q0 -42 -10 -61q-19 -37 -63 -37q-45 0 -64 37q-10 19 -10 61v545q0 41 10 60q19 37 64 37q44 0 63 -37q10 -19 10 -60zM254 513l81 141q17 30 52 30q26 0 45 -19t19 -44q0 -16 -7 -28l-79 -141q-17 -31 -53 -31q-28 0 -47 18t-19 44q0 16 8 30z" />
    <glyph glyph-name="Ldot" unicode="&#x13f;" horiz-adv-x="414" 
d="M200 137h143q39 0 57 -9q34 -17 34 -59q0 -43 -34 -60q-18 -9 -57 -9h-181q-36 0 -48 2q-24 5 -42 23t-23 42q-2 13 -2 49v459q0 44 10 64q19 38 67 38q46 0 66 -38q10 -19 10 -64v-438zM331 401q42 0 72.5 -29.5t30.5 -69.5q0 -41 -29.5 -71t-69.5 -30t-70.5 31.5
t-30.5 72.5q0 39 29 67.5t68 28.5z" />
    <glyph glyph-name="ldot" unicode="&#x140;" 
d="M190 636v-545q0 -42 -10 -61q-19 -37 -63 -37q-45 0 -64 37q-10 19 -10 61v545q0 41 10 60q19 37 64 37q44 0 63 -37q10 -19 10 -60zM363 368q42 0 72.5 -29.5t30.5 -69.5q0 -41 -29.5 -71t-69.5 -30t-70.5 31.5t-30.5 72.5q0 39 29 67.5t68 28.5z" />
    <glyph glyph-name="Ncommaaccent" unicode="&#x145;" horiz-adv-x="681" 
d="M200 404v-312q0 -44 -10 -64q-19 -38 -66 -38t-67 38q-10 19 -10 64v507q0 35 21 56.5t55 21.5q36 0 63 -34l295 -371v303q0 44 10 64q19 38 67 38q47 0 66 -38q10 -20 10 -64v-497q0 -42 -21 -65t-52 -23q-27 0 -48 19q-3 2 -31 36zM401 -42v-65q0 -65 -30 -92t-103 -29
v45q37 2 51 9q24 11 26 42h-74v90h130z" />
    <glyph glyph-name="ncommaaccent" unicode="&#x146;" horiz-adv-x="545" 
d="M43 91v337q0 39 20.5 62.5t54.5 23.5q48 0 68 -51q58 54 135 54q78 0 129.5 -45t51.5 -140v-241q0 -42 -10 -61q-19 -37 -63 -37q-45 0 -64 37q-10 19 -10 61v206q0 43 -22 68t-60 25q-35 0 -59 -25t-24 -62v-212q0 -42 -10 -61q-19 -37 -63 -37q-45 0 -64 37
q-10 19 -10 61zM331 -58v-58q0 -79 -50 -103q-21 -10 -80 -18v46q4 1 8 1l34 6q28 5 31 43h-69v83h126z" />
    <glyph glyph-name="Ncaron" unicode="&#x147;" horiz-adv-x="681" 
d="M200 404v-312q0 -44 -10 -64q-19 -38 -66 -38t-67 38q-10 19 -10 64v507q0 35 21 56.5t55 21.5q36 0 63 -34l295 -371v303q0 44 10 64q19 38 67 38q47 0 66 -38q10 -20 10 -64v-497q0 -42 -21 -65t-52 -23q-27 0 -48 19q-3 2 -31 36zM351 827l119 42q3 2 11 2
q22 0 37.5 -15.5t15.5 -35.5q0 -35 -39 -48l-127 -43q-15 -5 -18 -5q-5 0 -19 5l-130 47q-33 12 -33 46q0 20 15 36t34 16q8 0 21 -5z" />
    <glyph glyph-name="ncaron" unicode="&#x148;" horiz-adv-x="545" 
d="M43 91v337q0 39 20.5 62.5t54.5 23.5q48 0 68 -51q58 54 135 54q78 0 129.5 -45t51.5 -140v-241q0 -42 -10 -61q-19 -37 -63 -37q-45 0 -64 37q-10 19 -10 61v206q0 43 -22 68t-60 25q-35 0 -59 -25t-24 -62v-212q0 -42 -10 -61q-19 -37 -63 -37q-45 0 -64 37
q-10 19 -10 61zM279 636l119 42q6 2 11 2q22 0 37.5 -15.5t15.5 -35.5q0 -36 -39 -49l-127 -42q-15 -5 -18 -5q-5 0 -19 5l-130 47q-33 12 -33 45q0 20 15 36t34 16q10 0 21 -4z" />
    <glyph glyph-name="napostrophe" unicode="&#x149;" horiz-adv-x="724" 
d="M21 513l81 141q17 30 52 30q26 0 45 -19t19 -44q0 -16 -7 -28l-79 -141q-17 -31 -53 -31q-28 0 -47 18t-19 44q0 16 8 30zM221 91v337q0 39 20.5 62.5t54.5 23.5q48 0 68 -51q58 54 135 54q78 0 129.5 -45t51.5 -140v-241q0 -42 -10 -61q-19 -37 -63 -37q-45 0 -64 37
q-10 19 -10 61v206q0 43 -22 68t-60 25q-35 0 -59 -25t-24 -62v-212q0 -42 -10 -61q-19 -37 -63 -37q-45 0 -64 37q-10 19 -10 61z" />
    <glyph glyph-name="Eng" unicode="&#x14a;" horiz-adv-x="660" 
d="M59 663h151v-99q31 51 51 69q53 48 136 48q92 0 150 -58q53 -53 53 -170v-562q0 -45 -19.5 -60.5t-76.5 -15.5h-143v89h15q48 0 57 28q6 19 6 113v371q0 61 -21 89q-28 37 -81 37q-67 0 -99 -60q-18 -34 -18 -104v-378h-161v663z" />
    <glyph glyph-name="eng" unicode="&#x14b;" horiz-adv-x="592" 
d="M57 480h136l-1 -80q31 52 68.5 74t96.5 22q92 0 140 -57q39 -46 39 -140v-400q0 -58 -40 -68q-13 -3 -50 -3h-130v67h14q32 0 45 11t13 39v324q0 47 -14 69q-23 35 -72 35q-61 0 -85 -45q-16 -30 -16 -87v-241h-144v480z" />
    <glyph glyph-name="omacron" unicode="&#x14d;" horiz-adv-x="526" 
d="M263 517q107 0 180 -80q66 -72 66 -184t-70.5 -187.5t-174.5 -75.5q-108 0 -181 80q-66 73 -66 187q0 109 71 184.5t175 75.5zM260 380q-41 0 -69.5 -36t-28.5 -89q0 -55 28 -91.5t71 -36.5t73 37t30 90t-30.5 89.5t-73.5 36.5zM386 576h-226q-28 0 -42 7q-25 12 -25 43
q0 30 25 43q13 7 42 7h226q20 0 30 -3q37 -7 37 -47q0 -31 -25 -43q-14 -7 -42 -7z" />
    <glyph glyph-name="Ohungarumlaut" unicode="&#x150;" horiz-adv-x="693" 
d="M347 684q146 0 237.5 -97.5t91.5 -252.5t-91 -253t-236 -98q-151 0 -241.5 97.5t-90.5 259.5q0 168 109 262q95 82 221 82zM348 547q-74 0 -121 -58t-47 -149q0 -100 45.5 -160t122.5 -60q75 0 120 58.5t45 155.5t-45 155t-120 58zM435 852l-126 -131h-80l69 131h137z
M624 852l-127 -131h-79l69 131h137z" />
    <glyph glyph-name="ohungarumlaut" unicode="&#x151;" horiz-adv-x="526" 
d="M263 517q107 0 180 -80q66 -72 66 -184t-70.5 -187.5t-174.5 -75.5q-108 0 -181 80q-66 73 -66 187q0 109 71 184.5t175 75.5zM260 380q-41 0 -69.5 -36t-28.5 -89q0 -55 28 -91.5t71 -36.5t73 37t30 90t-30.5 89.5t-73.5 36.5zM339 687l-99 -139h-77l54 139h122z
M503 687l-99 -139h-76l54 139h121z" />
    <glyph glyph-name="Rcommaaccent" unicode="&#x156;" horiz-adv-x="569" 
d="M200 271v-179q0 -44 -10 -64q-19 -38 -66 -38t-67 38q-10 19 -10 64v463q0 63 24 87q18 18 40 22q13 3 47 3h136q106 0 169.5 -56.5t63.5 -150.5q0 -86 -52 -135q-34 -32 -104 -48l130 -144q37 -41 37 -69q0 -31 -22.5 -53t-54.5 -22q-34 0 -73 48zM200 378h95
q36 0 59 21t23 54q0 34 -24.5 57t-60.5 23h-92v-155zM342 -42v-65q0 -65 -30 -92t-103 -29v45q37 2 51 9q24 11 26 42h-74v90h130z" />
    <glyph glyph-name="rcommaaccent" unicode="&#x157;" horiz-adv-x="365" 
d="M43 91v339q0 38 20 61t54 23q49 0 73 -52q55 55 101 55q31 0 53 -22t22 -54q0 -26 -15 -39.5t-60 -27.5q-60 -19 -80.5 -39t-20.5 -59v-185q0 -42 -10 -61q-19 -37 -63 -37q-45 0 -64 37q-10 19 -10 61zM178 -58v-58q0 -79 -50 -103q-21 -10 -80 -18v46q4 1 8 1l34 6
q28 5 31 43h-69v83h126z" />
    <glyph glyph-name="Rcaron" unicode="&#x158;" horiz-adv-x="569" 
d="M200 271v-179q0 -44 -10 -64q-19 -38 -66 -38t-67 38q-10 19 -10 64v463q0 63 24 87q18 18 40 22q13 3 47 3h136q106 0 169.5 -56.5t63.5 -150.5q0 -86 -52 -135q-34 -32 -104 -48l130 -144q37 -41 37 -69q0 -31 -22.5 -53t-54.5 -22q-34 0 -73 48zM200 378h95
q36 0 59 21t23 54q0 34 -24.5 57t-60.5 23h-92v-155zM288 827l119 42q3 2 11 2q22 0 37.5 -15.5t15.5 -35.5q0 -35 -39 -48l-127 -43q-15 -5 -18 -5q-5 0 -19 5l-130 47q-33 12 -33 46q0 20 15 36t34 16q8 0 21 -5z" />
    <glyph glyph-name="rcaron" unicode="&#x159;" horiz-adv-x="365" 
d="M43 91v339q0 38 20 61t54 23q49 0 73 -52q55 55 101 55q31 0 53 -22t22 -54q0 -26 -15 -39.5t-60 -27.5q-60 -19 -80.5 -39t-20.5 -59v-185q0 -42 -10 -61q-19 -37 -63 -37q-45 0 -64 37q-10 19 -10 61zM189 636l119 42q6 2 11 2q22 0 37.5 -15.5t15.5 -35.5
q0 -36 -39 -49l-127 -42q-15 -5 -18 -5q-5 0 -19 5l-130 47q-33 12 -33 45q0 20 15 36t34 16q10 0 21 -4z" />
    <glyph glyph-name="Sacute" unicode="&#x15a;" horiz-adv-x="534" 
d="M278 684q80 0 131.5 -28t51.5 -71q0 -30 -19.5 -50.5t-48.5 -20.5q-15 0 -51.5 13.5t-69.5 13.5t-55 -15.5t-22 -39.5t21 -38q14 -10 24.5 -13.5t57.5 -16.5q111 -30 160.5 -80t49.5 -131q0 -92 -57 -153q-67 -71 -197 -71q-100 0 -163.5 31.5t-63.5 81.5q0 30 19.5 51.5
t46.5 21.5q19 0 92 -28q39 -15 75 -15q38 0 61 19.5t23 50.5t-25 47t-107 41q-100 30 -137 66q-43 42 -43 121q0 93 69.5 153t176.5 60zM210 819l157 46q10 3 17 3q22 0 36.5 -14.5t14.5 -34.5q0 -38 -37 -49l-155 -48q-13 -4 -24 -4q-21 0 -35 15t-14 37q0 37 40 49z" />
    <glyph glyph-name="sacute" unicode="&#x15b;" horiz-adv-x="435" 
d="M231 517q67 0 117 -30.5t50 -70.5q0 -25 -17.5 -44.5t-39.5 -19.5q-17 0 -62 20q-34 15 -57 15q-38 0 -38 -26q0 -19 31 -34q23 -8 46 -17q80 -31 112 -64q36 -37 36 -92q0 -72 -54.5 -118t-139.5 -46q-75 0 -131.5 32t-56.5 74q0 25 19 45.5t42 20.5q18 0 76 -26
q36 -16 59 -16q18 0 30.5 10t12.5 24q0 22 -56 43q-89 34 -118 55q-50 36 -50 106q0 68 54 113.5t135 45.5zM172 654l157 46q10 3 17 3q22 0 36.5 -14.5t14.5 -34.5q0 -38 -37 -49l-155 -48q-13 -4 -24 -4q-21 0 -35 15t-14 37q0 37 40 49z" />
    <glyph glyph-name="Scircumflex" unicode="&#x15c;" horiz-adv-x="534" 
d="M278 684q80 0 131.5 -28t51.5 -71q0 -30 -19.5 -50.5t-48.5 -20.5q-15 0 -51.5 13.5t-69.5 13.5t-55 -15.5t-22 -39.5t21 -38q14 -10 24.5 -13.5t57.5 -16.5q111 -30 160.5 -80t49.5 -131q0 -92 -57 -153q-67 -71 -197 -71q-100 0 -163.5 31.5t-63.5 81.5q0 30 19.5 51.5
t46.5 21.5q19 0 92 -28q39 -15 75 -15q38 0 61 19.5t23 50.5t-25 47t-107 41q-100 30 -137 66q-43 42 -43 121q0 93 69.5 153t176.5 60zM278 771l-114 -42q-14 -5 -21 -5q-19 0 -34 16t-15 36q0 34 33 46l131 47q14 5 18 5t19 -5l127 -43q38 -13 38 -48q0 -21 -15.5 -36
t-36.5 -15q-9 0 -12 2z" />
    <glyph glyph-name="scircumflex" unicode="&#x15d;" horiz-adv-x="435" 
d="M231 517q67 0 117 -30.5t50 -70.5q0 -25 -17.5 -44.5t-39.5 -19.5q-17 0 -62 20q-34 15 -57 15q-38 0 -38 -26q0 -19 31 -34q23 -8 46 -17q80 -31 112 -64q36 -37 36 -92q0 -72 -54.5 -118t-139.5 -46q-75 0 -131.5 32t-56.5 74q0 25 19 45.5t42 20.5q18 0 76 -26
q36 -16 59 -16q18 0 30.5 10t12.5 24q0 22 -56 43q-89 34 -118 55q-50 36 -50 106q0 68 54 113.5t135 45.5zM232 585l-114 -43q-11 -4 -21 -4q-19 0 -34 16t-15 36q0 33 33 45l130 48q11 4 19 4q1 0 19 -4l127 -43q38 -13 38 -48q0 -22 -15.5 -37t-36.5 -15q-4 0 -12 2z" />
    <glyph glyph-name="Tcaron" unicode="&#x164;" horiz-adv-x="485" 
d="M320 530v-438q0 -44 -10 -64q-19 -38 -66 -38t-67 38q-10 19 -10 64v438h-76q-39 0 -57 9q-34 17 -34 60q0 42 34 59q18 9 57 9h302q39 0 57 -9q34 -17 34 -59q0 -43 -34 -60q-18 -9 -57 -9h-73zM246 827l119 42q3 2 11 2q22 0 37.5 -15.5t15.5 -35.5q0 -35 -39 -48
l-127 -43q-15 -5 -18 -5q-5 0 -19 5l-130 47q-33 12 -33 46q0 20 15 36t34 16q6 0 20 -5z" />
    <glyph glyph-name="tcaron" unicode="&#x165;" horiz-adv-x="354" 
d="M238 374v-283q0 -42 -10 -61q-19 -37 -63 -37q-45 0 -64 37q-10 19 -10 61v283q-56 0 -73.5 21.5t-17.5 44.5q0 56 57 65q13 2 34 2v76q0 41 10 60q19 37 64 37q44 0 63 -37q10 -19 10 -60v-76h27q39 0 56 -9q33 -17 33 -57q0 -41 -33 -58q-17 -9 -56 -9h-27zM167 827
l119 42q3 2 11 2q22 0 37.5 -15.5t15.5 -35.5q0 -35 -39 -48l-127 -43q-15 -5 -18 -5q-5 0 -19 5l-130 47q-33 12 -33 46q0 20 15 36t34 16q8 0 21 -5z" />
    <glyph glyph-name="Tbar" unicode="&#x166;" horiz-adv-x="578" 
d="M370 425h160v-110h-160v-315h-161v315h-160v110h160v106h-200v136h560v-136h-199v-106z" />
    <glyph glyph-name="tbar" unicode="&#x167;" horiz-adv-x="359" 
d="M241 332h74v-86h-74v-69q0 -43 9 -56q12 -18 54 -18q8 0 38 2v-107q-47 -4 -83 -4q-108 0 -145 54q-20 30 -20 103v95h-62v86h62v57h-82v93h82v150h147v-150h101v-93h-101v-57z" />
    <glyph glyph-name="utilde" unicode="&#x169;" horiz-adv-x="542" 
d="M499 416v-218q0 -76 -36 -121q-70 -87 -192 -87t-192 87q-36 45 -36 121v218q0 42 10 61q19 37 64 37q44 0 63 -37q10 -20 10 -61v-200q0 -41 23.5 -63.5t57.5 -22.5t57.5 22.5t23.5 63.5v200q0 42 10 61q19 37 64 37q44 0 63 -37q10 -20 10 -61zM202 694q39 0 120 -41
q20 -10 38 -10t31.5 26t41.5 26q21 0 35 -14.5t14 -36.5q0 -42 -34.5 -72t-81.5 -30q-37 0 -85 24q-54 27 -72 27q-12 0 -18 -5.5t-21 -29.5q-10 -17 -35 -17q-48 0 -48 52q0 41 34 71t81 30z" />
    <glyph glyph-name="ubreve" unicode="&#x16d;" horiz-adv-x="542" 
d="M499 416v-218q0 -76 -36 -121q-70 -87 -192 -87t-192 87q-36 45 -36 121v218q0 42 10 61q19 37 64 37q44 0 63 -37q10 -20 10 -61v-200q0 -41 23.5 -63.5t57.5 -22.5t57.5 22.5t23.5 63.5v200q0 42 10 61q19 37 64 37q44 0 63 -37q10 -20 10 -61zM165 672q14 0 35 -20
q35 -33 75 -33q35 0 65 24q35 28 50 28q16 0 28.5 -14t12.5 -32q0 -32 -51 -61.5t-106 -29.5t-105.5 30t-50.5 63q0 19 13.5 32t33.5 13z" />
    <glyph glyph-name="Uring" unicode="&#x16e;" horiz-adv-x="660" 
d="M620 575v-282q0 -74 -11.5 -116.5t-42.5 -82.5q-86 -111 -237 -111q-124 0 -206.5 77t-82.5 193v322q0 44 10 64q19 38 67 38q47 0 66 -38q10 -20 10 -64v-300q0 -68 37.5 -108.5t99.5 -40.5q70 0 109 52q28 38 28 115v282q0 44 10 64q19 38 67 38q47 0 66 -38
q10 -20 10 -64zM337 900q38 0 66.5 -27t28.5 -64t-27 -64.5t-64 -27.5t-65 29t-28 67q0 35 26.5 61t62.5 26zM339 850q-16 0 -28.5 -12t-12.5 -28q0 -17 13 -30t30 -13t29 12.5t12 29.5q0 16 -13 28.5t-30 12.5z" />
    <glyph glyph-name="uring" unicode="&#x16f;" horiz-adv-x="542" 
d="M499 416v-218q0 -76 -36 -121q-70 -87 -192 -87t-192 87q-36 45 -36 121v218q0 42 10 61q19 37 64 37q44 0 63 -37q10 -20 10 -61v-200q0 -41 23.5 -63.5t57.5 -22.5t57.5 22.5t23.5 63.5v200q0 42 10 61q19 37 64 37q44 0 63 -37q10 -20 10 -61zM278 734q38 0 66.5 -27
t28.5 -64q0 -38 -27 -65.5t-64 -27.5t-65 29t-28 67q0 35 26.5 61.5t62.5 26.5zM280 684q-16 0 -28.5 -12t-12.5 -28q0 -17 13 -30.5t30 -13.5q16 0 28.5 12.5t12.5 29.5t-13 29.5t-30 12.5z" />
    <glyph glyph-name="Uhungarumlaut" unicode="&#x170;" horiz-adv-x="660" 
d="M620 575v-282q0 -74 -11.5 -116.5t-42.5 -82.5q-86 -111 -237 -111q-124 0 -206.5 77t-82.5 193v322q0 44 10 64q19 38 67 38q47 0 66 -38q10 -20 10 -64v-300q0 -68 37.5 -108.5t99.5 -40.5q70 0 109 52q28 38 28 115v282q0 44 10 64q19 38 67 38q47 0 66 -38
q10 -20 10 -64zM422 852l-127 -131h-79l69 131h137zM611 852l-127 -131h-79l69 131h137z" />
    <glyph glyph-name="uhungarumlaut" unicode="&#x171;" horiz-adv-x="543" 
d="M499 416v-218q0 -76 -36 -121q-70 -87 -192 -87t-192 87q-36 45 -36 121v218q0 42 10 61q19 37 64 37q44 0 63 -37q10 -20 10 -61v-200q0 -41 23.5 -63.5t57.5 -22.5t57.5 22.5t23.5 63.5v200q0 42 10 61q19 37 64 37q44 0 63 -37q10 -20 10 -61zM350 687l-99 -139h-76
l53 139h122zM515 687l-99 -139h-77l54 139h122z" />
    <glyph glyph-name="Uogonek" unicode="&#x172;" horiz-adv-x="660" 
d="M522 49l-3 -2l-7 -5q-51 -36 -51 -79q0 -12 10 -22t22 -10q5 0 16 2t16 2q36 0 36 -33q0 -25 -25 -41.5t-62 -16.5q-46 0 -73 25t-27 66q0 27 13 54q-30 -6 -57 -6q-125 0 -207.5 77t-82.5 193v322q0 43 10 64q22 38 67 38q47 0 66 -38q10 -19 10 -64v-300
q0 -68 37.5 -108.5t99.5 -40.5q70 0 109 52q28 38 28 115v282q0 43 10 64q22 38 67 38q47 0 66 -38q10 -19 10 -64v-282q0 -91 -21.5 -145t-76.5 -99z" />
    <glyph glyph-name="uogonek" unicode="&#x173;" horiz-adv-x="542" 
d="M499 416v-218q0 -111 -85 -167q-44 -35 -44 -68q0 -12 10 -22t22 -10q6 0 16.5 2t16.5 2q36 0 36 -33q0 -25 -25 -41.5t-62 -16.5q-46 0 -73 24.5t-27 65.5q0 29 17 58q-11 -2 -29 -2q-123 0 -193 87q-36 45 -36 121v218q0 43 10 61q20 37 64 37q50 0 68 -47q5 -15 5 -51
v-200q0 -41 23.5 -63.5t57.5 -22.5t57.5 22.5t23.5 63.5v200q0 43 10 61q20 37 64 37q50 0 68 -47q5 -15 5 -51z" />
    <glyph glyph-name="Wcircumflex" unicode="&#x174;" horiz-adv-x="866" 
d="M432 389l-94 -307q-28 -92 -111 -92q-33 0 -60 19.5t-34 48.5l-123 504q-7 29 -7 45q0 29 21.5 50.5t52.5 21.5q34 0 54 -24q15 -18 24 -58l82 -352l114 363q22 69 81 69t81 -69l116 -363l78 350q19 84 80 84q31 0 53 -21.5t22 -52.5q0 -16 -7 -45l-117 -486
q-20 -84 -101 -84q-76 0 -103 84zM436 771l-113 -42q-13 -5 -21 -5q-19 0 -34 16t-15 36q0 34 33 46l130 47q14 5 19 5q3 0 18 -5l127 -43q39 -13 39 -48q0 -21 -15.5 -36t-37.5 -15q-8 0 -11 2z" />
    <glyph glyph-name="Ycircumflex" unicode="&#x176;" horiz-adv-x="576" 
d="M361 315v-223q0 -44 -10 -64q-19 -38 -66 -38t-67 38q-10 19 -10 64v223l-161 220q-29 40 -29 67q0 31 22.5 53t54.5 22q23 0 38 -11t38 -43l114 -162l118 163q23 32 38.5 43t38.5 11q31 0 54.5 -22.5t23.5 -51.5q0 -28 -31 -70zM295 771l-113 -42q-13 -5 -21 -5
q-19 0 -34 16t-15 36q0 34 33 46l130 47q14 5 19 5q3 0 18 -5l127 -43q39 -13 39 -48q0 -21 -15.5 -36t-37.5 -15q-8 0 -11 2z" />
    <glyph glyph-name="ycircumflex" unicode="&#x177;" horiz-adv-x="497" 
d="M247 227l86 217q15 39 32.5 54.5t45.5 15.5q31 0 53 -21t22 -50q0 -20 -15 -56l-223 -534q-16 -38 -32.5 -52.5t-45.5 -14.5t-51 21t-22 49q0 20 15 55l58 135l-145 343q-15 35 -15 55q0 28 22 49t52 21q28 0 45 -15t32 -54zM255 585l-114 -43q-11 -4 -20 -4
q-19 0 -34 16t-15 36q0 33 33 45l130 48q11 4 19 4q6 0 18 -4l127 -43q39 -13 39 -48q0 -22 -15.5 -37t-37.5 -15q-3 0 -11 2z" />
    <glyph glyph-name="Zacute" unicode="&#x179;" horiz-adv-x="522" 
d="M198 137h233q39 0 57 -9q34 -17 34 -59q0 -43 -34 -60q-18 -9 -57 -9h-334q-49 0 -76 28q-21 22 -21 49q0 29 35 75l285 378h-216q-39 0 -57 9q-34 17 -34 60q0 42 34 59q18 9 57 9h316q52 0 76 -33q14 -20 14 -45q0 -31 -21 -59zM450 852l-127 -131h-79l69 131h137z" />
    <glyph glyph-name="zacute" unicode="&#x17a;" horiz-adv-x="449" 
d="M216 133h144q39 0 56 -9q33 -17 33 -57q0 -41 -33 -58q-17 -9 -56 -9h-283q-76 0 -76 50q0 21 17 44l205 280h-132q-38 0 -55 9q-34 17 -34 58q0 40 34 57q17 9 55 9h283q25 0 42.5 -15t17.5 -38q0 -24 -20 -51zM390 687l-99 -139h-76l54 139h121z" />
    <glyph glyph-name="Zdotaccent" unicode="&#x17b;" horiz-adv-x="522" 
d="M198 137h233q39 0 57 -9q34 -17 34 -59q0 -43 -34 -60q-18 -9 -57 -9h-334q-49 0 -76 28q-21 22 -21 49q0 29 35 75l285 378h-216q-39 0 -57 9q-34 17 -34 60q0 42 34 59q18 9 57 9h316q52 0 76 -33q14 -20 14 -45q0 -31 -21 -59zM279 860q28 0 48.5 -20t20.5 -47
t-19.5 -47t-46.5 -20t-47.5 21t-20.5 49q0 26 19.5 45t45.5 19z" />
    <glyph glyph-name="zdotaccent" unicode="&#x17c;" horiz-adv-x="449" 
d="M216 133h144q39 0 56 -9q33 -17 33 -57q0 -41 -33 -58q-17 -9 -56 -9h-283q-76 0 -76 50q0 21 17 44l205 280h-132q-38 0 -55 9q-34 17 -34 58q0 40 34 57q17 9 55 9h283q25 0 42.5 -15t17.5 -38q0 -24 -20 -51zM232 699q31 0 53.5 -22t22.5 -51q0 -30 -21.5 -52
t-50.5 -22q-30 0 -52.5 23t-22.5 54q0 28 21 49t50 21z" />
    <glyph glyph-name="Acaron" unicode="&#x1cd;" horiz-adv-x="607" 
d="M431 127h-256l-16 -58q-22 -81 -78 -81q-32 0 -55 22t-23 52q0 17 13 53l174 480q31 85 113 85t113 -85l174 -480q13 -36 13 -53q0 -30 -23 -52t-55 -22q-56 0 -78 81zM385 264l-81 254l-81 -254h162zM307 827l118 42q4 2 12 2q22 0 37.5 -15.5t15.5 -35.5q0 -35 -39 -48
l-127 -43q-15 -5 -19 -5t-18 5l-131 47q-32 11 -32 46q0 20 15 36t34 16q6 0 20 -5z" />
    <glyph glyph-name="acaron" unicode="&#x1ce;" horiz-adv-x="560" 
d="M518 439v-359q0 -39 -20.5 -63t-53.5 -24q-52 0 -74 58q-28 -34 -54 -47.5t-67 -13.5q-81 0 -145 56q-87 77 -87 210q0 118 77 194q68 67 153 67q68 0 125 -58q23 55 73 55q31 0 52 -21.5t21 -53.5zM265 380q-45 0 -73 -34.5t-28 -90.5q0 -58 28 -93t74 -35q45 0 73 35.5
t28 91.5t-28 91t-74 35zM291 636l118 42q8 2 12 2q22 0 37.5 -15.5t15.5 -35.5q0 -36 -39 -49l-127 -42q-15 -5 -19 -5t-18 5l-130 47q-33 12 -33 45q0 20 15 36t34 16q9 0 20 -4z" />
    <glyph glyph-name="Ucaron" unicode="&#x1d3;" horiz-adv-x="660" 
d="M620 575v-282q0 -74 -11.5 -116.5t-42.5 -82.5q-86 -111 -237 -111q-124 0 -206.5 77t-82.5 193v322q0 44 10 64q19 38 67 38q47 0 66 -38q10 -20 10 -64v-300q0 -68 37.5 -108.5t99.5 -40.5q70 0 109 52q28 38 28 115v282q0 44 10 64q19 38 67 38q47 0 66 -38
q10 -20 10 -64zM337 827l119 42q3 2 11 2q22 0 37.5 -15.5t15.5 -35.5q0 -35 -39 -48l-127 -43q-15 -5 -18 -5q-5 0 -19 5l-130 47q-33 12 -33 46q0 20 15 36t34 16q6 0 20 -5z" />
    <glyph glyph-name="Gcaron" unicode="&#x1e6;" horiz-adv-x="670" 
d="M497 258h-74q-39 0 -57 9q-34 17 -34 60q0 42 34 59q18 9 57 9h149q82 0 82 -97q0 -133 -86 -224t-220 -91q-146 0 -238.5 97t-92.5 250q0 155 96 254.5t246 99.5q97 0 173.5 -42.5t76.5 -95.5q0 -27 -20.5 -47.5t-47.5 -20.5q-16 0 -30.5 7t-62.5 37q-40 25 -96 25
q-77 0 -124.5 -59.5t-47.5 -154.5q0 -97 47 -155t127 -58q72 0 110 51q23 30 33 87zM352 827l119 42q3 2 11 2q22 0 37.5 -15.5t15.5 -35.5q0 -35 -39 -48l-127 -43q-15 -5 -18 -5q-5 0 -19 5l-130 47q-33 12 -33 46q0 20 15 36t34 16q8 0 21 -5z" />
    <glyph glyph-name="gcaron" unicode="&#x1e7;" horiz-adv-x="550" 
d="M507 433v-388q0 -119 -69.5 -187t-191.5 -68q-100 0 -176 42q-45 25 -45 67q0 26 19.5 45t47.5 19q13 0 65 -18t91 -18q74 0 100 49q12 22 17 81q-30 -38 -56.5 -52.5t-66.5 -14.5q-99 0 -162.5 73t-63.5 186q0 114 65 191t162 77q67 0 122 -58q29 55 71 55
q32 0 51.5 -22.5t19.5 -58.5zM261 380q-44 0 -71 -35t-27 -91t28 -91.5t72 -35.5q43 0 71 35.5t28 90.5t-28.5 91t-72.5 36zM282 636l119 42q8 2 11 2q22 0 37.5 -15.5t15.5 -35.5q0 -36 -39 -49l-127 -42q-15 -5 -18 -5q-5 0 -19 5l-130 47q-33 12 -33 45q0 20 15 36t34 16
q10 0 21 -4z" />
    <glyph glyph-name="Gacute" unicode="&#x1f4;" horiz-adv-x="670" 
d="M497 258h-74q-39 0 -57 9q-34 17 -34 60q0 42 34 59q18 9 57 9h149q82 0 82 -97q0 -133 -86 -224t-220 -91q-146 0 -238.5 97t-92.5 250q0 155 96 254.5t246 99.5q97 0 173.5 -42.5t76.5 -95.5q0 -27 -20.5 -47.5t-47.5 -20.5q-16 0 -30.5 7t-62.5 37q-40 25 -96 25
q-77 0 -124.5 -59.5t-47.5 -154.5q0 -97 47 -155t127 -58q72 0 110 51q23 30 33 87zM291 819l158 46q10 3 17 3q21 0 36 -14.5t15 -34.5q0 -37 -38 -49l-154 -48q-13 -4 -25 -4q-21 0 -35 15t-14 37q0 37 40 49z" />
    <glyph glyph-name="Scommaaccent" unicode="&#x218;" horiz-adv-x="534" 
d="M278 684q80 0 131.5 -28t51.5 -71q0 -30 -19.5 -50.5t-48.5 -20.5q-15 0 -51.5 13.5t-69.5 13.5t-55 -15.5t-22 -39.5t21 -38q14 -10 24.5 -13.5t57.5 -16.5q111 -30 160.5 -80t49.5 -131q0 -92 -57 -153q-67 -71 -197 -71q-100 0 -163.5 31.5t-63.5 81.5q0 30 19.5 51.5
t46.5 21.5q19 0 92 -28q39 -15 75 -15q38 0 61 19.5t23 50.5t-25 47t-107 41q-100 30 -137 66q-43 42 -43 121q0 93 69.5 153t176.5 60zM325 -42v-65q0 -65 -30 -92t-104 -29v45q37 2 52 9q24 11 26 42h-74v90h130z" />
    <glyph glyph-name="scommaaccent" unicode="&#x219;" horiz-adv-x="435" 
d="M231 517q67 0 117 -30.5t50 -70.5q0 -25 -17.5 -44.5t-39.5 -19.5q-17 0 -62 20q-34 15 -57 15q-38 0 -38 -26q0 -19 31 -34q23 -8 46 -17q80 -31 112 -64q36 -37 36 -92q0 -72 -54.5 -118t-139.5 -46q-75 0 -131.5 32t-56.5 74q0 25 19 45.5t42 20.5q18 0 76 -26
q36 -16 59 -16q18 0 30.5 10t12.5 24q0 22 -56 43q-89 34 -118 55q-50 36 -50 106q0 68 54 113.5t135 45.5zM277 -58v-58q0 -79 -50 -103q-21 -10 -80 -18v46q4 1 8 1l34 6q28 5 31 43h-69v83h126z" />
    <glyph glyph-name="Tcommaaccent" unicode="&#x162;" horiz-adv-x="485" 
d="M320 530v-438q0 -44 -10 -64q-19 -38 -66 -38t-67 38q-10 19 -10 64v438h-76q-39 0 -57 9q-34 17 -34 60q0 42 34 59q18 9 57 9h302q39 0 57 -9q34 -17 34 -59q0 -43 -34 -60q-18 -9 -57 -9h-73zM307 -42v-65q0 -65 -30 -92t-104 -29v45q37 2 52 9q24 11 26 42h-74v90
h130z" />
    <glyph glyph-name="tcommaaccent" unicode="&#x163;" horiz-adv-x="354" 
d="M238 374v-283q0 -42 -10 -61q-19 -37 -63 -37q-45 0 -64 37q-10 19 -10 61v283q-56 0 -73.5 21.5t-17.5 44.5q0 56 57 65q13 2 34 2v76q0 41 10 60q19 37 64 37q44 0 63 -37q10 -19 10 -60v-76h27q39 0 56 -9q33 -17 33 -57q0 -41 -33 -58q-17 -9 -56 -9h-27zM230 -58
v-58q0 -64 -26 -88t-105 -33v46q4 1 9 1q39 5 50 13.5t15 35.5h-69v83h126z" />
    <glyph glyph-name="Adotaccent" unicode="&#x226;" horiz-adv-x="607" 
d="M431 127h-256l-16 -58q-22 -81 -78 -81q-32 0 -55 22t-23 52q0 17 13 53l174 480q31 85 113 85t113 -85l174 -480q13 -36 13 -53q0 -30 -23 -52t-55 -22q-56 0 -78 81zM385 264l-81 254l-81 -254h162zM305 860q28 0 48.5 -20t20.5 -47t-19.5 -47t-46.5 -20t-47.5 21
t-20.5 49q0 26 19.5 45t45.5 19z" />
    <glyph glyph-name="adotaccent" unicode="&#x227;" horiz-adv-x="560" 
d="M518 439v-359q0 -39 -20.5 -63t-53.5 -24q-52 0 -74 58q-28 -34 -54 -47.5t-67 -13.5q-81 0 -145 56q-87 77 -87 210q0 118 77 194q68 67 153 67q68 0 125 -58q23 55 73 55q31 0 52 -21.5t21 -53.5zM265 380q-45 0 -73 -34.5t-28 -90.5q0 -58 28 -93t74 -35q45 0 73 35.5
t28 91.5t-28 91t-74 35zM288 699q31 0 53.5 -22t22.5 -51q0 -30 -21.5 -52t-50.5 -22q-30 0 -52.5 23t-22.5 54q0 28 21 49t50 21z" />
    <glyph glyph-name="commabelow" unicode="&#x326;" 
d="M312 -58v-58q0 -79 -50 -103q-21 -10 -80 -18v46q4 1 8 1l34 6q28 5 31 43h-69v83h126z" />
    <glyph glyph-name="Gamma" unicode="&#x393;" horiz-adv-x="534" 
d="M59 0v667h478v-133h-318v-534h-160z" />
    <glyph glyph-name="Theta" unicode="&#x398;" horiz-adv-x="733" 
d="M473 390v-99h-214v99h214zM372 684q148 0 237.5 -99t89.5 -263q0 -168 -114 -263q-91 -76 -217 -76q-160 0 -256 114q-77 91 -77 237q0 157 93 253.5t244 96.5zM369 553q-80 0 -126.5 -59.5t-46.5 -162.5q0 -100 46 -159t125 -59q77 0 124 59t47 157q0 103 -46 163.5
t-123 60.5z" />
    <glyph glyph-name="Theta" unicode="&#x472;" horiz-adv-x="733" 
d="M473 390v-99h-214v99h214zM372 684q148 0 237.5 -99t89.5 -263q0 -168 -114 -263q-91 -76 -217 -76q-160 0 -256 114q-77 91 -77 237q0 157 93 253.5t244 96.5zM369 553q-80 0 -126.5 -59.5t-46.5 -162.5q0 -100 46 -159t125 -59q77 0 124 59t47 157q0 103 -46 163.5
t-123 60.5z" />
    <glyph glyph-name="Sigma" unicode="&#x3a3;" horiz-adv-x="569" 
d="M33 0v129l190 209l-186 195v134h509v-133h-305l177 -196l-180 -200h322v-138h-527z" />
    <glyph glyph-name="Phi" unicode="&#x3a6;" horiz-adv-x="735" 
d="M302 -15v79q-90 10 -142 37q-59 31 -94 94t-35 138q0 76 35 139t94 94q52 27 142 37v78h131v-78q91 -9 143 -38q59 -32 93.5 -94.5t34.5 -137.5q0 -74 -34.5 -136.5t-93.5 -94.5q-53 -29 -142 -38v-79h-132zM302 190v286q-57 -10 -89.5 -47t-32.5 -94q0 -75 52 -116
q25 -20 70 -29zM434 475v-285q121 26 121 144q0 58 -33.5 97t-87.5 44z" />
    <glyph glyph-name="alpha" unicode="&#x3b1;" horiz-adv-x="643" 
d="M623 480l-102 -235l114 -245h-168l-35 110q-16 -20 -19 -23q-44 -56 -83 -79.5t-90 -23.5q-90 0 -151 75.5t-61 186.5q0 106 63 178t156 72q84 0 137 -53q9 -9 48 -61l30 98h161zM396 245q-17 57 -34 86q-32 55 -85 55q-46 0 -74.5 -40t-28.5 -104q0 -62 28 -101.5
t72 -39.5q56 0 89 61q6 10 33 83z" />
    <glyph glyph-name="beta" unicode="&#x3b2;" horiz-adv-x="572" 
d="M57 -173v603q0 116 35 169q56 84 192 84q100 0 162 -50t62 -131q0 -87 -83 -127q47 -13 71 -40q48 -54 48 -133q0 -89 -60.5 -149.5t-148.5 -60.5q-75 0 -134 48v-213h-144zM201 449v-314q47 -29 91 -29q47 0 77.5 33t30.5 83q0 68 -52 93q-20 10 -71 15v81l12 2
q37 6 52 17q28 21 28 70q0 37 -23 60t-60 23q-47 0 -69 -36q-16 -26 -16 -98z" />
    <glyph glyph-name="delta" unicode="&#x3b4;" horiz-adv-x="555" 
d="M470 667v-118h-183l97 -67q144 -99 144 -253q0 -109 -69 -177t-179 -68q-113 0 -182.5 69t-69.5 182q0 66 29 122q32 62 90 83q31 11 84 17l-151 114v96h390zM279 370q-48 0 -77 -38t-29 -101q0 -65 29 -104.5t78 -39.5q47 0 75.5 38t28.5 101q0 68 -27.5 106t-77.5 38z
" />
    <glyph glyph-name="epsilon" unicode="&#x3b5;" horiz-adv-x="485" 
d="M297 288v-83q-6 1 -14 1q-62 0 -87.5 -13.5t-25.5 -45.5q0 -28 22.5 -45t60.5 -17q73 0 91 72h142q-11 -82 -73.5 -127.5t-162.5 -45.5t-160 43t-60 115q0 85 91 116q-76 36 -76 100q0 63 54 100.5t143 37.5q107 0 175 -57q51 -43 58 -110h-141q-9 67 -79 67
q-31 0 -51 -16.5t-20 -41.5q0 -30 26 -41q17 -7 54 -8z" />
    <glyph glyph-name="eta" unicode="&#x3b7;" horiz-adv-x="592" 
d="M193 480v-80q54 96 164 96q92 0 140 -57q39 -46 39 -140v-470h-148v440q0 47 -14 69q-23 35 -72 35q-61 0 -85 -45q-16 -30 -16 -87v-241h-144v480h136z" />
    <glyph glyph-name="sigma" unicode="&#x3c3;" horiz-adv-x="562" 
d="M565 480v-110h-88q33 -41 44 -70t11 -73q0 -107 -70 -175t-181 -68q-112 0 -182.5 71t-70.5 184q0 112 70 184.5t178 72.5q41 0 82 -16h207zM282 395q-50 0 -79.5 -41.5t-29.5 -112.5q0 -73 29 -114.5t80 -41.5q106 0 106 153q0 157 -106 157z" />
    <glyph glyph-name="tau" unicode="&#x3c4;" horiz-adv-x="424" 
d="M438 480v-118h-150v-362h-145v362h-155v118h450z" />
    <glyph glyph-name="phi" unicode="&#x3c6;" horiz-adv-x="676" 
d="M276 -176v157q-106 7 -169 65q-79 73 -79 190q0 108 56 172q43 48 137 78v-114q-58 -47 -58 -139q0 -67 27 -102.5t86 -47.5v411q58 2 72 2q128 0 202 -55q99 -74 99 -206q0 -137 -103 -208q-55 -38 -143 -46v-157h-127zM403 394v-311q36 4 69 36q40 38 40 119
q0 66 -29.5 107.5t-79.5 48.5z" />
    <glyph glyph-name="psi" unicode="&#x3c8;" horiz-adv-x="725" 
d="M296 -173v157q-108 11 -161 51q-45 34 -64 85t-19 136v224h144v-215q0 -90 21 -125t79 -39v379h134v-379q46 4 70 30q28 30 28 134v215h144v-224q0 -85 -19 -136t-64 -85q-53 -40 -159 -51v-157h-134z" />
    <glyph glyph-name="psi" unicode="&#x471;" horiz-adv-x="725" 
d="M296 -173v157q-108 11 -161 51q-45 34 -64 85t-19 136v224h144v-215q0 -90 21 -125t79 -39v379h134v-379q46 4 70 30q28 30 28 134v215h144v-224q0 -85 -19 -136t-64 -85q-53 -40 -159 -51v-157h-134z" />
    <glyph glyph-name="Dcommaaccent" unicode="&#x1e10;" horiz-adv-x="637" 
d="M47 113v442q0 63 24 87q18 18 40 22q13 3 47 3h125q132 0 214 -61q58 -43 90.5 -116t32.5 -161q0 -149 -87 -240t-227 -89l-149 2q-39 1 -55 5.5t-31 19.5q-24 24 -24 86zM200 133h76q88 0 134.5 52t46.5 149q0 103 -61 158q-45 41 -138 41h-58v-400zM366 -42v-65
q0 -65 -30 -92t-103 -29v45q37 2 51 9q24 11 26 42h-74v90h130z" />
    <glyph glyph-name="dcommaaccent" unicode="&#x1e11;" horiz-adv-x="554" 
d="M364 471v165q0 42 10 61q19 37 64 37q44 0 63 -37q10 -20 10 -61v-559q0 -84 -74 -84q-50 0 -71 58q-45 -61 -127 -61q-104 0 -168 92q-55 79 -55 175q0 58 24.5 114.5t65.5 91.5q62 54 139 54q63 0 119 -46zM265 387q-43 0 -72.5 -36.5t-29.5 -88.5q0 -56 29 -92t73 -36
q43 0 71.5 36.5t28.5 90.5q0 53 -28.5 89.5t-71.5 36.5zM331 -58v-58q0 -64 -26 -88t-105 -33v46q4 1 9 1q39 5 50 13.5t15 35.5h-69v83h126z" />
    <glyph glyph-name="Fdotaccent" unicode="&#x1e1e;" horiz-adv-x="457" 
d="M200 530v-133h121q39 0 57 -9q34 -17 34 -59q0 -43 -34 -60q-18 -9 -57 -9h-121v-168q0 -44 -10 -64q-19 -38 -66 -38t-67 38q-10 19 -10 64v464q0 63 24 87t87 24h188q39 0 57 -9q34 -17 34 -59q0 -43 -34 -60q-18 -9 -57 -9h-146zM247 860q28 0 48.5 -20t20.5 -47
t-19.5 -47t-46.5 -20t-47.5 21t-20.5 49q0 26 19.5 45t45.5 19z" />
    <glyph glyph-name="Wdieresis" unicode="&#x1e84;" horiz-adv-x="866" 
d="M432 389l-94 -307q-28 -92 -111 -92q-33 0 -60 19.5t-34 48.5l-123 504q-7 29 -7 45q0 29 21.5 50.5t52.5 21.5q34 0 54 -24q15 -18 24 -58l82 -352l114 363q22 69 81 69t81 -69l116 -363l78 350q19 84 80 84q31 0 53 -21.5t22 -52.5q0 -16 -7 -45l-117 -486
q-20 -84 -101 -84q-76 0 -103 84zM346 860q28 0 48.5 -20t20.5 -47t-19.5 -47t-46.5 -20t-47.5 21t-20.5 49q0 26 19.5 45t45.5 19zM522 860q28 0 48.5 -20t20.5 -47t-19.5 -47t-46.5 -20t-47.5 21t-20.5 49q0 26 19.5 45t45.5 19z" />
    <glyph glyph-name="figurespace" unicode="&#x2007;" horiz-adv-x="556" 
 />
    <glyph glyph-name="hyphenminus" unicode="&#x2010;" horiz-adv-x="313" 
d="M196 338q36 0 52 -8q32 -16 32 -54q0 -39 -31 -55q-16 -8 -53 -8h-79q-37 0 -53 8q-31 16 -31 55t31 54q17 8 53 8h79z" />
    <glyph glyph-name="underscoredbl" unicode="&#x2017;" 
d="M0 -50h500v-66h-500v66zM0 -167h500v-66h-500v66z" />
    <glyph glyph-name="trianglebullet" unicode="&#x2023;" 
d="M71 119v433l405 -217z" />
    <glyph glyph-name="onedotlead" unicode="&#x2024;" horiz-adv-x="250" 
d="M194 152v-152h-137v152h137z" />
    <glyph glyph-name="twodotlead" unicode="&#x2025;" 
d="M194 152v-152h-137v152h137zM444 152v-152h-137v152h137z" />
    <glyph glyph-name="minute" unicode="&#x2032;" horiz-adv-x="309" 
d="M51 464l109 190q17 30 44 30q18 0 31.5 -11.5t13.5 -26.5q0 -18 -14 -35l-140 -172q-28 -35 -43 -35q-19 0 -19 20q0 9 18 40z" />
    <glyph glyph-name="second" unicode="&#x2033;" horiz-adv-x="443" 
d="M170 399h-114l-30 268h174zM387 399h-114l-30 268h174z" />
    <glyph glyph-name="exclamdbl" unicode="&#x203c;" horiz-adv-x="465" 
d="M190 667v-177l-42 -278h-73l-42 276v179h157zM193 158v-158h-163v158h163zM431 667v-177l-42 -278h-73l-42 276v179h157zM434 158v-158h-163v158h163z" />
    <glyph glyph-name="overscore2" unicode="&#x203e;" 
d="M0 879h500v-94h-500v94z" />
    <glyph glyph-name="zerosuperior" unicode="&#x2070;" horiz-adv-x="389" 
d="M194 677q69 0 114 -59.5t45 -150.5t-45 -150.5t-114 -59.5q-61 0 -105 47q-53 57 -53 166q0 104 53 160q44 47 105 47zM195 582q-25 0 -39.5 -31t-14.5 -83q0 -116 54 -116q23 0 38 32.5t15 82.5q0 49 -15 82t-38 33z" />
    <glyph glyph-name="foursuperior" unicode="&#x2074;" horiz-adv-x="389" 
d="M205 352h-119q-54 0 -54 40q0 12 5 21l124 215q26 45 72 45q29 0 48.5 -20t19.5 -50v-166h7q47 0 47 -41t-53 -44l-1 -31q0 -14 -6 -37q-12 -23 -42 -23q-48 0 -48 60v31zM205 437v108l-60 -108h60z" />
    <glyph glyph-name="fivesuperior" unicode="&#x2075;" horiz-adv-x="389" 
d="M184 581l-6 -43q21 5 38 5q58 0 93 -35.5t35 -94.5q0 -69 -43.5 -112.5t-113.5 -43.5q-55 0 -99 25t-44 56q0 19 14 32.5t33 13.5q13 0 49 -20q22 -12 46 -12q23 0 38 17t15 43q0 52 -49 52q-16 0 -49 -15q-11 -5 -22 -5q-17 0 -29.5 11t-12.5 27q0 10 1 13l15 126
q5 46 48 46h139q60 0 60 -43q0 -26 -23 -37q-13 -6 -37 -6h-96z" />
    <glyph glyph-name="sixsuperior" unicode="&#x2076;" horiz-adv-x="389" 
d="M202 525q14 3 25 3q54 0 91 -37t37 -91q0 -62 -44.5 -102.5t-112.5 -40.5q-66 0 -110.5 39.5t-44.5 98.5q0 86 87 192q45 55 65.5 72.5t40.5 17.5q19 0 33.5 -12.5t14.5 -29.5q0 -19 -18 -39l-31 -32.5t-33 -38.5zM199 447q-21 0 -36 -14t-15 -33q0 -20 15 -34t36 -14
t36 14t15 34q0 19 -15 33t-36 14z" />
    <glyph glyph-name="sevensuperior" unicode="&#x2077;" horiz-adv-x="389" 
d="M218 581h-114q-60 0 -60 43q0 26 23 37q13 6 37 6h179q55 0 55 -49q0 -10 -8 -27l-137 -292q-19 -40 -51 -40q-21 0 -37 14t-16 31q0 14 6 24z" />
    <glyph glyph-name="eightsuperior" unicode="&#x2078;" horiz-adv-x="389" 
d="M297 487q56 -37 56 -98q0 -58 -44.5 -95t-113.5 -37t-113.5 37t-44.5 95q0 62 56 98q-37 33 -37 76q0 50 39 82t100 32t100 -32t39 -82q0 -43 -37 -76zM193 594q-15 0 -26 -10.5t-11 -24.5q0 -15 11.5 -26.5t27.5 -11.5t27.5 11t11.5 26q0 14 -12.5 25t-28.5 11zM192 450
q-20 0 -35 -14.5t-15 -33.5q0 -20 16 -35.5t38 -15.5q21 0 36.5 15t15.5 35t-17 34.5t-39 14.5z" />
    <glyph glyph-name="ninesuperior" unicode="&#x2079;" horiz-adv-x="389" 
d="M192 409q-13 -3 -25 -3q-54 0 -91 37t-37 91q0 62 44 102.5t112 40.5q67 0 111.5 -39.5t44.5 -98.5q0 -86 -87 -192q-45 -55 -66 -72.5t-41 -17.5q-19 0 -33.5 12.5t-14.5 29.5q0 21 40 61q21 21 43 49zM195 582q-21 0 -36 -14t-15 -33q0 -20 15 -34t36 -14t36 14t15 33
q0 20 -15 34t-36 14z" />
    <glyph glyph-name="plussuperior" unicode="&#x207a;" horiz-adv-x="336" 
d="M14 521h102v98h107v-98h100v-100h-100v-98h-107v98h-102v100z" />
    <glyph glyph-name="minussuperior" unicode="&#x207b;" horiz-adv-x="336" 
d="M14 521h309v-100h-309v100z" />
    <glyph glyph-name="parenleftsuperior" unicode="&#x207d;" horiz-adv-x="162" 
d="M106 677q16 0 29 -10.5t13 -24.5q0 -8 -5 -21q-35 -91 -35 -188t35 -188q5 -13 5 -21q0 -14 -13 -24.5t-29 -10.5q-28 0 -45 36q-41 88 -41 212q0 126 45 211q15 29 41 29z" />
    <glyph glyph-name="parenrightsuperior" unicode="&#x207e;" horiz-adv-x="162" 
d="M55 677q28 0 45 -36q41 -89 41 -212q0 -125 -45 -211q-15 -29 -41 -29q-16 0 -29 10.5t-13 24.5q0 8 5 21q35 91 35 188q0 98 -35 188q-5 13 -5 21q0 14 13 24.5t29 10.5z" />
    <glyph glyph-name="nsuperior" unicode="&#x207f;" horiz-adv-x="355" 
d="M31 324v198q0 55 50 55q32 0 44 -28q34 30 82 30t82 -28t34 -85v-142q0 -25 -7 -38q-12 -23 -42 -23q-31 0 -43 23q-7 13 -7 38v122q0 52 -47 52q-20 0 -33.5 -14t-13.5 -35v-125q0 -25 -7 -38q-12 -23 -42 -23q-31 0 -43 23q-7 13 -7 38z" />
    <glyph glyph-name="zeroinferior" unicode="&#x2080;" horiz-adv-x="389" 
d="M194 410q69 0 114 -59.5t45 -150.5t-45 -150.5t-114 -59.5q-61 0 -105 47q-53 57 -53 166q0 104 53 160q44 47 105 47zM195 315q-25 0 -39.5 -31t-14.5 -83q0 -116 54 -116q23 0 38 32.5t15 82.5q0 49 -15 82t-38 33z" />
    <glyph glyph-name="oneinferior" unicode="&#x2081;" horiz-adv-x="389" 
d="M158 314h-17q-59 0 -59 43q0 26 23 37q13 6 36 6h54q37 0 51 -13.5t14 -47.5v-282q0 -26 -7 -39q-13 -24 -44 -24t-44 24q-7 12 -7 39v257z" />
    <glyph glyph-name="twoinferior" unicode="&#x2082;" horiz-adv-x="389" 
d="M201 86h82q60 0 60 -43t-60 -43h-180q-57 0 -57 41q0 20 27 46q60 59 119 129q38 45 38 70q0 35 -37 35q-33 0 -44 -37q-9 -30 -15 -38q-11 -15 -34 -15q-48 0 -48 48q0 53 43.5 92t101.5 39q59 0 98.5 -35t39.5 -87q0 -57 -56 -121q-39 -45 -78 -81z" />
    <glyph glyph-name="threeinferior" unicode="&#x2083;" horiz-adv-x="389" 
d="M278 221q67 -35 67 -100q0 -56 -43 -93.5t-109 -37.5q-51 0 -89 23q-26 16 -44 41.5t-18 47.5q0 18 14.5 31t34.5 13q18 0 29 -11q5 -4 19 -27q17 -28 50 -28q22 0 36.5 13.5t14.5 33.5q0 36 -49 41q-53 5 -53 44q0 19 12 29q7 6 37 14q38 10 38 36q0 30 -35 30
q-25 0 -48 -25t-44 -25q-18 0 -31 13t-13 30q0 37 42.5 66.5t96.5 29.5q56 0 92.5 -31t36.5 -78q0 -50 -44 -80z" />
    <glyph glyph-name="fourinferior" unicode="&#x2084;" horiz-adv-x="389" 
d="M205 85h-119q-54 0 -54 40q0 12 5 21l124 215q26 45 72 45q29 0 48.5 -20t19.5 -50v-166h7q47 0 47 -41t-53 -44l-1 -31q-2 -60 -48 -60q-48 0 -48 60v31zM205 170v108l-60 -108h60z" />
    <glyph glyph-name="fiveinferior" unicode="&#x2085;" horiz-adv-x="389" 
d="M184 314l-6 -43q21 5 38 5q58 0 93 -35.5t35 -94.5q0 -69 -43.5 -112.5t-113.5 -43.5q-55 0 -99 25t-44 56q0 19 14 32.5t33 13.5q13 0 49 -20q22 -12 46 -12q23 0 38 17t15 43q0 52 -49 52q-16 0 -49 -15q-11 -5 -22 -5q-17 0 -29.5 11t-12.5 27q0 10 1 13l15 126
q5 46 48 46h139q60 0 60 -43q0 -26 -23 -37q-13 -6 -37 -6h-96z" />
    <glyph glyph-name="sixinferior" unicode="&#x2086;" horiz-adv-x="389" 
d="M202 258q14 3 25 3q54 0 91 -37t37 -91q0 -62 -44.5 -102.5t-112.5 -40.5q-66 0 -110.5 39.5t-44.5 98.5q0 86 87 192q45 55 65.5 72.5t40.5 17.5q19 0 33.5 -12.5t14.5 -29.5q0 -19 -18 -39l-31 -32.5t-33 -38.5zM199 180q-21 0 -36 -14t-15 -33q0 -20 15 -34t36 -14
t36 14t15 34q0 19 -15 33t-36 14z" />
    <glyph glyph-name="seveninferior" unicode="&#x2087;" horiz-adv-x="389" 
d="M218 314h-114q-60 0 -60 43q0 26 23 37q13 6 37 6h179q55 0 55 -49q0 -10 -8 -27l-137 -293q-18 -39 -51 -39q-21 0 -37 14t-16 31q0 14 6 24z" />
    <glyph glyph-name="eightinferior" unicode="&#x2088;" horiz-adv-x="389" 
d="M297 220q56 -37 56 -98q0 -58 -44.5 -95t-113.5 -37t-113.5 37t-44.5 95q0 62 56 98q-37 33 -37 76q0 50 39 82t100 32t100 -32t39 -82q0 -43 -37 -76zM193 327q-15 0 -26 -10.5t-11 -24.5q0 -15 11.5 -26.5t27.5 -11.5t27.5 11t11.5 26q0 14 -12.5 25t-28.5 11zM192 183
q-20 0 -35 -14.5t-15 -33.5q0 -20 16 -35.5t38 -15.5q21 0 36.5 15t15.5 35t-17 34.5t-39 14.5z" />
    <glyph glyph-name="nineinferior" unicode="&#x2089;" horiz-adv-x="389" 
d="M192 142q-13 -3 -25 -3q-54 0 -91 37t-37 91q0 62 44 102.5t112 40.5q67 0 111.5 -39.5t44.5 -98.5q0 -86 -87 -192q-45 -55 -66 -72.5t-41 -17.5q-19 0 -33.5 12.5t-14.5 29.5q0 21 40 61q21 21 43 49zM195 315q-21 0 -36 -14t-15 -33q0 -20 15 -34t36 -14t36 14t15 33
q0 20 -15 34t-36 14z" />
    <glyph glyph-name="lira" unicode="&#x20a4;" horiz-adv-x="641" 
d="M404 386v-49h-90q3 -5 3 -8q9 -20 14 -46h74v-49h-86q-13 -56 -74 -97l17 7q38 13 66 13t114 -28q9 -3 26 -3q49 0 95 53l55 -130q-70 -66 -148 -66q-43 0 -127 32q-55 21 -84 21q-44 0 -95 -40l-79 117q73 42 87 121h-97v49h93q-2 4 -5 11q-4 11 -23 43h-65v49h35
q-22 47 -22 82q0 43 23.5 86t62.5 72q69 51 181 51q157 0 223 -96q34 -50 40 -153h-148q-7 121 -109 121q-46 0 -75.5 -24t-29.5 -61q0 -27 27 -70q2 -2 5 -8h116z" />
    <glyph glyph-name="peseta" unicode="&#x20a7;" horiz-adv-x="689" 
d="M161 667h138q111 0 171 -56q70 -66 70 -170q0 -21 -4 -41q16 8 27 8q31 0 43 -23q7 -13 7 -38v-41h13q59 0 59 -43t-59 -43h-13v-163q0 -25 -7 -38q-12 -23 -42 -23q-31 0 -43 23q-7 13 -7 38v163q-50 0 -57 40q-52 -41 -138 -41h-116v-127q0 -43 -10 -63
q-19 -39 -66 -39t-67 38q-10 19 -10 64v463q0 63 24 87q18 18 40 22q13 3 47 3zM514 306v25q-8 -16 -15 -26q4 1 8 1h7zM203 352h77q47 0 75 24.5t28 64.5q0 41 -26 66.5t-68 25.5h-86v-181z" />
    <glyph glyph-name="Euro" unicode="&#x20ac;" horiz-adv-x="642" 
d="M90 274h-35q-34 0 -34 30t34 30h31q1 14 1 25h-32q-34 0 -34 30t34 30h40q26 123 112.5 194t210.5 71q88 0 143.5 -30t55.5 -78q0 -29 -17.5 -48.5t-44.5 -19.5q-17 0 -57 16.5t-79 16.5q-122 0 -157 -122h248q34 0 34 -30t-34 -30h-259l-1 -25h225q34 0 34 -30t-34 -30
h-220q28 -148 164 -148q29 0 42.5 4t64.5 27q18 8 34 8q26 0 44 -20.5t18 -49.5q0 -49 -57.5 -80.5t-145.5 -31.5q-133 0 -221 78t-108 213z" />
    <glyph glyph-name="aslashs" unicode="&#x2101;" horiz-adv-x="970" 
d="M294 343h-175l-11 -35q-15 -48 -53 -48q-22 0 -37.5 13t-15.5 31q0 10 9 32l118 288q21 51 77 51t77 -51l119 -288q8 -19 8 -32q0 -18 -15.5 -31t-37.5 -13q-39 0 -53 48zM262 425l-55 153l-55 -153h110zM795 410q55 0 90 -16.5t35 -42.5q0 -18 -13.5 -30.5t-32.5 -12.5
q-11 0 -36 8t-45 8q-54 0 -54 -33q0 -15 13 -23t57 -18q76 -18 109.5 -47.5t33.5 -78.5q0 -62 -47 -98t-126 -36q-67 0 -110.5 19t-43.5 48q0 18 13 31t32 13q15 0 62 -16q27 -9 52 -9q57 0 57 42q0 19 -15.5 28t-74.5 24q-67 17 -95 41t-28 71q0 56 47 92t120 36zM479 361
l109 278q18 45 50 45q20 0 34 -13.5t14 -32.5q0 -11 -9 -34l-231 -578q-18 -44 -50 -44q-19 0 -33 13.5t-14 31.5q0 13 9 35z" />
    <glyph glyph-name="liter" unicode="&#x2113;" 
d="M126 139v21q-30 -36 -40 -36q-7 0 -13 10.5t-6 23.5t27 47l40 48q71 416 217 416q39 0 63 -27.5t24 -73.5q0 -63 -43 -142q-23 -41 -40 -62.5t-86 -94.5q-2 -1 -12 -11q-21 -134 -21 -175q0 -25 13 -25t35 43q11 22 25 22q21 0 21 -25q0 -43 -36 -82t-76 -39
q-65 0 -84 70q-8 29 -8 92zM268 335q43 49 75 116t32 109q0 33 -21 33q-25 0 -44 -58t-42 -200z" />
    <glyph glyph-name="Ohm" unicode="&#x2126;" horiz-adv-x="666" 
d="M27 0v132h135q-138 86 -138 238q0 131 90 222.5t219 91.5t219 -91.5t90 -222.5q0 -151 -137 -238h134v-132h-270v122q119 62 119 220q0 89 -44 149t-111 60q-66 0 -110.5 -59.5t-44.5 -147.5q0 -160 120 -222v-122h-271z" />
    <glyph glyph-name="onethird" unicode="&#x2153;" horiz-adv-x="1089" 
d="M158 581h-17q-59 0 -59 43q0 26 23 37q13 6 36 6h54q37 0 51 -13.5t14 -47.5v-282q0 -26 -7 -39q-13 -24 -44 -24t-44 24q-7 12 -7 39v257zM521 361l109 278q18 45 50 45q19 0 33 -13.5t14 -32.5q0 -11 -9 -34l-230 -578q-18 -44 -50 -44q-19 0 -33 13.5t-14 31.5
q0 13 9 35zM978 221q66 -35 66 -100q0 -56 -43 -93.5t-109 -37.5q-51 0 -89 23q-26 16 -44 41.5t-18 47.5q0 18 14.5 31t34.5 13q18 0 29 -11q5 -4 19 -27q17 -28 50 -28q22 0 36.5 13.5t14.5 33.5q0 37 -49 41q-52 4 -52 44q0 18 12 29q6 5 37 14q37 10 37 36q0 30 -35 30
q-24 0 -50 -28q-20 -22 -41 -22q-18 0 -31 13t-13 30q0 37 42.5 66.5t96.5 29.5q55 0 91.5 -31t36.5 -78q0 -48 -43 -80z" />
    <glyph glyph-name="twothirds" unicode="&#x2154;" horiz-adv-x="1089" 
d="M201 353h82q60 0 60 -43t-60 -43h-180q-57 0 -57 41q0 20 27 46q60 59 119 129q38 45 38 70q0 35 -37 35q-33 0 -44 -37q-9 -30 -15 -38q-11 -15 -34 -15q-48 0 -48 48q0 53 43.5 92t101.5 39q59 0 98.5 -35t39.5 -87q0 -57 -56 -121q-39 -45 -78 -81zM521 361l109 278
q18 45 50 45q20 0 34 -13.5t14 -32.5q0 -11 -9 -34l-231 -578q-18 -44 -50 -44q-19 0 -33 13.5t-14 31.5q0 13 9 35zM978 221q67 -36 67 -100q0 -56 -43.5 -93.5t-108.5 -37.5q-52 0 -90 23q-26 16 -44 41.5t-18 47.5q0 18 14.5 31t34.5 13q19 0 30 -10q6 -6 19 -28
q17 -28 50 -28q22 0 36.5 13.5t14.5 33.5q0 36 -49 41q-53 5 -53 44q0 18 12 29q6 5 37 14q37 10 37 36q0 30 -35 30q-24 0 -50 -28q-20 -22 -41 -22q-18 0 -31 13t-13 30q0 37 42.5 66.5t96.5 29.5q55 0 91.5 -31t36.5 -78q0 -50 -43 -80z" />
    <glyph glyph-name="onefifth" unicode="&#x2155;" horiz-adv-x="1089" 
d="M158 581h-17q-59 0 -59 43q0 26 23 37q13 6 36 6h54q37 0 51 -13.5t14 -47.5v-282q0 -26 -7 -39q-13 -24 -44 -24t-44 24q-7 12 -7 39v257zM521 361l109 278q18 45 50 45q19 0 33 -13.5t14 -32.5q0 -11 -9 -34l-230 -578q-18 -44 -50 -44q-19 0 -33 13.5t-14 31.5
q0 13 9 35zM883 314l-5 -43q20 5 37 5q58 0 93 -35.5t35 -94.5q0 -69 -43.5 -112.5t-113.5 -43.5q-55 0 -99 25t-44 56q0 19 14 32.5t33 13.5q13 0 49 -20q22 -12 46 -12q23 0 38 17t15 43q0 52 -49 52q-16 0 -49 -15q-11 -5 -22 -5q-17 0 -29.5 11t-12.5 27q0 9 1 13
l16 126q6 46 48 46h138q60 0 60 -43q0 -26 -23 -37q-13 -6 -37 -6h-96z" />
    <glyph glyph-name="twofifths" unicode="&#x2156;" horiz-adv-x="1089" 
d="M201 353h82q60 0 60 -43t-60 -43h-180q-57 0 -57 41q0 20 27 46q60 59 119 129q38 45 38 70q0 35 -37 35q-33 0 -44 -37q-9 -30 -15 -38q-11 -15 -34 -15q-48 0 -48 48q0 53 43.5 92t101.5 39q59 0 98.5 -35t39.5 -87q0 -57 -56 -121q-39 -45 -78 -81zM521 361l109 278
q18 45 50 45q20 0 34 -13.5t14 -32.5q0 -11 -9 -34l-231 -578q-18 -44 -50 -44q-19 0 -33 13.5t-14 31.5q0 13 9 35zM883 314l-5 -43q21 5 38 5q58 0 93 -35.5t35 -94.5q0 -69 -43.5 -112.5t-113.5 -43.5q-55 0 -99 25t-44 56q0 19 14 32.5t33 13.5q13 0 49 -20
q22 -12 46 -12q23 0 38 17t15 43q0 52 -50 52q-15 0 -49 -15q-8 -5 -22 -5q-18 0 -30.5 11.5t-11.5 26.5l1 13l16 126q6 46 48 46h138q60 0 60 -43q0 -26 -23 -37q-13 -6 -37 -6h-96z" />
    <glyph glyph-name="threefifths" unicode="&#x2157;" horiz-adv-x="1089" 
d="M278 488q67 -35 67 -100q0 -56 -43 -93.5t-109 -37.5q-51 0 -89 23q-26 16 -44 41.5t-18 47.5q0 18 14.5 31t34.5 13q18 0 29 -11q5 -4 19 -27q17 -28 50 -28q22 0 36.5 13.5t14.5 33.5q0 36 -49 41q-53 5 -53 44q0 19 12 29q7 6 37 14q38 10 38 36q0 30 -35 30
q-25 0 -48 -25t-44 -25q-18 0 -31 13t-13 30q0 37 42.5 66.5t96.5 29.5q56 0 92.5 -31t36.5 -78q0 -50 -44 -80zM521 361l109 278q18 45 50 45q20 0 34 -13.5t14 -32.5q0 -11 -9 -34l-231 -578q-18 -44 -50 -44q-19 0 -33 13.5t-14 31.5q0 13 9 35zM883 314l-5 -43
q21 5 38 5q58 0 93 -35.5t35 -94.5q0 -69 -43.5 -112.5t-113.5 -43.5q-55 0 -99 25t-44 56q0 19 14 32.5t33 13.5q13 0 49 -20q22 -12 46 -12q23 0 38 17t15 43q0 52 -50 52q-15 0 -49 -15q-8 -5 -22 -5q-17 0 -30 11.5t-12 26.5l1 13l16 126q6 46 48 46h138q60 0 60 -43
q0 -26 -23 -37q-13 -6 -37 -6h-96z" />
    <glyph glyph-name="fourfifths" unicode="&#x2158;" horiz-adv-x="1089" 
d="M205 352h-119q-54 0 -54 40q0 12 5 21l124 215q26 45 72 45q29 0 48.5 -20t19.5 -50v-166h7q47 0 47 -41t-53 -44l-1 -31q0 -14 -6 -37q-12 -23 -42 -23q-48 0 -48 60v31zM205 437v108l-60 -108h60zM521 361l109 278q18 45 50 45q19 0 33 -13.5t14 -32.5q0 -11 -9 -34
l-230 -578q-18 -44 -50 -44q-19 0 -33 13.5t-14 31.5q0 13 9 35zM883 314l-5 -43q20 5 37 5q58 0 93 -35.5t35 -94.5q0 -69 -43.5 -112.5t-113.5 -43.5q-55 0 -99 25t-44 56q0 19 14 32.5t33 13.5q13 0 49 -20q22 -12 46 -12q23 0 38 17t15 43q0 52 -49 52q-16 0 -49 -15
q-11 -5 -22 -5q-17 0 -29.5 11t-12.5 27q0 9 1 13l16 126q6 46 48 46h138q60 0 60 -43q0 -26 -23 -37q-13 -6 -37 -6h-96z" />
    <glyph glyph-name="onesixth" unicode="&#x2159;" horiz-adv-x="1089" 
d="M158 581h-17q-59 0 -59 43q0 26 23 37q13 6 36 6h54q37 0 51 -13.5t14 -47.5v-282q0 -26 -7 -39q-13 -24 -44 -24t-44 24q-7 12 -7 39v257zM521 361l109 278q18 45 50 45q19 0 33 -13.5t14 -32.5q0 -11 -9 -34l-230 -578q-18 -44 -50 -44q-19 0 -33 13.5t-14 31.5
q0 13 9 35zM901 258q14 3 25 3q54 0 91 -37t37 -91q0 -62 -44.5 -102.5t-112.5 -40.5q-66 0 -110.5 39.5t-44.5 98.5q0 86 87 192q45 55 66 72.5t41 17.5q19 0 33.5 -12.5t14.5 -29.5q0 -14 -6.5 -24t-32.5 -36t-44 -50zM898 180q-21 0 -36 -14t-15 -33q0 -20 15 -34t36 -14
t36 14t15 34q0 19 -15 33t-36 14z" />
    <glyph glyph-name="fivesixths" unicode="&#x215a;" horiz-adv-x="1089" 
d="M184 581l-6 -43q21 5 38 5q58 0 93 -35.5t35 -94.5q0 -69 -43.5 -112.5t-113.5 -43.5q-55 0 -99 25t-44 56q0 19 14 32.5t33 13.5q13 0 49 -20q22 -12 46 -12q23 0 38 17t15 43q0 52 -49 52q-16 0 -49 -15q-11 -5 -22 -5q-17 0 -29.5 11t-12.5 27q0 10 1 13l15 126
q5 46 48 46h139q60 0 60 -43q0 -26 -23 -37q-13 -6 -37 -6h-96zM521 361l109 278q18 45 50 45q19 0 33 -13.5t14 -32.5q0 -11 -9 -34l-230 -578q-18 -44 -50 -44q-19 0 -33 13.5t-14 31.5q0 12 9 35zM901 258q14 3 25 3q54 0 91 -37t37 -91q0 -62 -44.5 -102.5t-112.5 -40.5
q-66 0 -110.5 39.5t-44.5 98.5q0 86 87 192q45 55 66 72.5t41 17.5q19 0 33.5 -12.5t14.5 -29.5q0 -14 -6.5 -24t-33.5 -37q-20 -20 -43 -49zM898 180q-21 0 -36 -14t-15 -33q0 -20 15 -34t36 -14t36 14t15 34q0 19 -15 33t-36 14z" />
    <glyph glyph-name="oneeighth" unicode="&#x215b;" horiz-adv-x="1089" 
d="M158 581h-17q-59 0 -59 43q0 26 23 37q13 6 36 6h54q37 0 51 -13.5t14 -47.5v-282q0 -26 -7 -39q-13 -24 -44 -24t-44 24q-7 12 -7 39v257zM521 361l109 278q18 45 50 45q19 0 33 -13.5t14 -32.5q0 -11 -9 -34l-230 -578q-18 -44 -50 -44q-19 0 -33 13.5t-14 31.5
q0 13 9 35zM995 220q57 -37 57 -98q0 -58 -44.5 -95t-113.5 -37t-113.5 37t-44.5 95q0 61 56 98q-37 33 -37 76q0 50 39 82t100 32t100 -32t39 -82q0 -43 -38 -76zM892 327q-15 0 -26 -10.5t-11 -24.5q0 -15 11.5 -26.5t27.5 -11.5t27.5 11t11.5 26q0 14 -12.5 25t-28.5 11z
M891 183q-20 0 -35 -14.5t-15 -33.5q0 -20 16 -35.5t38 -15.5q21 0 36.5 15t15.5 35t-17 34.5t-39 14.5z" />
    <glyph glyph-name="threeeighths" unicode="&#x215c;" horiz-adv-x="1089" 
d="M278 488q67 -35 67 -100q0 -56 -43 -93.5t-109 -37.5q-51 0 -89 23q-26 16 -44 41.5t-18 47.5q0 18 14.5 31t34.5 13q18 0 29 -11q5 -4 19 -27q17 -28 50 -28q22 0 36.5 13.5t14.5 33.5q0 36 -49 41q-53 5 -53 44q0 19 12 29q7 6 37 14q38 10 38 36q0 30 -35 30
q-25 0 -48 -25t-44 -25q-18 0 -31 13t-13 30q0 37 42.5 66.5t96.5 29.5q56 0 92.5 -31t36.5 -78q0 -50 -44 -80zM521 361l109 278q18 45 50 45q20 0 34 -13.5t14 -32.5q0 -11 -9 -34l-231 -578q-18 -44 -50 -44q-19 0 -33 13.5t-14 31.5q0 13 9 35zM996 220q56 -37 56 -98
q0 -58 -44.5 -95t-113.5 -37t-113.5 37t-44.5 95q0 61 57 98q-38 33 -38 76q0 50 39 82t100 32t100 -32t39 -82q0 -43 -37 -76zM892 327q-15 0 -26 -10.5t-11 -24.5q0 -15 11.5 -26.5t27.5 -11.5t27.5 11t11.5 26q0 14 -12.5 25t-28.5 11zM891 183q-20 0 -35 -14.5
t-15 -33.5q0 -20 16 -35.5t38 -15.5q21 0 36.5 15t15.5 35t-17 34.5t-39 14.5z" />
    <glyph glyph-name="fiveeighths" unicode="&#x215d;" horiz-adv-x="1089" 
d="M184 581l-6 -43q21 5 38 5q58 0 93 -35.5t35 -94.5q0 -69 -43.5 -112.5t-113.5 -43.5q-55 0 -99 25t-44 56q0 19 14 32.5t33 13.5q13 0 49 -20q22 -12 46 -12q23 0 38 17t15 43q0 52 -49 52q-16 0 -49 -15q-11 -5 -22 -5q-17 0 -29.5 11t-12.5 27q0 10 1 13l15 126
q5 46 48 46h139q60 0 60 -43q0 -26 -23 -37q-13 -6 -37 -6h-96zM521 361l109 278q18 45 50 45q19 0 33 -13.5t14 -32.5q0 -11 -9 -34l-230 -578q-18 -44 -50 -44q-19 0 -33 13.5t-14 31.5q0 12 9 35zM996 220q56 -37 56 -98q0 -58 -44.5 -95t-113.5 -37t-113.5 37t-44.5 95
q0 61 56 98q-37 34 -37 76q0 50 39 82t100 32t100 -32t39 -82q0 -43 -37 -76zM892 327q-15 0 -26 -10.5t-11 -24.5q0 -15 11.5 -26.5t27.5 -11.5t27.5 11t11.5 26q0 14 -12.5 25t-28.5 11zM891 183q-20 0 -35 -14.5t-15 -33.5q0 -20 16 -35.5t38 -15.5q21 0 36.5 15t15.5 35
t-17 34.5t-39 14.5z" />
    <glyph glyph-name="seveneighths" unicode="&#x215e;" horiz-adv-x="1089" 
d="M218 581h-114q-60 0 -60 43q0 26 23 37q13 6 37 6h179q55 0 55 -49q0 -10 -8 -27l-137 -292q-19 -40 -51 -40q-21 0 -37 14t-16 31q0 14 6 24zM629 639q18 45 50 45q20 0 34 -13.5t14 -32.5q0 -11 -9 -34l-230 -578q-18 -44 -50 -44q-19 0 -33.5 13.5t-14.5 31.5
q0 10 10 35zM995 220q57 -37 57 -98q0 -58 -44.5 -95t-113.5 -37t-113.5 37t-44.5 95q0 61 56 98q-37 33 -37 76q0 50 39 82t100 32t100 -32t39 -82q0 -43 -38 -76zM892 327q-15 0 -26 -10.5t-11 -24.5q0 -15 11.5 -26.5t27.5 -11.5t27.5 11t11.5 26q0 14 -12.5 25t-28.5 11
zM891 183q-20 0 -35 -14.5t-15 -33.5q0 -20 16 -35.5t38 -15.5q21 0 36.5 15t15.5 35t-17 34.5t-39 14.5z" />
    <glyph glyph-name="arrowleft" unicode="&#x2190;" horiz-adv-x="667" 
d="M653 363v-51h-500q15 -19 33.5 -56t18.5 -48q0 -14 -15 -14q-9 0 -23 17q-49 57 -131 103q-23 13 -23 21q0 9 16 19q57 34 79 51q32 25 68 66q7 8 14 8q15 0 15 -15q0 -29 -52 -101h500z" />
    <glyph glyph-name="arrowup" unicode="&#x2191;" horiz-adv-x="667" 
d="M360 13h-51v500q-18 -14 -55.5 -33t-48.5 -19q-14 0 -14 15q0 9 17 23q53 45 103 132q13 23 21 23q9 0 19 -17q33 -56 51 -80q24 -30 66 -67q8 -7 8 -14q0 -15 -15 -15q-29 0 -101 52v-500z" />
    <glyph glyph-name="arrowright" unicode="&#x2192;" horiz-adv-x="667" 
d="M13 310v51h500q-15 19 -33.5 56t-18.5 48q0 14 15 14q9 0 23 -17q49 -57 131 -103q23 -13 23 -21q0 -9 -16 -19q-57 -34 -79 -51q-32 -25 -68 -66q-7 -8 -14 -8q-15 0 -15 15q0 29 52 101h-500z" />
    <glyph glyph-name="arrowdown" unicode="&#x2193;" horiz-adv-x="667" 
d="M307 653h51v-500q19 16 56 34t48 18q14 0 14 -15q0 -9 -17 -23q-56 -47 -103 -131q-13 -23 -21 -23q-10 0 -19 16q-56 94 -117 147q-8 7 -8 14q0 15 15 15q29 0 101 -52v500z" />
    <glyph glyph-name="arrowboth" unicode="&#x2194;" horiz-adv-x="667" 
d="M513 310h-361q53 -71 53 -101q0 -15 -15 -15q-7 0 -24 19q-46 53 -143 110q-10 6 -10 15q0 7 21 19l2 1q86 49 132 104q14 17 22 17q15 0 15 -14q0 -11 -18.5 -47.5t-34.5 -56.5h361q-15 19 -33.5 56t-18.5 48q0 14 15 14q9 0 23 -17q49 -57 131 -103q23 -13 23 -21
q0 -9 -16 -19q-57 -34 -79 -51q-32 -25 -68 -66q-7 -8 -14 -8q-15 0 -15 15q0 29 52 101z" />
    <glyph glyph-name="arrowupdn" unicode="&#x2195;" horiz-adv-x="667" 
d="M360 513v-361q70 54 101 54q15 0 15 -15q0 -8 -19 -24q-51 -44 -110 -144q-6 -10 -15 -10q-7 0 -20 23q-46 82 -104 132q-17 15 -17 23q0 15 14 15q11 0 48 -19t56 -35v361q-20 -15 -56.5 -33.5t-47.5 -18.5q-14 0 -14 15q0 9 17 23q55 47 103 132q13 23 21 23
q9 0 19 -17q33 -56 51 -80q24 -31 66 -67q8 -7 8 -14q0 -15 -15 -15q-29 0 -101 52z" />
    <glyph glyph-name="arrowupdnbse" unicode="&#x21a8;" horiz-adv-x="667" 
d="M360 513v-361q70 54 101 54q15 0 15 -15q0 -8 -19 -24q-51 -44 -110 -144q-6 -10 -15 -10q-7 0 -20 23q-46 82 -104 132q-17 15 -17 23q0 15 14 15q11 0 48 -19t56 -35v361q-20 -15 -56.5 -33.5t-47.5 -18.5q-14 0 -14 15q0 8 17 23q57 50 106 136q11 19 18 19
q9 0 19 -17q33 -56 51 -80q24 -30 66 -67q8 -7 8 -14q0 -15 -15 -15q-29 0 -101 52zM201 -68h264v-43h-264v43z" />
    <glyph glyph-name="emptyset" unicode="&#x2205;" horiz-adv-x="618" 
d="M439 667l48 -25l-48 -88q113 -78 113 -204q0 -102 -72 -172.5t-176 -70.5q-46 0 -79 16l-63 -123l-48 25l61 122q-108 80 -108 202q0 101 71 172t173 71q39 0 81 -14zM416 502l-165 -330q32 -8 58 -8q77 0 132 54.5t55 130.5q0 47 -21.5 89t-58.5 64zM200 198l166 329
q-28 8 -54 8q-78 0 -133.5 -54.5t-55.5 -130.5q0 -90 77 -152z" />
    <glyph glyph-name="Delta" unicode="&#x2206;" horiz-adv-x="651" 
d="M8 0l238 667h157l240 -667h-635zM201 132h245l-121 375z" />
    <glyph glyph-name="intersection" unicode="&#x2229;" horiz-adv-x="628" 
d="M595 0h-152v302v86q-3 52 -20 82q-34 60 -108 60q-83 0 -114 -70q-15 -34 -15 -158v-302h-152v299q0 107 3 137q9 78 45 126q79 105 232 105q171 0 246 -124q26 -43 32 -119q3 -30 3 -125v-299z" />
    <glyph glyph-name="union" unicode="&#x222a;" horiz-adv-x="628" 
d="M34 667h152v-302v-86q3 -53 20 -82q35 -60 108 -60q83 0 114 70q15 34 15 158v302h152v-299q0 -107 -3 -137q-9 -78 -45 -126q-79 -105 -232 -105q-170 0 -246 124q-26 42 -32 119q-3 30 -3 125v299z" />
    <glyph glyph-name="contintegral" unicode="&#x222e;" 
d="M40 -240l25 144q33 -10 53 -10q43 0 53 34q5 12 5 64v62q-64 17 -106.5 75.5t-42.5 129.5q0 73 41 129.5t108 75.5v64q0 97 34 148q49 74 154 74q39 0 95 -10l-25 -144q-30 10 -55 10q-48 0 -55 -49q-1 -11 -1 -34v-58q69 -20 109.5 -76t40.5 -130q0 -73 -42.5 -130.5
t-107.5 -74.5v-71q0 -106 -32 -156q-49 -77 -166 -77q-44 0 -85 10zM323 396v-271q83 37 83 135q0 46 -23 83.5t-60 52.5zM176 125v270q-37 -14 -59.5 -51.5t-22.5 -82.5q0 -46 22.5 -83t59.5 -53z" />
    <glyph glyph-name="equivalence" unicode="&#x2261;" 
d="M33 610h433v-140h-433v140zM33 403h433v-140h-433v140zM33 197h433v-140h-433v140z" />
    <glyph glyph-name="house" unicode="&#x2302;" horiz-adv-x="751" 
d="M84 0v401l291 328l292 -328v-401h-583zM135 51h481v328l-241 270l-240 -270v-328z" />
    <glyph glyph-name="turnednot" unicode="&#x2319;" 
d="M189 292v-152h277v-140h-433v292h156z" />
    <glyph glyph-name="integraltp" unicode="&#x2320;" 
d="M331 -250h-163v684q0 110 2 136q1 23 9 53q16 59 67 93t125 34q37 0 88 -10l-25 -144q-23 10 -44 10q-40 0 -54 -34q-5 -12 -5 -60v-762z" />
    <glyph glyph-name="integralbt" unicode="&#x2321;" 
d="M169 750h163v-684q0 -110 -1.5 -134.5t-9.5 -54.5q-16 -59 -67 -93t-125 -34q-37 0 -88 10l25 143q24 -9 44 -9q41 0 54 34q5 13 5 60v762z" />
    <glyph glyph-name="SF100000" unicode="&#x2500;" horiz-adv-x="1000" 
d="M0 217v66h1000v-66h-1000z" />
    <glyph glyph-name="SF110000" unicode="&#x2502;" horiz-adv-x="1000" 
d="M467 -250v1000h66v-1000h-66z" />
    <glyph glyph-name="SF010000" unicode="&#x250c;" horiz-adv-x="1000" 
d="M1000 283v-66h-467v-467h-66v533h533z" />
    <glyph glyph-name="SF030000" unicode="&#x2510;" horiz-adv-x="1000" 
d="M467 217h-467v66h533v-533h-66v467z" />
    <glyph glyph-name="SF020000" unicode="&#x2514;" horiz-adv-x="1000" 
d="M533 283h467v-66h-533v533h66v-467z" />
    <glyph glyph-name="SF040000" unicode="&#x2518;" horiz-adv-x="1000" 
d="M0 217v66h467v467h66v-533h-533z" />
    <glyph glyph-name="SF080000" unicode="&#x251c;" horiz-adv-x="1000" 
d="M533 283h467v-66h-467v-467h-66v1000h66v-467z" />
    <glyph glyph-name="SF090000" unicode="&#x2524;" horiz-adv-x="1000" 
d="M467 217h-467v66h467v467h66v-1000h-66v467z" />
    <glyph glyph-name="SF060000" unicode="&#x252c;" horiz-adv-x="1000" 
d="M533 217v-467h-66v467h-467v66h1000v-66h-467z" />
    <glyph glyph-name="SF070000" unicode="&#x2534;" horiz-adv-x="1000" 
d="M467 283v467h66v-467h467v-66h-1000v66h467z" />
    <glyph glyph-name="SF050000" unicode="&#x253c;" horiz-adv-x="1000" 
d="M467 217h-467v66h467v467h66v-467h467v-66h-467v-467h-66v467z" />
    <glyph glyph-name="SF430000" unicode="&#x2550;" horiz-adv-x="1000" 
d="M0 151v66h1000v-66h-1000zM0 283v66h1000v-66h-1000z" />
    <glyph glyph-name="SF240000" unicode="&#x2551;" horiz-adv-x="1000" 
d="M401 -250v1000h66v-1000h-66zM533 -250v1000h66v-1000h-66z" />
    <glyph glyph-name="SF510000" unicode="&#x2552;" horiz-adv-x="1000" 
d="M467 -250v599h533v-66h-467v-66h467v-66h-467v-401h-66z" />
    <glyph glyph-name="SF520000" unicode="&#x2553;" horiz-adv-x="1000" 
d="M533 217h-66v-467h-66v533h599v-66h-401v-467h-66v467z" />
    <glyph glyph-name="SF390000" unicode="&#x2554;" horiz-adv-x="1000" 
d="M467 283v-533h-66v599h599v-66h-533zM599 151v-401h-66v467h467v-66h-401z" />
    <glyph glyph-name="SF220000" unicode="&#x2555;" horiz-adv-x="1000" 
d="M467 151h-467v66h467v66h-467v66h533v-599h-66v401z" />
    <glyph glyph-name="SF210000" unicode="&#x2556;" horiz-adv-x="1000" 
d="M467 217v-467h-66v467h-401v66h599v-533h-66v467h-66z" />
    <glyph glyph-name="SF250000" unicode="&#x2557;" horiz-adv-x="1000" 
d="M533 283h-533v66h599v-599h-66v533zM401 151h-401v66h467v-467h-66v401z" />
    <glyph glyph-name="SF500000" unicode="&#x2558;" horiz-adv-x="1000" 
d="M467 750h66v-401h467v-66h-467v-66h467v-66h-533v599z" />
    <glyph glyph-name="SF490000" unicode="&#x2559;" horiz-adv-x="1000" 
d="M533 283v467h66v-467h401v-66h-599v533h66v-467h66z" />
    <glyph glyph-name="SF380000" unicode="&#x255a;" horiz-adv-x="1000" 
d="M467 217h533v-66h-599v599h66v-533zM599 349h401v-66h-467v467h66v-401z" />
    <glyph glyph-name="SF280000" unicode="&#x255b;" horiz-adv-x="1000" 
d="M467 349v401h66v-599h-533v66h467v66h-467v66h467z" />
    <glyph glyph-name="SF270000" unicode="&#x255c;" horiz-adv-x="1000" 
d="M467 283h66v467h66v-533h-599v66h401v467h66v-467z" />
    <glyph glyph-name="SF260000" unicode="&#x255d;" horiz-adv-x="1000" 
d="M533 217v533h66v-599h-599v66h533zM401 349v401h66v-467h-467v66h401z" />
    <glyph glyph-name="SF360000" unicode="&#x255e;" horiz-adv-x="1000" 
d="M467 750h66v-401h467v-66h-467v-66h467v-66h-467v-401h-66v1000z" />
    <glyph glyph-name="SF370000" unicode="&#x255f;" horiz-adv-x="1000" 
d="M599 217v-467h-66v1000h66v-467h401v-66h-401zM467 -250h-66v1000h66v-1000z" />
    <glyph glyph-name="SF420000" unicode="&#x2560;" horiz-adv-x="1000" 
d="M401 -250v1000h66v-1000h-66zM599 349h401v-66h-467v467h66v-401zM599 151v-401h-66v467h467v-66h-401z" />
    <glyph glyph-name="SF190000" unicode="&#x2561;" horiz-adv-x="1000" 
d="M467 349v401h66v-1000h-66v401h-467v66h467v66h-467v66h467z" />
    <glyph glyph-name="SF200000" unicode="&#x2562;" horiz-adv-x="1000" 
d="M401 217h-401v66h401v467h66v-1000h-66v467zM533 -250v1000h66v-1000h-66z" />
    <glyph glyph-name="SF230000" unicode="&#x2563;" horiz-adv-x="1000" 
d="M599 -250h-66v1000h66v-1000zM401 349v401h66v-467h-467v66h401zM401 151h-401v66h467v-467h-66v401z" />
    <glyph glyph-name="SF470000" unicode="&#x2564;" horiz-adv-x="1000" 
d="M0 349h1000v-66h-1000v66zM467 151h-467v66h1000v-66h-467v-401h-66v401z" />
    <glyph glyph-name="SF480000" unicode="&#x2565;" horiz-adv-x="1000" 
d="M401 217h-401v66h1000v-66h-401v-467h-66v467h-66v-467h-66v467z" />
    <glyph glyph-name="SF410000" unicode="&#x2566;" horiz-adv-x="1000" 
d="M0 349h1000v-66h-1000v66zM599 151v-401h-66v467h467v-66h-401zM401 151h-401v66h467v-467h-66v401z" />
    <glyph glyph-name="SF450000" unicode="&#x2567;" horiz-adv-x="1000" 
d="M0 151v66h1000v-66h-1000zM467 349v401h66v-401h467v-66h-1000v66h467z" />
    <glyph glyph-name="SF460000" unicode="&#x2568;" horiz-adv-x="1000" 
d="M0 217v66h401v467h66v-467h66v467h66v-467h401v-66h-1000z" />
    <glyph glyph-name="SF400000" unicode="&#x2569;" horiz-adv-x="1000" 
d="M0 151v66h1000v-66h-1000zM599 349h401v-66h-467v467h66v-401zM401 349v401h66v-467h-467v66h401z" />
    <glyph glyph-name="SF540000" unicode="&#x256a;" horiz-adv-x="1000" 
d="M467 217v66h-467v66h467v401h66v-401h467v-66h-467v-66h467v-66h-467v-401h-66v401h-467v66h467z" />
    <glyph glyph-name="SF530000" unicode="&#x256b;" horiz-adv-x="1000" 
d="M401 217h-401v66h401v467h66v-467h66v467h66v-467h401v-66h-401v-467h-66v467h-66v-467h-66v467z" />
    <glyph glyph-name="SF440000" unicode="&#x256c;" horiz-adv-x="1000" 
d="M599 349h401v-66h-467v467h66v-401zM401 349v401h66v-467h-467v66h401zM599 151v-401h-66v467h467v-66h-401zM401 151h-401v66h467v-467h-66v401z" />
    <glyph glyph-name="upblock" unicode="&#x2580;" horiz-adv-x="1000" 
d="M0 250v500h1000v-500h-1000z" />
    <glyph glyph-name="dnblock" unicode="&#x2584;" horiz-adv-x="1000" 
d="M0 -250v500h1000v-500h-1000z" />
    <glyph glyph-name="block" unicode="&#x2588;" horiz-adv-x="1000" 
d="M0 -250v1000h1000v-1000h-1000z" />
    <glyph glyph-name="lfblock" unicode="&#x258c;" horiz-adv-x="1000" 
d="M0 -250v1000h500v-1000h-500z" />
    <glyph glyph-name="rtblock" unicode="&#x2590;" horiz-adv-x="1000" 
d="M500 -250v1000h500v-1000h-500z" />
    <glyph glyph-name="ltshade" unicode="&#x2591;" horiz-adv-x="1000" 
d="M0 750h100v-100h-100v100zM200 750h100v-100h-100v100zM800 750h100v-100h-100v100zM400 750h100v-100h-100v100zM600 750h100v-100h-100v100zM0 550h100v-100h-100v100zM0 350h100v-100h-100v100zM0 150h100v-100h-100v100zM0 -50h100v-100h-100v100zM200 550h100v-100
h-100v100zM200 350h100v-100h-100v100zM200 150h100v-100h-100v100zM200 -50h100v-100h-100v100zM400 550h100v-100h-100v100zM400 350h100v-100h-100v100zM400 150h100v-100h-100v100zM400 -50h100v-100h-100v100zM600 550h100v-100h-100v100zM600 350h100v-100h-100v100z
M600 150h100v-100h-100v100zM600 -50h100v-100h-100v100zM800 550h100v-100h-100v100zM800 350h100v-100h-100v100zM800 150h100v-100h-100v100zM800 -50h100v-100h-100v100z" />
    <glyph glyph-name="shade" unicode="&#x2592;" horiz-adv-x="1000" 
d="M0 750h100v-100h-100v100zM200 750h100v-100h-100v100zM800 750h100v-100h-100v100zM400 750h100v-100h-100v100zM600 750h100v-100h-100v100zM100 650h100v-100h-100v100zM300 650h100v-100h-100v100zM500 650h100v-100h-100v100zM700 650h100v-100h-100v100zM900 650
h100v-100h-100v100zM0 -50h100v-100h-100v100zM200 -50h100v-100h-100v100zM800 -50h100v-100h-100v100zM400 -50h100v-100h-100v100zM600 -50h100v-100h-100v100zM100 -150h100v-100h-100v100zM300 -150h100v-100h-100v100zM500 -150h100v-100h-100v100zM700 -150h100v-100
h-100v100zM900 -150h100v-100h-100v100zM0 150h100v-100h-100v100zM200 150h100v-100h-100v100zM800 150h100v-100h-100v100zM400 150h100v-100h-100v100zM600 150h100v-100h-100v100zM100 50h100v-100h-100v100zM300 50h100v-100h-100v100zM500 50h100v-100h-100v100z
M700 50h100v-100h-100v100zM900 50h100v-100h-100v100zM0 350h100v-100h-100v100zM200 350h100v-100h-100v100zM800 350h100v-100h-100v100zM400 350h100v-100h-100v100zM600 350h100v-100h-100v100zM100 250h100v-100h-100v100zM300 250h100v-100h-100v100zM500 250h100
v-100h-100v100zM700 250h100v-100h-100v100zM900 250h100v-100h-100v100zM0 550h100v-100h-100v100zM200 550h100v-100h-100v100zM800 550h100v-100h-100v100zM400 550h100v-100h-100v100zM600 550h100v-100h-100v100zM100 450h100v-100h-100v100zM300 450h100v-100h-100
v100zM500 450h100v-100h-100v100zM700 450h100v-100h-100v100zM900 450h100v-100h-100v100z" />
    <glyph glyph-name="dkshade" unicode="&#x2593;" horiz-adv-x="1000" 
d="M1000 -250h-1000v100h100v100h-100v100h100v100h-100v100h100v100h-100v100h100v100h-100v100h100v100h100v-100h100v100h100v-100h100v100h100v-100h100v100h100v-100h100v100h100v-1000zM900 550h-100v-100h100v100zM700 550h-100v-100h100v100zM500 550h-100v-100h100
v100zM300 550h-100v-100h100v100zM900 350h-100v-100h100v100zM700 350h-100v-100h100v100zM500 350h-100v-100h100v100zM300 350h-100v-100h100v100zM900 150h-100v-100h100v100zM700 150h-100v-100h100v100zM500 150h-100v-100h100v100zM300 150h-100v-100h100v100z
M900 -50h-100v-100h100v100zM700 -50h-100v-100h100v100zM500 -50h-100v-100h100v100zM300 -50h-100v-100h100v100z" />
    <glyph glyph-name="filledbox" unicode="&#x25a0;" horiz-adv-x="667" 
d="M667 0h-667v667h667v-667z" />
    <glyph glyph-name="outlinedbox" unicode="&#x25a1;" horiz-adv-x="667" 
d="M667 0h-667v667h667v-667zM620 47v573h-573v-573h573z" />
    <glyph glyph-name="triagup" unicode="&#x25b2;" 
d="M466 147h-433l217 405z" />
    <glyph glyph-name="triagrt" unicode="&#x25b6;" 
d="M71 119v433l405 -217z" />
    <glyph glyph-name="triagdn" unicode="&#x25bc;" 
d="M33 520h433l-216 -405z" />
    <glyph glyph-name="triaglt" unicode="&#x25c0;" 
d="M428 552v-433l-405 216z" />
    <glyph glyph-name="diamondrhombsolid" unicode="&#x25c6;" horiz-adv-x="667" 
d="M333 693q22 -47 111.5 -173t142.5 -186q-160 -190 -254 -360q-71 135 -253 360q180 226 253 359z" />
    <glyph glyph-name="diamondrhomb" unicode="&#x25c7;" horiz-adv-x="667" 
d="M334 693l259 -359l-259 -360l-260 360zM334 604l-197 -270l197 -271l197 271z" />
    <glyph glyph-name="circle" unicode="&#x25cb;" horiz-adv-x="667" 
d="M334 589q107 0 183.5 -75t76.5 -180q0 -106 -76.5 -181.5t-183.5 -75.5q-109 0 -185 75.5t-76 184.5q0 103 77.5 177.5t183.5 74.5zM334 543q-88 0 -151 -61t-63 -146q0 -89 62 -151t152 -62q88 0 150.5 62t62.5 149q0 86 -62.5 147.5t-150.5 61.5z" />
    <glyph glyph-name="invbullet" unicode="&#x25d8;" horiz-adv-x="667" 
d="M0 0v667h667v-667h-667zM336 473q-58 0 -99 -40.5t-41 -99.5q0 -57 40.5 -98t97.5 -41q56 0 96.5 41t40.5 99q0 56 -40 97.5t-95 41.5z" />
    <glyph glyph-name="invcircle" unicode="&#x25d9;" horiz-adv-x="667" 
d="M667 0h-667v667h667v-667zM334 590q-107 0 -184 -74.5t-77 -177.5q0 -109 76 -185t185 -76q107 0 183.5 75.5t76.5 181.5t-76.5 181t-183.5 75zM334 543q88 0 150.5 -61.5t62.5 -147.5q0 -87 -62.5 -149t-150.5 -62q-90 0 -152 62t-62 151q0 85 63 146t151 61z" />
    <glyph glyph-name="smileface" unicode="&#x263a;" horiz-adv-x="667" 
d="M339 650q127 0 219 -93.5t92 -222.5q0 -131 -93 -224t-224 -93t-223.5 93t-92.5 226q0 131 94 222.5t228 91.5zM338 608q-126 0 -208 -91q-71 -79 -71 -181q0 -116 80 -196.5t195 -80.5q114 0 194.5 80.5t80.5 194.5q0 112 -80.5 193t-190.5 81zM240 466q17 0 30 -13
t13 -31t-13 -31t-31 -13t-31 13t-13 31t13 31t32 13zM434 466q18 0 31 -13t13 -31q0 -19 -13 -32t-31 -13q-19 0 -32 13t-13 32q0 18 13 31t32 13zM540 372q-7 -106 -50 -161q-56 -70 -156 -70q-108 0 -164 83q-34 51 -42 148q13 -59 50 -97q60 -62 156 -62q105 0 165 71
q29 34 41 88z" />
    <glyph glyph-name="invsmileface" unicode="&#x263b;" horiz-adv-x="667" 
d="M339 650q127 0 219 -93.5t92 -222.5q0 -131 -93 -224t-224 -93t-223.5 93t-92.5 226q0 131 94 222.5t228 91.5zM240 466q-18 0 -31 -13t-13 -31t12.5 -31t30.5 -13t31 13t13 31t-13 31t-30 13zM434 466q-19 0 -32 -13t-13 -31q0 -19 13 -32t31 -13t31 13t13 32
q0 18 -13 31t-30 13zM540 372q-13 -55 -41 -88q-60 -71 -165 -71q-103 0 -164 71q-29 34 -42 88q8 -107 51 -161q56 -70 155 -70q110 0 165 83q35 52 41 148z" />
    <glyph glyph-name="sun" unicode="&#x263c;" horiz-adv-x="667" 
d="M159 472l-75 75l35 35l75 -74q50 41 114 47v105h50v-105q64 -6 113 -47l75 74l35 -35l-74 -75q38 -46 47 -113h105v-51h-105q-9 -64 -47 -113l74 -75l-35 -35l-75 74q-50 -40 -113 -47v-105h-50v105q-58 6 -114 47l-75 -74l-35 35l74 74q-40 49 -46 114h-105v51h105
q7 63 47 113zM336 493q-68 0 -115.5 -46t-47.5 -112q0 -67 46.5 -114t113.5 -47q65 0 112 47t47 113q0 64 -46.5 111.5t-109.5 47.5z" />
    <glyph glyph-name="female" unicode="&#x2640;" horiz-adv-x="667" 
d="M308 209v105q-68 10 -111.5 61.5t-43.5 120.5q0 76 52.5 129.5t126.5 53.5q75 0 128 -53.5t53 -129.5q0 -70 -44 -120.5t-113 -61.5v-105h163v-43h-163v-166h-48v166h-161v43h161zM335 632q-56 0 -95.5 -39.5t-39.5 -96.5q0 -56 39 -96t94 -40t94 40t39 96q0 55 -39 95.5
t-92 40.5z" />
    <glyph glyph-name="male" unicode="&#x2642;" horiz-adv-x="667" 
d="M570 499l-152 -151q36 -48 36 -110q0 -76 -53 -129.5t-127 -53.5t-127 53.5t-53 129.5t53 129.5t127 53.5q61 0 112 -39l151 151q-55 13 -106 40q-21 11 -21 23t13 12q17 0 51 -6t52 -6q56 0 93 10q19 5 23 5q10 0 10 -10q0 -5 -5 -23q-11 -39 -11 -87q0 -38 9 -84
q3 -16 3 -20q0 -13 -12 -13q-9 0 -23 21q-31 47 -43 104zM276 374q-56 0 -95.5 -39.5t-39.5 -96.5q0 -56 39 -95.5t94 -39.5t94 39.5t39 95.5q0 55 -39 95.5t-92 40.5z" />
    <glyph glyph-name="spade" unicode="&#x2660;" horiz-adv-x="667" 
d="M108 0v18q71 14 103 29t62 49q52 59 56 159q-5 -11 -13 -27q-20 -34 -56 -54.5t-76 -20.5q-49 0 -84.5 37t-35.5 88q0 83 104 169q142 118 164 239q26 -80 51.5 -117t99 -104.5t97.5 -104.5t24 -83q0 -52 -35.5 -87.5t-86.5 -35.5q-84 0 -140 101q6 -108 58.5 -163
t167.5 -74v-18h-460z" />
    <glyph glyph-name="club" unicode="&#x2663;" horiz-adv-x="667" 
d="M561 0h-455v18q221 31 221 256q-21 -35 -34 -52q-59 -75 -146 -75q-59 0 -101.5 45t-42.5 107t38.5 104.5t93.5 42.5q28 0 86 -29q-35 53 -35 100q0 59 43.5 101t104.5 42t104 -42t43 -101q0 -47 -35 -100q58 29 86 29q55 0 93.5 -43t38.5 -104q0 -64 -42.5 -108
t-103.5 -44q-83 0 -140 69q-13 16 -38 58q3 -122 59 -182q30 -33 61 -46.5t101 -27.5v-18z" />
    <glyph glyph-name="heart" unicode="&#x2665;" horiz-adv-x="667" 
d="M332 -11q-16 67 -52 129t-134 192q-54 72 -72 111.5t-18 83.5q0 56 37.5 95t91.5 39q75 0 120 -68q14 -21 27 -62q37 131 147 131q54 0 93 -38.5t39 -92.5q0 -50 -24.5 -101t-85.5 -128q-143 -180 -169 -291z" />
    <glyph glyph-name="diamond" unicode="&#x2666;" horiz-adv-x="667" 
d="M333 693q22 -47 111.5 -173t142.5 -186q-160 -190 -254 -360q-71 135 -253 360q180 226 253 359z" />
    <glyph glyph-name="musicalnote" unicode="&#x266a;" horiz-adv-x="667" 
d="M306 156v511h46v-61l15 -18l52 -63q91 -110 91 -225q0 -91 -57 -162h-28q33 77 33 149q0 65 -31.5 116t-74.5 57v-304q0 -72 -42.5 -118.5t-109.5 -46.5q-69 0 -69 61q0 45 36.5 80t84.5 35q29 0 54 -11z" />
    <glyph glyph-name="musicalnotedbl" unicode="&#x266b;" horiz-adv-x="667" 
d="M616 694v-502q0 -47 -17 -81q-19 -38 -55.5 -61t-79.5 -23q-68 0 -68 61q0 45 36.5 80t83.5 35q30 0 54 -11v270l-329 -90v-236q0 -61 -29 -101q-45 -63 -123 -63q-69 0 -69 60q0 45 36.5 79.5t84.5 34.5q27 0 54 -10v451zM241 448l329 90v70l-329 -90v-70z" />
    <glyph glyph-name="nmacron" unicode="&#xe00c;" horiz-adv-x="545" 
d="M43 91v337q0 39 20.5 62.5t54.5 23.5q48 0 68 -51q58 54 135 54q78 0 129.5 -45t51.5 -140v-241q0 -42 -10 -61q-19 -37 -63 -37q-45 0 -64 37q-10 19 -10 61v206q0 43 -22 68t-60 25q-35 0 -59 -25t-24 -62v-212q0 -42 -10 -61q-19 -37 -63 -37q-45 0 -64 37
q-10 19 -10 61zM396 576h-227q-28 0 -42 7q-25 12 -25 43t25 43q14 7 42 7h227q19 0 29 -3q37 -7 37 -47t-39 -48q-8 -2 -27 -2z" />
    <glyph glyph-name="ahungarumlaut" unicode="&#xeb01;" horiz-adv-x="560" 
d="M518 439v-359q0 -39 -20.5 -63t-53.5 -24q-52 0 -74 58q-28 -34 -54 -47.5t-67 -13.5q-81 0 -145 56q-87 77 -87 210q0 118 77 194q68 67 153 67q68 0 125 -58q23 55 73 55q31 0 52 -21.5t21 -53.5zM265 380q-45 0 -73 -34.5t-28 -90.5q0 -58 28 -93t74 -35q45 0 73 35.5
t28 91.5t-28 91t-74 35zM363 687l-99 -139h-76l53 139h122zM528 687l-99 -139h-77l54 139h122z" />
    <glyph glyph-name="Dbreve" unicode="&#xeb06;" horiz-adv-x="637" 
d="M47 113v442q0 63 24 87q18 18 40 22q13 3 47 3h125q132 0 214 -61q58 -43 90.5 -116t32.5 -161q0 -149 -87 -240t-227 -89l-149 2q-39 1 -55 5.5t-31 19.5q-24 24 -24 86zM200 133h76q88 0 134.5 52t46.5 149q0 103 -61 158q-45 41 -138 41h-58v-400zM207 872
q15 0 39 -23q37 -36 83 -36q39 0 73 27q39 31 55 31q18 0 32 -15.5t14 -35.5q0 -36 -56.5 -69t-117.5 -33q-62 0 -118 33t-56 70q0 22 15 36.5t37 14.5z" />
    <glyph glyph-name="ocommaaccent" unicode="&#xeb15;" horiz-adv-x="526" 
d="M263 517q107 0 180 -80q66 -72 66 -184t-70.5 -187.5t-174.5 -75.5q-108 0 -181 80q-66 73 -66 187q0 109 71 184.5t175 75.5zM260 380q-41 0 -69.5 -36t-28.5 -89q0 -55 28 -91.5t71 -36.5t73 37t30 90t-30.5 89.5t-73.5 36.5zM323 -58v-58q0 -79 -50 -103
q-21 -10 -80 -18v46q4 1 8 1l34 6q28 5 31 43h-69v83h126z" />
    <glyph glyph-name="Sbreve" unicode="&#xeb1e;" horiz-adv-x="534" 
d="M278 684q80 0 131.5 -28t51.5 -71q0 -30 -19.5 -50.5t-48.5 -20.5q-15 0 -51.5 13.5t-69.5 13.5t-55 -15.5t-22 -39.5t21 -38q14 -10 24.5 -13.5t57.5 -16.5q111 -30 160.5 -80t49.5 -131q0 -92 -57 -153q-67 -71 -197 -71q-100 0 -163.5 31.5t-63.5 81.5q0 30 19.5 51.5
t46.5 21.5q19 0 92 -28q39 -15 75 -15q38 0 61 19.5t23 50.5t-25 47t-107 41q-100 30 -137 66q-43 42 -43 121q0 93 69.5 153t176.5 60zM152 872q15 0 39 -23q37 -36 83 -36q39 0 73 27q39 31 55 31q18 0 32 -15.5t14 -35.5q0 -36 -56.5 -69t-117.5 -33q-62 0 -118 33
t-56 70q0 22 15 36.5t37 14.5z" />
    <glyph glyph-name="Tcaron_1" unicode="&#xeb22;" horiz-adv-x="730" 
d="M320 530v-438q0 -44 -10 -64q-19 -38 -66 -38t-67 38q-10 19 -10 64v438h-76q-39 0 -57 9q-34 17 -34 60q0 42 34 59q18 9 57 9h302q39 0 57 -9q34 -17 34 -59q0 -43 -34 -60q-18 -9 -57 -9h-73zM506 513l81 141q17 30 52 30q26 0 45 -19t19 -44q0 -16 -7 -28l-79 -141
q-17 -31 -53 -31q-28 0 -47 18t-19 44q0 16 8 30z" />
    <glyph glyph-name="tcaron_1" unicode="&#xeb23;" horiz-adv-x="354" 
d="M238 374v-283q0 -42 -10 -61q-19 -37 -63 -37q-45 0 -64 37q-10 19 -10 61v283q-56 0 -73.5 21.5t-17.5 44.5q0 56 57 65q13 2 34 2v76q0 41 10 60q19 37 64 37q44 0 63 -37q10 -19 10 -60v-76h27q39 0 56 -9q33 -17 33 -57q0 -41 -33 -58q-17 -9 -56 -9h-27zM167 827
l119 42q3 2 11 2q22 0 37.5 -15.5t15.5 -35.5q0 -35 -39 -48l-127 -43q-15 -5 -18 -5q-5 0 -19 5l-130 47q-33 12 -33 46q0 20 15 36t34 16q8 0 21 -5z" />
    <glyph glyph-name="ucommaaccent" unicode="&#xeb26;" horiz-adv-x="542" 
d="M499 416v-218q0 -76 -36 -121q-70 -87 -192 -87t-192 87q-36 45 -36 121v218q0 42 10 61q19 37 64 37q44 0 63 -37q10 -20 10 -61v-200q0 -41 23.5 -63.5t57.5 -22.5t57.5 22.5t23.5 63.5v200q0 42 10 61q19 37 64 37q44 0 63 -37q10 -20 10 -61zM330 -58v-58
q0 -64 -26 -88t-105 -33v46q4 1 9 1q39 5 50 13.5t15 35.5h-69v83h126z" />
    <glyph glyph-name="yhungarumlaut" unicode="&#xeb2b;" horiz-adv-x="497" 
d="M247 227l86 217q15 39 32.5 54.5t45.5 15.5q31 0 53 -21t22 -50q0 -20 -15 -56l-223 -534q-16 -38 -32.5 -52.5t-45.5 -14.5t-51 21t-22 49q0 20 15 55l58 135l-145 343q-15 35 -15 55q0 28 22 49t52 21q28 0 45 -15t32 -54zM324 687l-99 -139h-77l54 139h122zM488 687
l-98 -139h-77l54 139h121z" />
    <glyph glyph-name="dcaron_1" unicode="&#xeb30;" horiz-adv-x="554" 
d="M364 471v165q0 42 10 61q19 37 64 37q44 0 63 -37q10 -20 10 -61v-559q0 -84 -74 -84q-50 0 -71 58q-45 -61 -127 -61q-104 0 -168 92q-55 79 -55 175q0 58 24.5 114.5t65.5 91.5q62 54 139 54q63 0 119 -46zM265 387q-43 0 -72.5 -36.5t-29.5 -88.5q0 -56 29 -92t73 -36
q43 0 71.5 36.5t28.5 90.5q0 53 -28.5 89.5t-71.5 36.5zM438 867l118 42q4 2 12 2q21 0 36.5 -15.5t15.5 -35.5q0 -35 -38 -48l-127 -43q-15 -5 -19 -5t-18 5l-131 47q-33 12 -33 46q0 20 15.5 36t34.5 16q6 0 20 -5z" />
    <glyph glyph-name="Lcaron_1" unicode="&#xeb31;" horiz-adv-x="414" 
d="M200 137h143q39 0 57 -9q34 -17 34 -59q0 -43 -34 -60q-18 -9 -57 -9h-181q-36 0 -48 2q-24 5 -42 23t-23 42q-2 13 -2 49v459q0 44 10 64q19 38 67 38q46 0 66 -38q10 -19 10 -64v-438zM253 513l81 141q17 30 52 30q26 0 45 -19t19 -44q0 -14 -8 -28l-78 -141
q-17 -31 -53 -31q-28 0 -47 18t-19 44q0 16 8 30z" />
    <glyph glyph-name="Commaaccent" unicode="&#xeb86;" horiz-adv-x="179" 
d="M-45 513l81 141q17 30 52 30q26 0 45 -19t19 -44q0 -16 -7 -28l-79 -141q-17 -31 -53 -31q-28 0 -47 18t-19 44q0 16 8 30z" />
    <glyph glyph-name="commaaccent" unicode="&#xeb87;" horiz-adv-x="179" 
d="M-45 513l81 141q17 30 52 30q26 0 45 -19t19 -44q0 -16 -7 -28l-79 -141q-17 -31 -53 -31q-28 0 -47 18t-19 44q0 16 8 30z" />
    <glyph glyph-name="Slashstroke" unicode="&#xeb9e;" 
d="M410 532v-113l-321 -212v113z" />
    <glyph glyph-name="slashstroke" unicode="&#xeb9f;" 
d="M377 490v-99l-254 -164v99z" />
    <glyph glyph-name="Dieresisnarrow" unicode="&#xebce;" 
d="M170 859q25 0 43 -18.5t18 -43.5q0 -28 -17.5 -49.5t-40.5 -21.5q-25 0 -43.5 21t-18.5 49q0 26 17.5 44.5t41.5 18.5zM329 859q25 0 43 -18.5t18 -43.5q0 -28 -17.5 -49.5t-40.5 -21.5q-25 0 -43.5 21t-18.5 49q0 26 17.5 44.5t41.5 18.5z" />
    <glyph glyph-name="dieresisnarrow" unicode="&#xebcf;" 
d="M153 699q28 0 47.5 -20t19.5 -49q0 -30 -19.5 -54t-44.5 -24q-27 0 -47.5 23.5t-20.5 53.5q0 28 19.5 49t45.5 21zM348 699q28 0 47.5 -20t19.5 -49q0 -30 -19.5 -54t-44.5 -24q-27 0 -47.5 23.5t-20.5 53.5q0 28 19.5 49t45.5 21z" />
    <glyph glyph-name="Pts" unicode="&#xec00;" horiz-adv-x="976" 
d="M161 667h138q111 0 171 -56q70 -66 70 -170q0 -21 -4 -41q16 8 27 8q31 0 43 -23q7 -13 7 -38v-41h13q59 0 59 -43t-59 -43h-13v-163q0 -25 -7 -38q-12 -23 -42 -23q-31 0 -43 23q-7 13 -7 38v163q-50 0 -57 40q-52 -41 -138 -41h-116v-127q0 -43 -10 -63
q-19 -39 -66 -39t-67 38q-10 19 -10 64v463q0 63 24 87q18 18 40 22q13 3 47 3zM514 306v25q-8 -16 -15 -26q4 1 8 1h7zM203 352h77q47 0 75 24.5t28 64.5q0 41 -26 66.5t-68 25.5h-86v-181zM842 312q43 0 75 -19t32 -44q0 -16 -12 -28.5t-28 -12.5q-10 0 -39 12
q-22 9 -34 9q-20 0 -20 -12q0 -7 7 -11t38 -16q52 -19 73.5 -40.5t21.5 -54.5q0 -44 -34.5 -72.5t-89.5 -28.5q-49 0 -85 20t-36 46q0 16 13 29t29 13q10 0 48 -16q21 -9 36 -9q22 0 22 17q0 7 -8 11.5t-50 19.5q-81 29 -81 89q0 42 35 70t87 28z" />
    <glyph glyph-name="peseta2" unicode="&#xec01;" horiz-adv-x="677" 
d="M59 0v422h-74v49h74v196h266q91 0 139.5 -14t83.5 -51q48 -50 58 -131h67v-49h-67q-8 -73 -48 -120q-61 -73 -191 -73h-147v-229h-161zM220 471h227q-12 33 -33.5 49.5t-75.5 16.5h-118v-66zM220 422v-69h118q49 0 72.5 13.5t33.5 48.5q2 2 3 7h-227z" />
    <glyph glyph-name="oneone" unicode="&#xec03;" horiz-adv-x="1089" 
d="M158 581h-17q-59 0 -59 43q0 26 23 37q13 6 36 6h54q37 0 51 -13.5t14 -47.5v-282q0 -26 -7 -39q-13 -24 -44 -24t-44 24q-7 12 -7 39v257zM521 361l109 278q18 45 50 45q19 0 33 -13.5t14 -32.5q0 -11 -9 -34l-230 -578q-18 -44 -50 -44q-19 0 -33 13.5t-14 31.5
q0 13 9 35zM858 314h-17q-59 0 -59 43q0 26 23 37q13 6 36 6h54q37 0 51 -13.5t14 -47.5v-282q0 -26 -7 -39q-13 -24 -44 -24t-44 24q-7 12 -7 39v257z" />
    <glyph glyph-name="space10mm" unicode="&#xec05;" horiz-adv-x="67" 
 />
    <glyph glyph-name="ft" unicode="&#xec0a;" horiz-adv-x="711" 
d="M242 503h26q52 0 72 -22q14 -16 17 -42q4 71 91 68v76q0 41 10 60q19 37 64 37q44 0 63 -37q10 -19 10 -60v-76h27q39 0 56 -9q33 -17 33 -57q0 -41 -33 -58q-17 -9 -56 -9h-27v-283q0 -42 -10 -61q-19 -37 -63 -37q-45 0 -64 37q-10 19 -10 61v283q-84 -1 -91 64
q-3 -34 -22.5 -51.5t-66.5 -17.5h-26v-278q0 -42 -10 -61q-19 -37 -63 -37q-45 0 -64 37q-10 19 -10 61v278h-6q-38 0 -56 10q-33 18 -33 58t33 57q17 9 56 9h6v73q0 69 44 111.5t116 42.5q85 0 85 -67q0 -61 -57 -64q-14 -1 -23 -4q-18 -7 -18 -36v-56z" />
    <glyph glyph-name="fff" unicode="&#xec0b;" horiz-adv-x="1070" 
d="M242 503h26q52 0 72 -22q14 -16 17 -43q3 29 21.5 47t67.5 18h6v73q0 69 44 111.5t116 42.5q85 0 85 -67q0 -61 -57 -64q-14 -1 -23 -4q-18 -7 -18 -36v-56h26q53 0 71 -22q14 -17 17 -43q3 29 21.5 47t67.5 18h6v73q0 69 44 111.5t116 42.5q85 0 85 -67q0 -61 -57 -64
q-14 -1 -23 -4q-18 -7 -18 -36v-56h26q38 0 55 -9q34 -17 34 -58t-33 -58q-17 -9 -56 -9h-26v-278q0 -42 -10 -61q-19 -37 -63 -37q-45 0 -64 37q-10 19 -10 61v278h-6q-54 0 -72 22q-14 17 -17 43q-3 -29 -21.5 -47t-66.5 -18h-26v-278q0 -42 -10 -61q-19 -37 -63 -37
q-45 0 -64 37q-10 19 -10 61v278h-6q-54 0 -72 22q-14 17 -17 43q-4 -32 -22 -48.5t-67 -16.5h-26v-278q0 -42 -10 -61q-19 -37 -63 -37q-45 0 -64 37q-10 19 -10 61v278h-6q-39 0 -56 9q-33 17 -33 58t33 58q17 9 56 9h6v73q0 69 44 111.5t116 42.5q85 0 85 -67
q0 -61 -57 -64q-14 -1 -23 -4q-18 -7 -18 -36v-56z" />
    <glyph glyph-name="fft" unicode="&#xec0c;" horiz-adv-x="1067" 
d="M242 503h26q52 0 72 -22q14 -16 17 -42q3 28 21.5 46t67.5 18h6v73q0 69 44 111.5t116 42.5q85 0 85 -67q0 -61 -57 -64q-14 -1 -23 -4q-18 -7 -18 -36v-56h26q52 0 71 -22q14 -17 17 -42q4 71 91 68v76q0 41 10 60q19 37 64 37q44 0 63 -37q10 -19 10 -60v-76h27
q39 0 56 -9q33 -17 33 -57q0 -41 -33 -58q-17 -9 -56 -9h-27v-283q0 -42 -10 -61q-19 -37 -63 -37q-45 0 -64 37q-10 19 -10 61v283q-84 -1 -91 64q-3 -34 -25 -54q-19 -15 -63 -15h-26v-278q0 -42 -10 -61q-19 -37 -63 -37q-45 0 -64 37q-10 19 -10 61v278h-6q-82 0 -89 65
q-4 -31 -23 -48t-66 -17h-26v-278q0 -42 -10 -61q-19 -37 -63 -37q-45 0 -64 37q-10 19 -10 61v278h-6q-38 0 -56 10q-33 18 -33 58t33 57q17 9 56 9h6v73q0 69 44 111.5t116 42.5q85 0 85 -67q0 -61 -57 -64q-14 -1 -23 -4q-18 -7 -18 -36v-56z" />
    <glyph glyph-name="currency_2" unicode="&#xec13;" horiz-adv-x="717" 
d="M40 108l101 102q-36 63 -36 130q0 60 39 132l-104 103l83 83l105 -105q71 37 131 37q57 0 128 -37l105 104l81 -82l-101 -101q40 -70 40 -136q0 -59 -36 -128l101 -101l-81 -83l-101 101q-66 -41 -131 -41q-68 0 -141 41l-101 -100zM360 456q-48 0 -81.5 -33.5
t-33.5 -82.5q0 -47 33.5 -81t80.5 -34t80.5 34t33.5 82q0 47 -33.5 81t-79.5 34z" />
    <glyph glyph-name="Dotaccent" unicode="&#xefed;" 
d="M248 860q28 0 48.5 -20t20.5 -47t-19.5 -47t-46.5 -20t-47.5 21t-20.5 49q0 26 19.5 45t45.5 19z" />
    <glyph glyph-name="Breve" unicode="&#xefee;" 
d="M127 872q15 0 39 -23q38 -36 84 -36q37 0 72 27q40 31 56 31q18 0 32 -15.5t14 -35.5q0 -36 -56.5 -69t-117.5 -33q-62 0 -118.5 33t-56.5 70q0 22 15 36.5t37 14.5z" />
    <glyph glyph-name="Ogonek" unicode="&#xeff1;" 
d="M428 0h67q-55 -41 -55 -81q0 -45 62 -45q13 0 33 5l1 -55q-33 -10 -60 -10q-49 0 -78.5 24t-29.5 63q0 49 60 99z" />
    <glyph glyph-name="Cedilla" unicode="&#xeff2;" 
d="M341 0l-94 -129q-15 -21 -41 -21q-17 0 -31.5 14.5t-14.5 30.5q0 14 10 28l54 77h117z" />
    <glyph glyph-name="Ring" unicode="&#xeff3;" 
d="M247 900q38 0 66 -27t28 -64t-27 -64.5t-63 -27.5q-37 0 -65 29t-28 67q0 35 26.5 61t62.5 26zM248 850q-16 0 -28 -12t-12 -28q0 -17 13 -30t29 -13q17 0 29 12.5t12 29.5q0 16 -13 28.5t-30 12.5z" />
    <glyph glyph-name="Tilde" unicode="&#xeff5;" 
d="M176 863q35 0 108 -37q18 -9 34 -9t28 23.5t37 23.5q19 0 31.5 -13t12.5 -33q0 -37 -31 -64.5t-74 -27.5q-32 0 -76 22q-48 24 -64 24q-11 0 -16 -4.5t-19 -26.5q-10 -16 -32 -16q-43 0 -43 47q0 37 30.5 64t73.5 27z" />
    <glyph glyph-name="Circumflex" unicode="&#xeff7;" 
d="M250 771l-113 -42q-13 -5 -21 -5q-19 0 -34 16t-15 36q0 34 33 46l130 47q14 5 19 5q3 0 18 -5l127 -43q39 -13 39 -48q0 -21 -15.5 -36t-37.5 -15q-8 0 -11 2z" />
    <glyph glyph-name="Commabelow" unicode="&#xf634;" 
d="M314 -42v-65q0 -65 -30 -92t-103 -29v45q37 2 51 9q24 11 26 42h-74v90h130z" />
    <glyph glyph-name="dotlessj" unicode="&#xf6be;" horiz-adv-x="261" 
d="M205 480v-464q0 -55 -4 -75q-7 -41 -35 -64q-39 -32 -128 -32q-20 0 -73 6v110q27 -3 38 -3q32 0 47 19q11 14 11 57v446h144z" />
    <glyph glyph-name="Scedilla1" unicode="&#xf6c1;" horiz-adv-x="619" 
d="M325 -15l-26 -41q32 6 46 6q42 0 68 -22t26 -57q0 -42 -35.5 -68.5t-92.5 -26.5q-62 0 -135 28l21 44q54 -22 97 -22q54 0 54 41q0 38 -49 38q-18 0 -46 -9l-25 22l44 69q-119 10 -184 72t-66 165h162q3 -55 28 -81q35 -36 106 -36q53 0 84 22.5t31 60.5q0 29 -22 44
q-25 17 -130 47q-89 25 -123 39t-59 35q-53 44 -53 126q0 91 71.5 146t187.5 55q125 0 193.5 -55.5t70.5 -158.5h-152q-3 92 -118 92q-45 0 -71.5 -18t-26.5 -49q0 -33 27 -47q18 -9 125 -38q115 -31 157 -56q83 -50 83 -149t-70.5 -156t-197.5 -62z" />
    <glyph glyph-name="scedilla1" unicode="&#xf6c2;" horiz-adv-x="501" 
d="M261 -13l-25 -40q25 6 43 6q39 0 63.5 -20t24.5 -52q0 -39 -33 -64t-85 -25q-64 0 -125 26l18 40q53 -20 91 -20q50 0 50 39q0 37 -44 37q-17 0 -43 -10l-24 21l41 63q-92 7 -144 52.5t-54 121.5h139q6 -81 96 -81q82 0 82 58q0 24 -20.5 35.5t-88.5 26.5
q-100 21 -137 43q-59 34 -59 105t56.5 109t161.5 38q129 0 183 -61q30 -34 34 -94h-134q-5 36 -24 51t-61 15q-72 0 -72 -48q0 -24 21.5 -34.5t97.5 -25.5q103 -20 144.5 -53.5t41.5 -96.5q0 -73 -56.5 -115.5t-158.5 -46.5z" />
    <glyph glyph-name="Acute" unicode="&#xf6c9;" 
d="M156 819l157 46q10 3 17 3q22 0 36.5 -14.5t14.5 -34.5q0 -38 -37 -49l-155 -48q-13 -4 -24 -4q-21 0 -35 15t-14 37q0 37 40 49z" />
    <glyph glyph-name="Caron" unicode="&#xf6ca;" 
d="M250 827l119 42q3 2 11 2q22 0 37.5 -15.5t15.5 -35.5q0 -35 -39 -48l-127 -43q-15 -5 -18 -5q-5 0 -19 5l-130 47q-33 12 -33 46q0 20 15 36t34 16q8 0 21 -5z" />
    <glyph glyph-name="Dieresis" unicode="&#xf6cb;" 
d="M160 860q28 0 48.5 -20t20.5 -47t-19.5 -47t-46.5 -20t-47.5 21t-20.5 49q0 26 19.5 45t45.5 19zM337 860q28 0 48.5 -20t20.5 -47t-19.5 -47t-46.5 -20t-47.5 21t-20.5 49q0 26 19.5 45t45.5 19z" />
    <glyph glyph-name="Grave" unicode="&#xf6ce;" 
d="M308 722l-154 48q-38 12 -38 49q0 20 15 34.5t36 14.5q7 0 17 -3l157 -46q40 -12 40 -49q0 -22 -14 -37t-35 -15q-11 0 -24 4z" />
    <glyph glyph-name="Hungarumlaut" unicode="&#xf6cf;" 
d="M325 852l-126 -131h-80l69 131h137zM514 852l-127 -131h-79l69 131h137z" />
    <glyph glyph-name="Macron" unicode="&#xf6d0;" 
d="M363 743h-226q-28 0 -42 7q-25 12 -25 43t25 43q14 7 42 7h226q18 0 30 -3q37 -9 37 -47q0 -31 -25 -43q-14 -7 -42 -7z" />
    <glyph glyph-name="onefitted" unicode="&#xf6dc;" horiz-adv-x="360" 
d="M164 532h-32q-38 0 -55 9q-34 17 -34 59q0 41 34 58q17 9 55 9h86q54 0 76 -21t22 -77v-478q0 -43 -10 -63q-19 -38 -66 -38t-66 38q-10 19 -10 63v441z" />
    <glyph glyph-name="centsuperior" unicode="&#xf6e0;" horiz-adv-x="389" 
d="M254 639v-16q79 -15 79 -59q0 -17 -12.5 -30t-28.5 -13q-9 0 -37 10q-14 5 -33 5q-28 0 -46 -19.5t-18 -51.5q0 -31 19 -50.5t48 -19.5q14 0 52 13q10 2 15 2q16 0 28 -13t12 -30q0 -39 -78 -58v-18q0 -43 -35 -43t-35 43v18q-58 11 -92.5 53t-34.5 102q0 62 34 104
t93 55v16q0 42 35 42t35 -42z" />
    <glyph glyph-name="commasuperior" unicode="&#xf6e2;" horiz-adv-x="171" 
d="M132 374v-78q0 -113 -94 -120v45q37 6 40 52h-38v101h92z" />
    <glyph glyph-name="dollarsuperior" unicode="&#xf6e4;" horiz-adv-x="389" 
d="M230 705v-25q91 -14 91 -59q0 -20 -14.5 -33.5t-35.5 -13.5q-11 0 -42 9q-21 6 -33 6q-19 0 -32.5 -9t-13.5 -22q0 -19 37 -28q90 -23 126 -52.5t36 -82.5q0 -106 -119 -134v-29q0 -43 -35 -43t-35 43v26q-121 10 -121 69q0 19 14 33t33 14q12 0 55 -14q28 -9 49 -9
q49 0 49 37q0 17 -15 26t-63 21q-63 16 -87 37q-35 31 -35 79t32.5 82.5t88.5 46.5v25q0 43 35 43t35 -43z" />
    <glyph glyph-name="hyphensuperior" unicode="&#xf6e6;" horiz-adv-x="215" 
d="M189 392h-164v62h164v-62z" />
    <glyph glyph-name="periodsuperior" unicode="&#xf6e8;" horiz-adv-x="172" 
d="M137 384v-117h-102v117h102z" />
    <glyph glyph-name="asuperior" unicode="&#xf6e9;" horiz-adv-x="365" 
d="M333 529v-212q0 -24 -14 -39t-36 -15q-32 0 -46 30q-31 -32 -74 -32q-63 0 -105.5 46t-42.5 114q0 67 42.5 112.5t104.5 45.5q41 0 76 -32q14 30 46 30q21 0 35 -14t14 -34zM173 492q-26 0 -42.5 -19.5t-16.5 -51.5q0 -33 16 -53t43 -20q26 0 42.5 20t16.5 52t-16.5 52
t-42.5 20z" />
    <glyph glyph-name="esuperior" unicode="&#xf6ec;" horiz-adv-x="345" 
d="M287 387h-164q18 -45 66 -45q22 0 74 24q11 5 22 5q15 0 27.5 -12t12.5 -27q0 -28 -43 -50t-97 -22q-75 0 -122.5 43.5t-47.5 111.5q0 71 45.5 117.5t114.5 46.5q65 0 110 -44.5t45 -109.5q0 -38 -43 -38zM119 453h113q-13 48 -55 48q-40 0 -58 -48z" />
    <glyph glyph-name="isuperior" unicode="&#xf6ed;" horiz-adv-x="176" 
d="M84 709q23 0 40.5 -16.5t17.5 -38.5q0 -23 -16.5 -39.5t-38.5 -16.5t-39 17.5t-17 40.5q0 21 16 37t37 16zM37 515q0 26 7 38q13 23 43 23q29 0 42 -23q7 -12 7 -38v-191q0 -26 -7 -38q-13 -23 -42 -23q-31 0 -43 23q-7 13 -7 38v191z" />
    <glyph glyph-name="lsuperior" unicode="&#xf6ee;" horiz-adv-x="162" 
d="M130 645v-321q0 -26 -7 -38q-13 -23 -42 -23q-31 0 -43 23q-7 13 -7 38v321q0 26 7 38q13 23 43 23t42 -23q7 -13 7 -38z" />
    <glyph glyph-name="msuperior" unicode="&#xf6ef;" horiz-adv-x="533" 
d="M31 324v200q0 53 49 53q25 0 45 -27q35 29 80 29q57 0 88 -37q48 37 95 37q48 0 80.5 -30t32.5 -74v-151q0 -25 -7 -38q-12 -23 -42 -23q-31 0 -43 23q-7 13 -7 38v132q0 42 -42 42q-44 0 -44 -42v-132q0 -25 -7 -38q-12 -23 -42 -23q-31 0 -43 23q-7 13 -7 38v123
q0 51 -43 51q-44 0 -44 -42v-132q0 -25 -7 -38q-12 -23 -42 -23q-31 0 -43 23q-7 13 -7 38z" />
    <glyph glyph-name="osuperior" unicode="&#xf6f0;" horiz-adv-x="344" 
d="M172 579q66 0 111 -46t45 -113t-45 -113t-111 -46q-68 0 -112.5 45.5t-44.5 115.5q0 66 45.5 111.5t111.5 45.5zM170 492q-24 0 -40.5 -20.5t-16.5 -50.5q0 -32 16 -52.5t41 -20.5t42.5 21t17.5 51t-17.5 51t-42.5 21z" />
    <glyph glyph-name="rsuperior" unicode="&#xf6f1;" horiz-adv-x="244" 
d="M31 324v199q0 53 50 53q30 0 46 -28q33 30 61 30q22 0 36.5 -14t14.5 -34q0 -28 -49 -43q-36 -11 -48 -21.5t-12 -32.5v-109q0 -26 -7 -38q-13 -23 -42 -23q-31 0 -43 23q-7 13 -7 38z" />
    <glyph glyph-name="ssuperior" unicode="&#xf6f2;" horiz-adv-x="287" 
d="M152 579q43 0 75 -19t32 -44q0 -16 -12 -28.5t-28 -12.5q-10 0 -39 12q-22 9 -34 9q-20 0 -20 -12q0 -7 7 -11t38 -16q52 -19 73.5 -40.5t21.5 -54.5q0 -44 -34.5 -72.5t-89.5 -28.5q-49 0 -85 20t-36 46q0 16 13 29t29 13q10 0 48 -16q21 -9 36 -9q22 0 22 17
q0 7 -8 11.5t-50 19.5q-81 29 -81 89q0 42 35 70t87 28z" />
    <glyph glyph-name="tsuperior" unicode="&#xf6f3;" horiz-adv-x="237" 
d="M161 487v-163q0 -26 -7 -38q-13 -23 -42 -23q-31 0 -43 23q-7 13 -7 38v163q-57 2 -57 42q0 43 57 43v42q0 25 7 38q12 23 43 23q30 0 42 -23q7 -13 7 -38v-42h13q59 0 59 -42q0 -43 -59 -43h-13z" />
    <glyph glyph-name="ff" unicode="&#xfb00;" horiz-adv-x="713" 
d="M242 503h26q52 0 72 -22q14 -16 17 -43q3 29 21.5 47t67.5 18h6v73q0 69 44 111.5t116 42.5q85 0 85 -67q0 -61 -57 -64q-14 -1 -23 -4q-18 -7 -18 -36v-56h26q38 0 55 -9q34 -17 34 -58t-33 -58q-17 -9 -56 -9h-26v-278q0 -42 -10 -61q-19 -37 -63 -37q-45 0 -64 37
q-10 19 -10 61v278h-6q-54 0 -72 22q-14 17 -17 43q-4 -32 -22 -48.5t-67 -16.5h-26v-278q0 -42 -10 -61q-19 -37 -63 -37q-45 0 -64 37q-10 19 -10 61v278h-6q-39 0 -56 9q-33 17 -33 58t33 58q17 9 56 9h6v73q0 69 44 111.5t116 42.5q85 0 85 -67q0 -61 -57 -64
q-14 -1 -23 -4q-18 -7 -18 -36v-56z" />
    <glyph glyph-name="ffi" unicode="&#xfb03;" horiz-adv-x="969" 
d="M242 503h26q52 0 72 -22q14 -16 17 -43q3 29 21.5 47t67.5 18h6v73q0 69 44 111.5t116 42.5q85 0 85 -67q0 -61 -57 -64q-14 -1 -23 -4q-18 -7 -18 -36v-56h26q38 0 55 -9q34 -17 34 -58t-33 -58q-17 -9 -56 -9h-26v-278q0 -42 -10 -61q-19 -37 -63 -37q-45 0 -64 37
q-10 19 -10 61v278h-6q-54 0 -72 22q-14 17 -17 43q-4 -32 -22 -48.5t-67 -16.5h-26v-278q0 -42 -10 -61q-19 -37 -63 -37q-45 0 -64 37q-10 19 -10 61v278h-6q-39 0 -56 9q-33 17 -33 58t33 58q17 9 56 9h6v73q0 69 44 111.5t116 42.5q85 0 85 -67q0 -61 -57 -64
q-14 -1 -23 -4q-18 -7 -18 -36v-56zM839 732q36 0 62 -25t26 -59q0 -35 -25 -61t-59 -26t-60.5 27t-26.5 62q0 33 24.5 57.5t58.5 24.5zM766 91v325q0 42 10 61q19 37 64 37q44 0 63 -37q10 -20 10 -61v-325q0 -42 -10 -61q-19 -37 -63 -37q-45 0 -64 37q-10 19 -10 61z" />
    <glyph glyph-name="ffl" unicode="&#xfb04;" horiz-adv-x="946" 
d="M242 503h26q52 0 72 -22q14 -16 17 -43q3 29 21.5 47t67.5 18h6v73q0 69 44 111.5t116 42.5q85 0 85 -67q0 -61 -57 -64q-14 -1 -23 -4q-18 -7 -18 -36v-56h26q38 0 55 -9q34 -17 34 -58t-33 -58q-17 -9 -56 -9h-26v-278q0 -42 -10 -61q-19 -37 -63 -37q-45 0 -64 37
q-10 19 -10 61v278h-6q-54 0 -72 22q-14 17 -17 43q-4 -32 -22 -48.5t-67 -16.5h-26v-278q0 -42 -10 -61q-19 -37 -63 -37q-45 0 -64 37q-10 19 -10 61v278h-6q-39 0 -56 9q-33 17 -33 58t33 58q17 9 56 9h6v73q0 69 44 111.5t116 42.5q85 0 85 -67q0 -61 -57 -64
q-14 -1 -23 -4q-18 -7 -18 -36v-56zM903 636v-545q0 -42 -10 -61q-19 -37 -63 -37q-45 0 -64 37q-10 19 -10 61v545q0 41 10 60q19 37 64 37q44 0 63 -37q10 -19 10 -60z" />
    <glyph glyph-name="glyph570" horiz-adv-x="300" 
 />
    <glyph glyph-name="sigmaterminal" horiz-adv-x="513" 
d="M463 -172h-123q26 88 26 108q0 25 -16 35q-8 6 -40 14l-61 15q-64 16 -84 24q-23 9 -51 33q-86 72 -86 190q0 109 72.5 179t184.5 70q97 0 158.5 -53t68.5 -141h-141q-6 93 -90 93q-44 0 -72.5 -33t-28.5 -83q0 -73 37 -120q28 -35 98 -52l58 -14q70 -17 95 -45.5
t25 -90.5q0 -49 -30 -129z" />
    </font>
</defs>
</svg>
