<svg height="511pt" viewBox="-12 1 511 511.99898" width="511pt" xmlns="http://www.w3.org/2000/svg"><path d="m341.960938 122.632812h24.585937c4.246094 0 7.683594-3.4375 7.683594-7.683593 0-4.242188-3.4375-7.683594-7.683594-7.683594h-24.585937c-4.242188 0-7.679688 3.441406-7.679688 7.683594 0 4.246093 3.4375 7.683593 7.679688 7.683593zm0 0"/><path d="m173.796875 107.265625h-24.585937c-4.246094 0-7.683594 3.441406-7.683594 7.683594 0 4.246093 3.4375 7.683593 7.683594 7.683593h24.585937c4.242187 0 7.679687-3.4375 7.679687-7.683593 0-4.242188-3.4375-7.683594-7.679687-7.683594zm0 0"/><path d="m410.242188 32.261719c-7.125 0-10.386719 9.347656-4.714844 13.746093 5.554687 4.308594 13.832031-.871093 12.203125-7.792968-.8125-3.441406-3.949219-5.953125-7.488281-5.953125zm0 0"/><path d="m112.601562 37.003906c-1.210937-3.03125-4.414062-4.964844-7.65625-4.71875-3.199218.246094-5.980468 2.511719-6.832031 5.609375-.808593 2.941407.230469 6.199219 2.644531 8.082031 2.695313 2.097657 6.496094 2.175782 9.265626.179688 2.835937-2.039062 3.941406-5.929688 2.578124-9.152344zm0 0"/><path d="m479.617188 221.929688c4.246093 0 7.683593-3.4375 7.683593-7.683594v-27.972656c0-24.695313-15.40625-45.847657-37.105469-54.382813v-101.617187c0-16.695313-13.582031-30.273438-30.273437-30.273438h-324.085937c-16.695313 0-30.273438 13.578125-30.273438 30.273438v102.792968c-20.222656 9.195313-34.328125 29.578125-34.328125 53.207032v61.753906c-17.601563 4.191406-30.734375 20.035156-30.734375 38.898437v65.992188c0 18.863281 13.132812 34.710937 30.734375 38.898437v61.757813c0 32.214843 26.203125 58.425781 58.410156 58.425781h339.242188c32.210937 0 58.414062-26.210938 58.414062-58.425781v-208.59375c0-4.242188-3.4375-7.679688-7.683593-7.679688-4.242188 0-7.683594 3.4375-7.683594 7.679688v208.597656c0 23.742187-19.308594 43.054687-43.046875 43.054687h-339.242188c-23.734375 0-43.042969-19.3125-43.042969-43.054687v-60.667969h136.308594c22.050782 0 39.988282-17.9375 39.988282-39.992187v-65.992188c0-22.050781-17.9375-39.988281-39.988282-39.988281h-136.308594v-60.664062c0-23.742188 19.308594-43.058594 43.042969-43.058594h339.242188c23.738281 0 43.046875 19.316406 43.046875 43.058594v27.972656c0 4.246094 3.441406 7.683594 7.683594 7.683594zm-272.085938 64.996093v65.992188c0 13.578125-11.046875 24.625-24.625 24.625h-142.417969c-13.574219 0-24.625-11.046875-24.625-24.625v-65.992188c0-13.578125 11.046875-24.625 24.625-24.625h142.417969c13.578125 0 24.625 11.046875 24.625 24.625zm18.078125-171.972656c0-17.796875 14.476563-32.269531 32.269531-32.269531 17.792969 0 32.269532 14.472656 32.269532 32.269531 0 4.460937-.925782 8.847656-2.691407 12.894531h-59.15625c-1.765625-4.046875-2.691406-8.433594-2.691406-12.894531zm192.316406 12.894531v-48.25c0-4.242187-3.4375-7.683594-7.683593-7.683594-17.628907 0-31.972657-14.339843-31.972657-31.972656 0-4.242187-3.4375-7.683594-7.683593-7.683594h-143.613282c-4.242187 0-7.679687 3.441407-7.679687 7.683594 0 4.246094 3.4375 7.683594 7.679687 7.683594h136.554688c3.269531 19.960938 19.074218 35.761719 39.03125 39.035156v41.1875h-98.824219c1.175781-4.171875 1.78125-8.511718 1.78125-12.894531 0-26.269531-21.367187-47.636719-47.636719-47.636719-26.265625 0-47.632812 21.367188-47.632812 47.636719 0 4.382813.605468 8.71875 1.777344 12.894531h-98.824219v-41.191406c19.960937-3.269531 35.761719-19.070312 39.035156-39.03125h44.007813c4.242187 0 7.679687-3.441406 7.679687-7.683594 0-4.242187-3.4375-7.683594-7.679687-7.683594h-51.070313c-4.242187 0-7.683594 3.441407-7.683594 7.683594 0 17.628906-14.339843 31.972656-31.972656 31.972656-4.242187 0-7.683594 3.441407-7.683594 7.683594v48.25h-8.1875c-2.960937 0-5.871093.226563-8.714843.652344v-98.226562c0-8.21875 6.6875-14.90625 14.90625-14.90625h324.085937c8.21875 0 14.90625 6.6875 14.90625 14.90625v97.875c-1.953125-.199219-3.933594-.300782-5.941406-.300782zm0 0"/><path d="m147.554688 361.214844c22.769531 0 41.292968-18.523438 41.292968-41.292969 0-22.765625-18.523437-41.292969-41.292968-41.292969-22.765626 0-41.289063 18.527344-41.289063 41.292969 0 22.769531 18.523437 41.292969 41.289063 41.292969zm0-67.21875c14.296874 0 25.929687 11.632812 25.929687 25.925781 0 14.296875-11.632813 25.929687-25.929687 25.929687-14.292969 0-25.925782-11.632812-25.925782-25.929687 0-14.292969 11.632813-25.925781 25.925782-25.925781zm0 0"/></svg>